<?xml version="1.0" standalone="no"?>
<!DOCTYPE svg PUBLIC "-//W3C//DTD SVG 1.1//EN" "http://www.w3.org/Graphics/SVG/1.1/DTD/svg11.dtd" >
<svg>
<metadata>
Created by FontForge 20090914 at Tue Oct  9 19:50:14 2018
 By www-data
Tiempo is a product of MicroLogic Software, Inc.
</metadata>
<defs>
<font id="Tiempo-" horiz-adv-x="1020" >
  <font-face 
    font-family="Tiempo"
    font-weight="400"
    font-stretch="normal"
    units-per-em="2048"
    panose-1="2 2 6 0 0 0 0 2 0 0"
    ascent="1638"
    descent="-410"
    x-height="950.999"
    cap-height="1406"
    bbox="-337 -520.002 2621.01 1955"
    underline-thickness="150"
    underline-position="-227"
    unicode-range="U+0020-U+25CA"
  />
<missing-glyph horiz-adv-x="1372" 
d="M1200 1193v-1032h-1032v1032h1032zM258 1107v-860h852v860h-852z" />
    <glyph glyph-name=".notdef" horiz-adv-x="1372" 
d="M1200 1193v-1032h-1032v1032h1032zM258 1107v-860h852v860h-852z" />
    <glyph glyph-name="space" unicode=" " horiz-adv-x="507" 
 />
    <glyph glyph-name="space" unicode="&#xa0;" horiz-adv-x="507" 
 />
    <glyph glyph-name="exclam" unicode="!" horiz-adv-x="664" 
d="M332 1439c44 -0.666992 74.1689 -15 90.502 -43s24.166 -65.667 23.499 -113l-98 -909h-41l-90 909c-0.666992 47.333 7.66602 85 24.999 113s47.333 42.333 90 43zM328.002 -33c-35.333 1.33301 -63.833 12.5 -85.5 33.5s-32.834 48.5 -33.501 82.5
c0.666992 34 11.334 62.833 32.001 86.5s49.667 35.834 87 36.501c37.333 -0.666992 67 -12.834 89 -36.501s33.333 -52.5 34 -86.5c-0.666992 -34 -12.5 -61.5 -35.5 -82.5s-52.167 -32.167 -87.5 -33.5z" />
    <glyph glyph-name="quotedbl" unicode="&#x22;" horiz-adv-x="684" 
d="M156 857l-70.001 492c0.666992 34.667 9.16699 60.334 25.5 77.001s37.833 25 64.5 25c25.333 0 45.833 -8.33301 61.5 -25s23.834 -42.334 24.501 -77.001l-69 -492h-37zM523.999 857h-37.001l-69 492c0.666992 34.667 9.16699 60.334 25.5 77.001s37.833 25 64.5 25
c25.333 0 45.833 -8.33301 61.5 -25s23.834 -42.334 24.501 -77.001z" />
    <glyph glyph-name="numbersign" unicode="#" horiz-adv-x="1569" 
d="M209 857l49 135h336l160 455h151l-160 -455h283l160 455h151l-159 -455h299l-49 -135h-300l-98 -278h320l-49 -136h-320l-160 -447h-151l159 447h-282l-160 -447h-151l159 447h-311l49 136h311l99 278h-336zM696 857l-98 -278h283l98 278h-283z" />
    <glyph glyph-name="dollar" unicode="$" 
d="M848 1320l0.00195312 -299.001h-37c-12 76.667 -41.167 146.834 -87.5 210.501s-114.166 101.5 -203.499 113.5v-517c32.667 -18.667 70.167 -41.667 112.5 -69s83.666 -59.833 123.999 -97.5s74.166 -81 101.499 -130s41.666 -104.167 42.999 -165.5
c-1.33301 -111.333 -36 -198.833 -104 -262.5s-160.333 -100.834 -277 -111.501v-168h-74v168c-54.667 2.66699 -113.334 10.167 -176.001 22.5s-118.667 29.833 -168 52.5v299h41c12.667 -73.333 44.334 -141.333 95.001 -204s120 -100 208 -112v606
c-94.667 61.333 -173.5 124.833 -236.5 190.5s-95.833 145.5 -98.5 239.5c2 90.667 33.333 165.5 94 224.5s141 89.5 241 91.5v151h74v-151c48 -0.666992 103.667 -8.66699 167 -24s117 -34.666 161 -57.999zM446.002 1345c-63.333 -8 -110.5 -30.333 -141.5 -67
s-46.5 -80 -46.5 -130c2 -68 21.667 -121.667 59 -161s80.333 -74.333 129 -105v463zM520.002 49.999c95.333 25.333 156.167 60.168 182.5 104.501s37.833 94.166 34.5 149.499c-2 74 -23.833 133.833 -65.5 179.5s-92.167 88.167 -151.5 127.5v-561z" />
    <glyph glyph-name="percent" unicode="%" horiz-adv-x="1917" 
d="M1049 1279c80.667 2 155.334 22.4961 224.001 61.4961s122.334 84.167 161.001 135.5h82l-1016 -1537h-82l917 1389c-42 -27.333 -86.833 -49.666 -134.5 -66.999s-103.834 -26.333 -168.501 -27c-32.667 0.666992 -64 4.83398 -94 12.501s-57.333 15.834 -82 24.501
l4 -94c-1.33301 -97.333 -42 -208.333 -122 -333s-192.333 -192.667 -337 -204c-82 2 -144.667 28.167 -188 78.5s-65.333 111.5 -66 183.5c7.33301 131.333 61.833 251.333 163.5 360s204.167 166.334 307.5 173.001c49.333 0 88 -7.83301 116 -23.5s53.667 -33.5 77 -53.5
s52.666 -37.833 87.999 -53.5s85.333 -24.167 150 -25.5zM1298 -25.0039c-78 3.33301 -138.167 32.334 -180.5 87.001s-63.833 119 -64.5 193c4.66699 115.333 54.167 230 148.5 344s204.5 175.333 330.5 184c83.333 -2 143.833 -26.167 181.5 -72.5
s56.167 -105.166 55.5 -176.499c-3.33301 -116.667 -49 -236.334 -137 -359.001s-199.333 -189.334 -334 -200.001zM1188 184.997c0 -39.333 10.998 -72.6641 32.998 -99.9971s57.333 -41.666 106 -42.999c96.667 7.33301 183.834 63.166 261.501 167.499
s118.834 215.166 123.501 332.499c0 52 -12.833 94.667 -38.5 128s-66.167 50.666 -121.5 51.999c-79.333 -14.667 -158.333 -88.334 -237 -221.001s-121 -238 -127 -316zM282.998 844.999c0 -44 11.3291 -79.5 33.9961 -106.5s56.334 -40.833 101.001 -41.5
c111.333 10 203.333 68.5 276 175.5s110.334 204.167 113.001 291.5c0.666992 26 0.166992 48.833 -1.5 68.5s-6.5 40.5 -14.5 62.5c-32.667 12 -60.667 26.333 -84 43s-46 25.667 -68 27c-81.333 -15.333 -159.666 -88.833 -234.999 -220.5
s-115.666 -231.5 -120.999 -299.5z" />
    <glyph glyph-name="ampersand" unicode="&#x26;" horiz-adv-x="1671" 
d="M696 882c84 40.667 147.331 88.6689 189.998 144.002s64 117.666 64 186.999c-0.666992 50 -15.167 89.667 -43.5 119s-68.5 44.333 -120.5 45c-51.333 -1.33301 -90.666 -20.833 -117.999 -58.5s-41 -84.834 -41 -141.501c0 -35.333 6.33301 -81 19 -137
s29.334 -108.667 50.001 -158zM798.998 1431c89.333 -1.33301 153.497 -23.3311 192.497 -65.998s58.167 -97.334 57.5 -164.001c-1.33301 -83.333 -31.833 -154.833 -91.5 -214.5s-138.5 -113.834 -236.5 -162.501c30 -64 73.833 -140.833 131.5 -230.5
s109.5 -161.5 155.5 -215.5c44 51.333 86.333 114 127 188s62.334 145 65.001 213c0.666992 27.333 -7.83301 49.666 -25.5 66.999s-48.834 26.333 -93.501 27v41h414v-41c-43.333 0 -79 -12.5 -107 -37.5s-55.667 -61.5 -83 -109.5l-100.5 -174
c-39.667 -68 -91.5 -145 -155.5 -231c40 -46 89.667 -91.5 149 -136.5s121.333 -69.167 186 -72.5c45.333 1.33301 83 12.833 113 34.5s54 45.5 72 71.5l24 -29c-28.667 -48 -69.5 -94.667 -122.5 -140s-118.5 -70 -196.5 -74c-79.333 4.66699 -150.5 29.5 -213.5 74.5
s-110.5 84.833 -142.5 119.5c-46.667 -49.333 -109.667 -93.833 -189 -133.5s-169.333 -61.167 -270 -64.5c-112 2.66699 -199.833 34.167 -263.5 94.5s-96.167 138.5 -97.5 234.5c6 124 53.333 226 142 306s184.667 143.333 288 190c-13.333 34.667 -27.166 79 -41.499 133
s-22.166 103.667 -23.499 149c0 99.333 28.333 182.333 85 249s140.334 101.334 251.001 104.001zM298.995 411.004c1.33301 -84 28 -159.333 80 -226s123.667 -102 215 -106c52.667 2 106 17 160 45s96.333 58 127 90c-70 80.667 -132 163 -186 247
s-101.333 176.333 -142 277c-92.667 -50.667 -158.5 -102.5 -197.5 -155.5s-57.833 -110.167 -56.5 -171.5z" />
    <glyph glyph-name="quotesingle" unicode="'" horiz-adv-x="352" 
d="M156 857l-70.001 492c0.666992 34.667 9.16699 60.334 25.5 77.001s37.833 25 64.5 25c25.333 0 45.833 -8.33301 61.5 -25s23.834 -42.334 24.501 -77.001l-69 -492h-37z" />
    <glyph glyph-name="parenleft" unicode="(" horiz-adv-x="782" 
d="M700 -487l-27.999 -33.002c-205.333 152 -348.333 311.833 -429 479.5s-119.334 342.5 -116.001 524.5c-2.66699 200.667 38 385 122 553s226.333 322.333 427 463l29 -33c-164.667 -144 -270.667 -296 -318 -456s-68.333 -335.667 -63 -527
c-4 -183.333 18.833 -355.166 68.5 -515.499s152.167 -312.166 307.5 -455.499z" />
    <glyph glyph-name="parenright" unicode=")" horiz-adv-x="782" 
d="M455 484c4.66699 184.667 -18.002 358.831 -68.002 522.498s-154.333 317.167 -313 460.5l32 33c200.667 -151.333 342.334 -308.666 425.001 -471.999s122.667 -344.666 120 -543.999c4 -181.333 -33.167 -355 -111.5 -521s-224.166 -327 -437.499 -483l-28 33
c158.667 140 263 288.5 313 445.5s72.667 332.167 68 525.5z" />
    <glyph glyph-name="asterisk" unicode="*" 
d="M180 1242c0.666992 22.667 7.66797 39.334 21.001 50.001s29.666 16 48.999 16c48 -3.33301 81.167 -25.666 99.5 -66.999s65.833 -82 142.5 -122c-4.66699 99.333 -14.334 157.333 -29.001 174s-23 49 -25 97c-1.33301 13.333 1.83398 27.166 9.50098 41.499
s26.5 22.166 56.5 23.499c29.333 -1.33301 48.333 -9.16602 57 -23.499s12.667 -28.166 12 -41.499c-2 -48 -10.833 -80.333 -26.5 -97s-24.5 -74.667 -26.5 -174c76.667 40 124.167 80.667 142.5 122s51.5 63.666 99.5 66.999c19.333 0 35.5 -5.33301 48.5 -16
s19.833 -27.334 20.5 -50.001c-2.66699 -50 -33 -76.5 -91 -79.5s-127.333 -25.5 -208 -67.5c80.667 -42 150 -64.667 208 -68s88.333 -30 91 -80c-0.666992 -22.667 -7.5 -39.167 -20.5 -49.5s-29.167 -15.5 -48.5 -15.5c-48 3.33301 -81.167 25.5 -99.5 66.5
s-65.833 81.5 -142.5 121.5c2 -99.333 10.833 -157.333 26.5 -174s24.5 -48.667 26.5 -96c0.666992 -14 -3.33301 -28.167 -12 -42.5s-27.667 -22.166 -57 -23.499c-30 1.33301 -48.833 9.16602 -56.5 23.499s-10.834 28.5 -9.50098 42.5c2 47.333 11 79.333 27 96
s25 74.667 27 174c-76.667 -40 -124.167 -80.5 -142.5 -121.5s-51.5 -63.167 -99.5 -66.5c-19.333 0 -35.666 5.16699 -48.999 15.5s-20.333 26.833 -21 49.5c2.66699 50 33.167 76.667 91.5 80s127.5 26 207.5 68c-80 42 -149.167 64.5 -207.5 67.5
s-88.833 29.5 -91.5 79.5z" />
    <glyph glyph-name="plus" unicode="+" horiz-adv-x="1700" 
d="M782 538h-528v135h528v536h136v-536h528v-135h-528v-538h-136v538z" />
    <glyph glyph-name="comma" unicode="," horiz-adv-x="508" 
d="M115 -352l-29 28.001c77.333 52.667 134.333 103.5 171 152.5s54.667 93.833 54 134.5c-0.666992 16.667 -6 27.167 -16 31.5s-22.333 6.16602 -37 5.49902c-9.33301 0 -17.5 -0.5 -24.5 -1.5s-15.167 -1.83301 -24.5 -2.5c-32 1.33301 -58.333 10.833 -79 28.5
s-31.334 41.167 -32.001 70.5c0 32 10.333 59.5 31 82.5s51.334 35.167 92.001 36.5c59.333 -1.33301 102.833 -18.833 130.5 -52.5s41.5 -77.5 41.5 -131.5c1.33301 -72 -19.5 -140.667 -62.5 -206s-114.833 -124 -215.5 -176z" />
    <glyph glyph-name="hyphen" unicode="-" horiz-adv-x="672" 
d="M578 558v-147h-492v147h492z" />
    <glyph glyph-name="hyphen" unicode="&#xad;" horiz-adv-x="672" 
d="M578 558v-147h-492v147h492z" />
    <glyph glyph-name="period" unicode="." horiz-adv-x="508" 
d="M127 99c0 34 10.6689 62.166 32.002 84.499s51.666 33.833 90.999 34.5c39.333 -1.33301 69.666 -14.166 90.999 -38.499s32 -52.5 32 -84.5s-10.167 -59.5 -30.5 -82.5s-51.166 -35.5 -92.499 -37.5c-40.667 2 -71.334 14.833 -92.001 38.5s-31 52.167 -31 85.5z" />
    <glyph glyph-name="slash" unicode="/" horiz-adv-x="553" 
d="M66 -188h-83l500 1627h86z" />
    <glyph glyph-name="zero" unicode="0" 
d="M57 779c-2 147.333 33.333 290.335 106 429.002s193 213 361 223c156.667 -9.33301 268.667 -80.333 336 -213s100 -269.334 98 -410.001v-131c4 -162 -26.167 -316.833 -90.5 -464.5s-185.5 -226.834 -363.5 -237.501c-169.333 10 -286.833 84.333 -352.5 223
s-97.167 284.667 -94.5 438v143zM524 1381c-108 -6.66699 -180 -63.166 -216 -169.499s-52.667 -223.166 -50 -350.499v-356c-3.33301 -95.333 11 -197.333 43 -306s99.667 -167.667 203 -177c62.667 1.33301 111.334 20 146.001 56s59.667 82.667 75 140
s24.666 117.833 27.999 181.5s5 123.5 5 179.5v356c2 95.333 -13 191.666 -45 288.999s-95 149.666 -189 156.999z" />
    <glyph glyph-name="one" unicode="1" 
d="M180 38c113.333 -3.33301 185.667 8.50098 217 35.501s45 90.167 41 189.5v905c0.666992 18.667 -2.33301 34.167 -9 46.5s-20 18.833 -40 19.5c-28.667 -4 -69.834 -19.667 -123.501 -47s-83.5 -43 -89.5 -47l-16 37l454 262v-1176
c-4 -102.667 8.83301 -166.834 38.5 -192.501s98.834 -36.5 207.501 -32.5v-38h-680v38z" />
    <glyph glyph-name="two" unicode="2" 
d="M430 1283c-85.333 -1.33301 -154.5 -25.6689 -207.5 -73.002s-94.5 -111.666 -124.5 -192.999l-41 8c18 106.667 63.5 200 136.5 280s177.833 122 314.5 126c137.333 -4 235 -42 293 -114s86 -153 84 -243c-1.33301 -82 -21.833 -161.5 -61.5 -238.5
s-91.667 -153 -156 -228s-133.666 -150.167 -207.999 -225.5l-217.5 -229h442c80 -1.33301 136.667 9.16699 170 31.5s65.333 63.5 96 123.5l37 -12l-115 -296h-815v34l235 262c77.333 82 147.333 160.5 210 235.5s113.167 148.667 151.5 221s58.166 145.5 59.499 219.5
c0 80.667 -23.167 151.834 -69.5 213.501s-117.5 94.167 -213.5 97.5z" />
    <glyph glyph-name="three" unicode="3" 
d="M111 1078l-32.9971 24.999c34 85.333 85.833 160.5 155.5 225.5s162.5 99.167 278.5 102.5c95.333 -2 170 -28.333 224 -79s81.667 -112 83 -184c0 -63.333 -16.667 -121.5 -50 -174.5s-82 -103.833 -146 -152.5c94 -28 163.333 -73.833 208 -137.5
s66.667 -140.834 66 -231.501c-1.33301 -128 -51 -241.333 -149 -340s-236.667 -151 -416 -157c-92.667 1.33301 -161.667 14.333 -207 39s-68 58.667 -68 102c0 20.667 7 37.834 21 51.501s34.333 20.834 61 21.501c63.333 -6 118 -30.5 164 -73.5s96.667 -67.5 152 -73.5
c94.667 4 166.667 41.167 216 111.5s74 150.5 74 240.5c0.666992 88 -33.833 160.667 -103.5 218s-179.834 87 -330.501 89v37c122 18 210.667 60.5 266 127.5s82.666 137.833 81.999 212.5c-1.33301 55.333 -22.833 103.5 -64.5 144.5s-97.834 62.5 -168.501 64.5
c-63.333 0 -120.5 -17.333 -171.5 -52s-98.833 -87 -143.5 -157z" />
    <glyph glyph-name="four" unicode="4" 
d="M602 493v720l-479 -720h479zM758 0h-156v357h-549v160l615 914h90v-938h196v-136h-196v-357z" />
    <glyph glyph-name="five" unicode="5" 
d="M111 861l236.995 545.003h430c22.667 0.666992 42 6 58 16s28 22.333 36 37l29 -12l-86 -197h-459l-94 -209c204 -31.333 354.833 -94.5 452.5 -189.5s146.167 -214.5 145.5 -358.5c-1.33301 -144 -50.166 -265.833 -146.499 -365.5s-233.166 -151.834 -410.499 -156.501
c-76.667 1.33301 -139.167 13.5 -187.5 36.5s-73.166 54.833 -74.499 95.5c0.666992 23.333 8.33398 41.5 23.001 54.5s34.334 19.5 59.001 19.5c70.667 -5.33301 124 -27.833 160 -67.5s82.333 -62.167 139 -67.5c100.667 5.33301 177 46.166 229 122.499
s78 157.166 78 242.499c-0.666992 136.667 -53.5 242 -158.5 316s-258.167 120 -459.5 138z" />
    <glyph glyph-name="six" unicode="6" 
d="M262 521c-3.33301 -96 12 -201.501 46 -316.501s104.667 -177.5 212 -187.5c96 5.33301 160.833 45.333 194.5 120s49.5 153.667 47.5 237c2 108 -17.333 207.333 -58 298s-114.334 138.667 -221.001 144c-54.667 -2.66699 -97.667 -16.167 -129 -40.5
s-53.666 -44.833 -66.999 -61.5c-6.66699 -33.333 -12.5 -69.666 -17.5 -108.999s-7.5 -67.333 -7.5 -84zM82 520.999c-4 222 55.835 419.665 179.502 592.998s336.834 279 639.501 317v-41c-185.333 -32.667 -326.5 -104.167 -423.5 -214.5
s-155.167 -236.833 -174.5 -379.5c33.333 29.333 72 52.833 116 70.5s92.667 26.834 146 27.501c134.667 -4.66699 232.167 -51.167 292.5 -139.5s89.833 -189.166 88.5 -302.499c0.666992 -126 -33.333 -235.667 -102 -329s-175.334 -142.666 -320.001 -147.999
c-154.667 5.33301 -267.334 60.666 -338.001 165.999s-105.334 232 -104.001 380z" />
    <glyph glyph-name="seven" unicode="7" 
d="M324 1238c-62.667 0.666992 -108.832 -13.168 -138.499 -41.501s-58.834 -73.166 -87.501 -134.499h-41l131 344h787l-488 -1431h-122l434 1263h-475z" />
    <glyph glyph-name="eight" unicode="8" 
d="M569 812c72.667 52.667 122.668 104.167 150.001 154.5s40.333 106.833 39 169.5c0 64 -19.667 120.167 -59 168.5s-99 73.833 -179 76.5c-74.667 -1.33301 -135.334 -23 -182.001 -65s-70.667 -95.333 -72 -160c1.33301 -74.667 28.833 -136 82.5 -184
s127.167 -101.333 220.5 -160zM127.001 1070c0 98 33.166 181.834 99.499 251.501s164.166 106.167 293.499 109.5c126.667 -2.66699 220.334 -32.5 281.001 -89.5s90 -125.5 88 -205.5c-0.666992 -87.333 -25.834 -155.666 -75.501 -204.999
s-118.834 -97.333 -207.501 -144c88.667 -54.667 164.834 -115 228.501 -181s96.834 -150.333 99.501 -253c-0.666992 -100 -38.834 -186.833 -114.501 -260.5s-183.5 -112.834 -323.5 -117.501c-116 2 -213.167 33.667 -291.5 95s-119.166 145 -122.499 251
c2 100 31.167 180.167 87.5 240.5s125.5 111.166 207.5 152.499c-60.667 38 -116.667 84.667 -168 140s-78.666 127.333 -81.999 216zM225 341.001c-0.666992 -81.333 22.832 -153.335 70.499 -216.002s122.5 -95.667 224.5 -99c86 2 151.167 27.833 195.5 77.5
s66.5 112.5 66.5 188.5c-2.66699 76.667 -38 146.334 -106 209.001s-151.333 125.334 -250 188.001c-69.333 -48.667 -120.166 -101.167 -152.499 -157.5s-48.5 -119.833 -48.5 -190.5z" />
    <glyph glyph-name="nine" unicode="9" 
d="M762 882c3.33301 96 -12 201.332 -46 315.999s-104.667 177 -212 187c-96 -5.33301 -160.833 -45.166 -194.5 -119.499s-49.5 -153.166 -47.5 -236.499c-2 -108 17.333 -207.333 58 -298s114.334 -138.667 221.001 -144c54.667 2.66699 97.667 16.167 129 40.5
s53.666 44.833 66.999 61.5c6.66699 33.333 12.5 69.666 17.5 108.999s7.5 67.333 7.5 84zM942 881.999c4 -222 -55.835 -419.498 -179.502 -592.498s-336.834 -277.833 -639.501 -314.5v38c185.333 32.667 326.5 104.167 423.5 214.5s155.167 236.833 174.5 379.5
c-33.333 -29.333 -72 -52.833 -116 -70.5s-92.667 -26.834 -146 -27.501c-134.667 4.66699 -232.167 51.167 -292.5 139.5s-89.833 189.166 -88.5 302.499c-0.666992 126 33.333 236.333 102 331s175.334 144.334 320.001 149.001
c154.667 -4.66699 267.334 -60.334 338.001 -167.001s105.334 -234 104.001 -382z" />
    <glyph glyph-name="colon" unicode=":" horiz-adv-x="557" 
d="M152 853c0.666992 34 12.333 62.1689 35 84.502s51.667 33.833 87 34.5c36 -0.666992 65.333 -12.334 88 -35.001s34.334 -52 35.001 -88c-0.666992 -36 -12 -65.333 -34 -88s-51.667 -34.334 -89 -35.001c-37.333 1.33301 -66.833 14.333 -88.5 39
s-32.834 54 -33.501 88zM273.999 -24.998c-37.333 2 -66.834 14.834 -88.501 38.501s-32.834 52.167 -33.501 85.5c0.666992 34 12.334 62.167 35.001 84.5s51.667 33.833 87 34.5c36 -0.666992 65.333 -12.334 88 -35.001s34.334 -52 35.001 -88
c-0.666992 -35.333 -12 -63.833 -34 -85.5s-51.667 -33.167 -89 -34.5z" />
    <glyph glyph-name="semicolon" unicode=";" horiz-adv-x="557" 
d="M303 1l-69.9961 -4.99805c-32.667 0.666992 -58.334 9 -77.001 25s-28.334 39.333 -29.001 70c-0.666992 34 8.66602 62.833 27.999 86.5s52.333 35.834 99 36.501c59.333 -1.33301 102.333 -19.833 129 -55.5s39.667 -79.834 39 -132.501
c-0.666992 -82 -25.834 -154.5 -75.501 -217.5s-118.834 -116.5 -207.501 -160.5l-24 28c70 44.667 124.833 92.167 164.5 142.5s59.834 97.166 60.501 140.499c0.666992 15.333 -0.833008 26.166 -4.5 32.499s-14.5 9.5 -32.5 9.5zM143.004 853.002
c0.666992 34 11.833 62.1689 33.5 84.502s50.167 33.833 85.5 34.5c36 -0.666992 65.333 -12.334 88 -35.001s34.334 -52 35.001 -88c-0.666992 -36 -12 -65.333 -34 -88s-51.667 -34.334 -89 -35.001c-37.333 1.33301 -66.333 14.333 -87 39s-31.334 54 -32.001 88z" />
    <glyph glyph-name="less" unicode="&#x3c;" horiz-adv-x="1700" 
d="M262 669l1168 479v-152l-967 -393l967 -393v-152l-1168 480v131z" />
    <glyph glyph-name="equal" unicode="=" horiz-adv-x="1700" 
d="M1442 337h-1188v135h1188v-135zM254 730v135h1188v-135h-1188z" />
    <glyph glyph-name="greater" unicode="&#x3e;" horiz-adv-x="1700" 
d="M266 1148l1168 -479v-131l-1168 -480v152l967 393l-967 393v152z" />
    <glyph glyph-name="question" unicode="?" horiz-adv-x="1004" 
d="M336 1078c-0.666992 -24.667 -9.66895 -44.332 -27.002 -58.999s-39.666 -22.334 -66.999 -23.001c-33.333 1.33301 -58.833 15.333 -76.5 42s-26.5 58 -26.5 94c2.66699 84 37.334 155.5 104.001 214.5s149.667 89.833 249 92.5c116 -2 208 -33.5 276 -94.5
s102.667 -137.5 104 -229.5c-2.66699 -82 -21.334 -152.333 -56.001 -211s-75.5 -113.167 -122.5 -163.5s-89 -103.833 -126 -160.5s-58.167 -124 -63.5 -202h-45c6.66699 87.333 21.334 162 44.001 224s47.5 119 74.5 171s50.5 105 70.5 159s30.667 116.333 32 187
c0 74 -20.167 135 -60.5 183s-99.5 73 -177.5 75c-44.667 -1.33301 -83.5 -13.5 -116.5 -36.5s-50.167 -50.167 -51.5 -81.5c2.66699 -29.333 13 -53.833 31 -73.5s28.333 -55.5 31 -107.5zM478.998 214.002c36 -0.666992 65.333 -12.167 88 -34.5
s34.334 -50.5 35.001 -84.5c-0.666992 -33.333 -12.334 -61.333 -35.001 -84s-52 -34.667 -88 -36c-35.333 1.33301 -63.833 13.333 -85.5 36s-32.834 50.667 -33.501 84c0.666992 34 11.834 62.167 33.501 84.5s50.167 33.833 85.5 34.5z" />
    <glyph glyph-name="at" unicode="@" horiz-adv-x="2011" 
d="M1507 980c-31.333 -102 -69.335 -232.327 -114.002 -390.994s-69.334 -263.334 -74.001 -314.001c-1.33301 -28 4 -53 16 -75s38 -33.667 78 -35c65.333 0 146.833 48.667 244.5 146s151.5 245.333 161.5 444c-2 187.333 -63.167 339.166 -183.5 455.499
s-290.166 176.166 -509.499 179.499c-261.333 -6.66699 -469.166 -93.834 -623.499 -261.501s-233.166 -375.5 -236.499 -623.5c-2 -194 62.167 -362.833 192.5 -506.5s340.833 -219.5 631.5 -227.5c104.667 1.33301 207.5 19.833 308.5 55.5s195.833 85.167 284.5 148.5
l33 -36c-72 -55.333 -162.167 -105.333 -270.5 -150s-244.833 -68.667 -409.5 -72c-291.333 8.66699 -513.333 91 -666 247s-229.667 336.333 -231 541c4 254 92.5 471.167 265.5 651.5s406.833 274.5 701.5 282.5c252 -4 442 -68.833 570 -194.5s192 -288.834 192 -489.501
c-2 -150.667 -45.667 -292.667 -131 -426s-201.333 -204.333 -348 -213c-76.667 2 -130 23.167 -160 63.5s-46.333 90.166 -49 149.499c-28 -52 -66.333 -99.167 -115 -141.5s-111.334 -64.833 -188.001 -67.5c-92.667 2 -163 32.167 -211 90.5s-72 134.5 -72 228.5
c2.66699 130.667 49 254.167 139 370.5s209 178.5 357 186.5c64.667 -2 113.834 -22 147.501 -60s55.5 -83.333 65.5 -136l49 180h155zM753.998 366.006c-0.666992 -50 10.166 -94.833 32.499 -134.5s60.5 -60.5 114.5 -62.5c102.667 13.333 186.5 87 251.5 221
s98.5 248.667 100.5 344c0.666992 56 -11.666 105.5 -36.999 148.5s-67.333 65.833 -126 68.5c-89.333 -12.667 -166.833 -86.167 -232.5 -220.5s-100.167 -255.833 -103.5 -364.5z" />
    <glyph glyph-name="A" unicode="A" horiz-adv-x="1569" 
d="M418 464c-20 -48.667 -46.999 -109.334 -80.999 -182.001s-52 -124 -54 -154c-2.66699 -20 5.16602 -39.667 23.499 -59s64.833 -29.666 139.5 -30.999v-38h-455v38c24 0.666992 46.5 5.5 67.5 14.5s36.833 19.167 47.5 30.5
c13.333 -1.33301 54.666 68.167 123.999 208.5l544 1139.5h49l519 -1142.5c66 -140.333 104.667 -208.833 116 -205.5c22 -21.333 42.667 -34.333 62 -39s41 -6.66699 65 -6v-38h-586v38c34 -1.33301 68.5 3.16699 103.5 13.5s53.833 34.5 56.5 72.5
c-3.33301 36 -21.666 90.167 -54.999 162.5l-80 177.5h-606zM455.001 542h536l-262 598z" />
    <glyph glyph-name="B" unicode="B" horiz-adv-x="1393" 
d="M659 75c137.333 0.666992 240.668 26.999 310.001 78.999s104 126.667 104 224c0.666992 104.667 -34.333 183.334 -105 236.001s-180.334 79 -329.001 79c-66 2.66699 -109.667 0.5 -131 -6.5s-31 -34.833 -29 -83.5v-414c-2.66699 -47.333 6.5 -78.5 27.5 -93.5
s71.833 -21.833 152.5 -20.5zM49.002 1406h700.998c162 -2.66699 284.833 -37.167 368.5 -103.5s125.834 -147.833 126.501 -244.5c-1.33301 -84.667 -29.333 -154.167 -84 -208.5s-127.667 -90.166 -219 -107.499c124.667 -18.667 217.334 -58 278.001 -118
s91 -136.667 91 -230c0.666992 -118.667 -45.333 -213.5 -138 -284.5s-233.667 -107.5 -423 -109.5h-701v38c82 -0.666992 137.833 13.666 167.5 42.999s43.5 76.333 41.5 141v971c0 60.667 -17.833 104 -53.5 130s-87.5 38.667 -155.5 38v45zM479 827.999
c-1.33301 -28 3.49902 -46.6689 14.499 -56.002s36.167 -13.666 75.5 -12.999c149.333 -3.33301 261.833 15.167 337.5 55.5s113.5 121.5 113.5 243.5c0 99.333 -33.167 169.5 -99.5 210.5s-167.166 60.833 -302.499 59.5c-63.333 2 -103 -5.16699 -119 -21.5
s-22.667 -54.166 -20 -113.499v-365z" />
    <glyph glyph-name="C" unicode="C" horiz-adv-x="1446" 
d="M836 1439c127.333 -3.33301 216.83 -17 268.497 -41s101.167 -37.667 148.5 -41c20.667 0.666992 36.334 7.66699 47.001 21s17 29.333 19 48h37l41 -454h-41c-24 88 -72.5 174 -145.5 258s-184.167 129 -333.5 135c-193.333 -8.66699 -332.833 -80.667 -418.5 -216
s-127.834 -280.333 -126.501 -435c-1.33301 -162 40.834 -311 126.501 -447s225.167 -208.333 418.5 -217c116 2 215.833 28.333 299.5 79s155.834 116 216.501 196l37 -41c-74 -92 -156.833 -166.5 -248.5 -223.5s-215.167 -86.833 -370.5 -89.5
c-216 4 -388.667 70.167 -518 198.5s-195.666 298.833 -198.999 511.5c2 212.667 68.167 390.667 198.5 534s311.5 218 543.5 224z" />
    <glyph glyph-name="D" unicode="D" horiz-adv-x="1647" 
d="M750 0h-701.001v38c91.333 -0.666992 149.833 15.5 175.5 48.5s36.834 85.167 33.501 156.5v938c2 66.667 -10.833 114.167 -38.5 142.5s-84.5 42.166 -170.5 41.499v41h713c271.333 -5.33301 470.5 -73.5 597.5 -204.5s189.833 -293.5 188.5 -487.5
c-4.66699 -225.333 -80.5 -400.166 -227.5 -524.499s-337.167 -187.5 -570.5 -189.5zM626.999 71c234.667 2 407.5 60.001 518.5 174.001s166.167 270.333 165.5 469c2 171.333 -49.667 316.5 -155 435.5s-275 181.167 -509 186.5c-60.667 0.666992 -104 -8 -130 -26
s-38.667 -47.333 -38 -88v-987c-2 -60.667 6.66699 -103.334 26 -128.001s60 -36.667 122 -36z" />
    <glyph glyph-name="E" unicode="E" horiz-adv-x="1421" 
d="M45 1365l-0.00195312 40.998h1204l21 -307h-41c-12.667 75.333 -37 132.333 -73 171s-104.667 58 -206 58h-323c-72.667 3.33301 -117 -2.66699 -133 -18s-22.333 -58.333 -19 -129v-324c-1.33301 -32 2.83398 -53.833 12.501 -65.5s34.167 -17.167 73.5 -16.5h316
c89.333 0 148.333 16.167 177 48.5s44.667 83.166 48 152.499h37v-488h-37c-0.666992 62.667 -15.167 112.834 -43.5 150.501s-88.833 57.167 -181.5 58.5h-316c-41.333 1.33301 -66.5 -3.66699 -75.5 -15s-12.5 -37.666 -10.5 -78.999v-389
c-4 -59.333 4.66699 -97.166 26 -113.499s78.333 -23.5 171 -21.5h266c109.333 -3.33301 193.666 13.167 252.999 49.5s113 111.166 161 224.499l37 -12l-107 -341h-1237v38c69.333 -0.666992 121.5 10 156.5 32s52.5 59 52.5 111v1037
c0.666992 50.667 -15.166 87.834 -47.499 111.501s-86.166 35.5 -161.499 35.5z" />
    <glyph glyph-name="F" unicode="F" horiz-adv-x="1266" 
d="M1036 968l0.000976562 -495.999h-37c-3.33301 71.333 -17.333 125.333 -42 162s-87 55 -187 55h-225c-26 0.666992 -43.667 -4.16602 -53 -14.499s-13.666 -28.5 -12.999 -54.5v-418c-0.666992 -58.667 17 -100.834 53 -126.501s93.667 -38.167 173 -37.5v-38h-656v38
c78.667 0 133.5 13.5 164.5 40.5s45.833 68.167 44.5 123.5v975c2 68.667 -11.333 117.334 -40 146.001s-85 42.667 -169 42v41h1163l25 -328h-41c-18.667 91.333 -47.834 156.166 -87.501 194.499s-112.834 56.833 -219.501 55.5h-271
c-60.667 0.666992 -99.5 -8.5 -116.5 -27.5s-24.5 -53.5 -22.5 -103.5v-356c-1.33301 -30 2.66699 -50 12 -60s30 -14.667 62 -14h213c96 0 159.5 16.667 190.5 50s45.167 83.666 42.5 150.999h37z" />
    <glyph glyph-name="G" unicode="G" horiz-adv-x="1651" 
d="M1221 570c1.33301 56.667 -13.167 95.8311 -43.5 117.498s-86.833 31.834 -169.5 30.501v41h606v-41c-66 0.666992 -111.5 -10 -136.5 -32s-36.833 -59.333 -35.5 -112v-434c-62 -42.667 -142 -80.834 -240 -114.501s-210.667 -51.834 -338 -54.501
c-248.667 5.33301 -438.834 75 -570.501 209s-198.167 303.667 -199.5 509c3.33301 221.333 74.833 400.666 214.5 537.999s327.5 208 563.5 212c122.667 -3.33301 211.167 -17.666 265.5 -42.999s99.833 -39.666 136.5 -42.999c24 0.666992 42 7.83398 54 21.501
s20 30.834 24 51.501h32l25 -430h-45c-26.667 86.667 -75.167 168 -145.5 244s-173.5 116.333 -309.5 121c-210.667 -8 -360.167 -78.5 -448.5 -211.5s-131.166 -282.5 -128.499 -448.5c0 -174 46.167 -325.667 138.5 -455s231.833 -197.333 418.5 -204
c72 0.666992 136 11.167 192 31.5s102.667 45.5 140 75.5v421z" />
    <glyph glyph-name="H" unicode="H" horiz-adv-x="1671" 
d="M1200 558c2.66699 58.667 -2.00293 94.4971 -14.0029 107.497s-48.333 18.167 -109 15.5h-467c-61.333 2.66699 -99.166 -2.5 -113.499 -15.5s-20.166 -48.833 -17.499 -107.5v-323c-2.66699 -66 9.16602 -115.333 35.499 -148s84.166 -49 173.499 -49v-38h-639v38
c84 -1.33301 140.333 13 169 43s42 81.333 40 154v946c0.666992 70 -15.166 118.5 -47.499 145.5s-86.166 39.833 -161.499 38.5v41h639v-41c-80.667 0.666992 -136 -13.666 -166 -42.999s-44.333 -76.333 -43 -141v-303c-2.66699 -57.333 2.83301 -92.166 16.5 -104.499
s51.834 -17.166 114.501 -14.499h459c62.667 -2.66699 100.834 2.66602 114.501 15.999s19.167 50.333 16.5 111v295c2 61.333 -11.333 107.333 -40 138s-85 46 -169 46v41h639v-41c-78.667 0.666992 -133.5 -13.166 -164.5 -41.499s-45.833 -75.833 -44.5 -142.5v-946
c-2.66699 -68 9.66602 -117.833 36.999 -149.5s84.666 -47.5 171.999 -47.5v-38h-639v38c91.333 0 149.833 16.333 175.5 49s36.834 82 33.501 148v323z" />
    <glyph glyph-name="I" unicode="I" horiz-adv-x="778" 
d="M709 1365c-86 0 -143 -16.833 -171 -50.5s-40.667 -85.167 -38 -154.5v-950c-1.33301 -57.333 13.5 -100.333 44.5 -129s85.833 -43 164.5 -43v-38h-639v38c82 0 137.833 13.833 167.5 41.5s43.5 71.167 41.5 130.5v950c3.33301 64 -7 114 -31 150
s-83.333 54.333 -178 55v41h639v-41z" />
    <glyph glyph-name="J" unicode="J" horiz-adv-x="897" 
d="M328 46c38 2 62.832 15.1641 74.499 39.4971s16.834 49.5 15.501 75.5v1012c3.33301 58 -7.66699 104.333 -33 139s-85.333 52.334 -180 53.001v41h643v-41c-80.667 0 -136 -15.667 -166 -47s-44.333 -79.666 -43 -144.999v-824
c-0.666992 -112.667 -32.667 -203.167 -96 -271.5s-153 -103.833 -269 -106.5c-80 2 -142.167 19.5 -186.5 52.5s-66.833 74.833 -67.5 125.5c0 25.333 8 45.833 24 61.5s39.667 23.834 71 24.501c64 -8 102 -39.5 114 -94.5s45 -86.5 99 -94.5z" />
    <glyph glyph-name="K" unicode="K" horiz-adv-x="1507" 
d="M479 1160l0.00390625 -430.001c10.667 0 23.167 3.83301 37.5 11.5s27.833 17.5 40.5 29.5l244 246l144 147.5c33.333 35.667 56.166 63.334 68.499 83.001s18.5 36.834 18.5 51.501c0.666992 18.667 -9.5 34.167 -30.5 46.5s-58.5 18.833 -112.5 19.5v41h545v-41
c-57.333 1.33301 -110.333 -9.66699 -159 -33s-99.334 -58.5 -152.001 -105.5s-112.667 -106.333 -180 -178l-243 -252.5l362 -369l230 -232c58.667 -56.667 107.5 -97 146.5 -121s76.833 -36 113.5 -36v-38h-655v38c26.667 -1.33301 59 1.16699 97 7.5s59 24.166 63 53.499
c0 14 -6.16699 29.167 -18.5 45.5s-34.5 40.5 -66.5 72.5l-137.5 137l-228.5 237c-30.667 32 -53.834 53.833 -69.501 65.5s-34.834 17.167 -57.501 16.5v-451c-2 -63.333 10.333 -109.833 37 -139.5s80 -44.5 160 -44.5v-38h-627v38c84 0 140.333 14.833 169 44.5
s42 76.167 40 139.5v938c2 69.333 -10.833 120.833 -38.5 154.5s-84.5 50.5 -170.5 50.5v41h635v-41c-82 0 -137.167 -16.833 -165.5 -50.5s-41.5 -85.167 -39.5 -154.5z" />
    <glyph glyph-name="L" unicode="L" horiz-adv-x="1311" 
d="M688 1365c-80.667 0 -135.999 -15.3311 -165.999 -45.998s-44.333 -76.667 -43 -138v-992c-2 -36.667 5.66699 -64.834 23 -84.501s54.666 -29.5 111.999 -29.5h226c110.667 -2.66699 200.5 16.333 269.5 57s129.167 117 180.5 229h41l-114 -361h-1168v38
c89.333 0 147.166 15.5 173.499 46.5s38.166 78.167 35.499 141.5v955c2.66699 66.667 -9.16602 114.167 -35.499 142.5s-84.166 42.166 -173.499 41.499v41h639v-41z" />
    <glyph glyph-name="M" unicode="M" horiz-adv-x="1929" 
d="M66 1365v40.998h413l496 -1081l495 1081h402v-41c-74.667 0.666992 -125.834 -13.166 -153.501 -41.499s-40.834 -75.833 -39.501 -142.5v-959c-1.33301 -64.667 11.834 -111.667 39.501 -141s78.834 -43.666 153.501 -42.999v-38h-598v38c81.333 0 134.333 16 159 48
s35.667 78.667 33 140v947l-536 -1173h-41l-537 1177v-930c-3.33301 -66 7.16699 -117.167 31.5 -153.5s80.833 -54.833 169.5 -55.5v-38h-487v38c76 0.666992 127.5 19.167 154.5 55.5s39.5 87.5 37.5 153.5v958c0.666992 53.333 -13.5 93.333 -42.5 120
s-78.833 40 -149.5 40z" />
    <glyph glyph-name="N" unicode="N" horiz-adv-x="1569" 
d="M1241 1201c0.666992 53.333 -14.502 94.0029 -45.502 122.003s-84.167 42 -159.5 42v41h508v-41c-73.333 0.666992 -126.666 -11.833 -159.999 -37.5s-49.666 -67.834 -48.999 -126.501v-1201h-41l-954 1136v-926c0 -64.667 16.833 -109.834 50.5 -135.501
s85.167 -37.834 154.5 -36.501v-38h-508v38c80.667 0 136 13.833 166 41.5s44.333 71.167 43 130.5v1012c-26 42 -55.667 76.167 -89 102.5s-73.333 39.833 -120 40.5v41h364l840 -1008v803z" />
    <glyph glyph-name="O" unicode="O" horiz-adv-x="1651" 
d="M815 -29c-236 9.33301 -415 82.167 -537 218.5s-183.333 286.5 -184 450.5v127c-0.666992 155.333 58.5 303.666 177.5 444.999s302.833 217 551.5 227c245.333 -9.33301 428.333 -83.5 549 -222.5s180.667 -288.833 180 -449.5v-94
c0 -183.333 -60.833 -344.166 -182.5 -482.499s-306.5 -211.5 -554.5 -219.5zM823 1365c-190.667 -12 -321.169 -91.168 -391.502 -237.501s-103.5 -289.833 -99.5 -430.5c-3.33301 -145.333 31.334 -288.166 104.001 -428.499s201.667 -215.833 387 -226.5
c178.667 8.66699 305.834 80.5 381.501 215.5s112.5 281.5 110.5 439.5c3.33301 150 -31 296.167 -103 438.5s-201.667 218.833 -389 229.5z" />
    <glyph glyph-name="P" unicode="P" horiz-adv-x="1233" 
d="M705 1406c176.667 -4 297.999 -42.668 363.999 -116.001s97.333 -156.333 94 -249c-10 -170.667 -72.667 -280.834 -188 -330.501s-222 -71.834 -320 -66.501h-135c-18 0 -30.167 -3.5 -36.5 -10.5s-9.16602 -18.5 -8.49902 -34.5v-283
c-4.66699 -97.333 4 -168.166 26 -212.499s83 -66.166 183 -65.499v-38h-631v38c96 -2 154.5 17.667 175.5 59s29.5 114.333 25.5 219v893c1.33301 62 -13.167 103.833 -43.5 125.5s-82.833 31.834 -157.5 30.501v41h652zM593.999 1336
c-40.667 0.666992 -70.667 -6.16797 -90 -20.501s-29 -41.5 -29 -81.5v-451c0 -29.333 7.5 -48.333 22.5 -57s38.833 -12.667 71.5 -12c76.667 -4 155.667 14.5 237 55.5s125.333 128.833 132 263.5c0 100.667 -28.667 176.334 -86 227.001s-143.333 76 -258 76z" />
    <glyph glyph-name="Q" unicode="Q" horiz-adv-x="1651" 
d="M1315 718c2 156 -35.332 300.666 -111.999 433.999s-203.334 204.333 -380.001 213c-172.667 -7.33301 -298 -76.666 -376 -207.999s-116.333 -280.333 -115 -447c-0.666992 -180.667 38.833 -335.667 118.5 -465s205.167 -197 376.5 -203
c174.667 7.33301 300.167 78 376.5 212s113.5 288.667 111.5 464zM631.001 -8.00098c-187.333 50 -324.002 138.501 -410.002 265.501s-128.333 265.5 -127 415.5v53c1.33301 198 64.5 365 189.5 501s304.833 206.667 539.5 212c252.667 -8.66699 437.667 -84.5 555 -227.5
s175.333 -300.833 174 -473.5v-57c-0.666992 -168 -42.667 -308.667 -126 -422s-202.333 -198 -357 -254c-14.667 -4 -22.167 -10.667 -22.5 -20s5.83398 -19.333 18.501 -30c64 -33.333 130.5 -57.5 199.5 -72.5s149.833 -26.5 242.5 -34.5v-36
c-22.667 -2 -48 -3.83301 -76 -5.5s-58.667 -2.83398 -92 -3.50098c-140 1.33301 -267.167 18.333 -381.5 51s-223.166 78.667 -326.499 138z" />
    <glyph glyph-name="R" unicode="R" horiz-adv-x="1569" 
d="M74 38c92.667 0 152.169 16.832 178.502 50.499s37.833 86.5 34.5 158.5v950c1.33301 62.667 -13.667 106.5 -45 131.5s-87.333 37.167 -168 36.5v41h729c150.667 -1.33301 266.667 -33.5 348 -96.5s122.333 -149.5 123 -259.5
c0.666992 -94.667 -27.333 -172.667 -84 -234s-146 -106.333 -268 -135c118.667 -151.333 215.834 -270.333 291.501 -357s134.667 -149.5 177 -188.5s74.166 -64.333 95.499 -76s38 -18.834 50 -21.501v-38h-319c-80 88 -170.833 193.333 -272.5 316l-260.5 324h-115
c-29.333 0.666992 -48.333 -3.83301 -57 -13.5s-12.667 -28.5 -12 -56.5v-323c-2.66699 -73.333 10.166 -126.666 38.499 -159.999s89.166 -49.666 182.499 -48.999v-38h-647v38zM500.002 766.999c-1.33301 -22 4.00098 -37.1699 16.001 -45.5029s40.667 -12.166 86 -11.499
c152.667 0.666992 264.667 29.834 336 87.501s106.666 138.834 105.999 243.501c2 85.333 -27 154.833 -87 208.5s-162 81.167 -306 82.5c-52.667 1.33301 -91 -3 -115 -13s-36 -33 -36 -69v-483z" />
    <glyph glyph-name="S" unicode="S" horiz-adv-x="1118" 
d="M1020 386c-0.666992 -130 -39.833 -231.168 -117.5 -303.501s-188.834 -109.5 -333.501 -111.5c-92 2.66699 -160.667 12 -206 28s-80.333 25 -105 27c-18.667 -0.666992 -34 -6 -46 -16s-21.333 -23 -28 -39h-28l-78 452h41c34 -100.667 89.167 -189 165.5 -265
s164.5 -116 264.5 -120c84.667 3.33301 149.334 30.833 194.001 82.5s67.334 108.834 68.001 171.501c-4 84.667 -40.5 154 -109.5 208s-148.833 104.833 -239.5 152.5s-170.5 103.667 -239.5 168s-104.833 148.833 -107.5 253.5c0.666992 103.333 37.5 189.333 110.5 258
s176.833 104.334 311.5 107.001c74 -2.66699 132.667 -13.667 176 -33s78.666 -30.333 105.999 -33c22 1.33301 37.833 9.16602 47.5 23.499s14.5 28.5 14.5 42.5h17.5h14.5l45 -426h-40c-26 84.667 -69.333 164 -130 238s-143 113.333 -247 118
c-78 -2.66699 -137.167 -25.334 -177.5 -68.001s-60.5 -91 -60.5 -145c2.66699 -75.333 39.5 -139.5 110.5 -192.5s153 -104.5 246 -154.5s175.333 -107.667 247 -173s109.5 -148.666 113.5 -249.999z" />
    <glyph glyph-name="T" unicode="T" horiz-adv-x="1343" 
d="M786 243c-2.66699 -73.333 9.6709 -126 37.0039 -158s87.666 -47.667 180.999 -47v-38h-656v38c93.333 -0.666992 153.666 15 180.999 47s39.333 84.667 36 158v995c2 43.333 -4.33301 69.666 -19 78.999s-48 13 -100 11c-135.333 4 -228.333 -11.833 -279 -47.5
s-83 -113.834 -97 -234.501h-41v360h1294v-360h-41c-14.667 120.667 -47.334 198.834 -98.001 234.501s-143.667 51.5 -279 47.5c-51.333 2 -84.333 -1.66699 -99 -11s-21.334 -35.666 -20.001 -78.999v-995z" />
    <glyph glyph-name="U" unicode="U" horiz-adv-x="1675" 
d="M1126 1406l492.003 -0.000976562v-41c-68.667 -1.33301 -116.834 -20 -144.501 -56s-40.834 -81.333 -39.501 -136v-664c-0.666992 -166.667 -51.334 -299.167 -152.001 -397.5s-246.667 -149.166 -438 -152.499c-191.333 1.33301 -337.333 43.666 -438 126.999
s-151.334 202.333 -152.001 357v660c4.66699 73.333 -4 134.833 -26 184.5s-83 75.5 -183 77.5v41h627v-41c-92.667 -1.33301 -149.667 -22.666 -171 -63.999s-30 -96.333 -26 -165v-639c-2 -124.667 28.5 -229.5 91.5 -314.5s169.167 -129.167 318.5 -132.5
c146 3.33301 257.333 48 334 134s115.334 193 116.001 321v659c2 66 -11.833 116 -41.5 150s-85.5 51 -167.5 51v41z" />
    <glyph glyph-name="V" unicode="V" horiz-adv-x="1561" 
d="M774 -29l-318.5 732.501c-79.667 185.667 -142.667 326.667 -189 423s-87 160.833 -122 193.5s-73.5 47.667 -115.5 45v41h594v-41c-54 0 -95.5 -6.5 -124.5 -19.5s-43.5 -33.833 -43.5 -62.5c-8.66699 -4.66699 8.5 -57.334 51.5 -158.001l361.5 -809l240 530.5
l123 277.5c24.667 58 40 96.667 46 116s9 33.666 9 42.999c-4 39.333 -26.167 63.333 -66.5 72s-72.833 12 -97.5 10v41h422v-41c-34 2.66699 -65.333 -11.333 -94 -42s-65.5 -93.167 -110.5 -187.5s-108.167 -234.666 -189.5 -420.999l-327 -743.5h-49z" />
    <glyph glyph-name="W" unicode="W" horiz-adv-x="2011" 
d="M1765 1283c0.666992 22.667 -9.00098 41.0029 -29.001 55.0029s-55.333 23 -106 27v41h361v-41c-28.667 -1.33301 -53.334 -12.666 -74.001 -33.999s-47.667 -73.833 -81 -157.5s-82.833 -220.5 -148.5 -410.5l-274.5 -792h-41l-340 894l-327 -894h-37
c-122 313.333 -216.333 563.166 -283 749.499s-118.167 325.666 -154.5 417.999s-69.166 153.166 -98.499 182.499s-66.666 44 -111.999 44v41h537v-41c-52 -4 -89 -12 -111 -24s-32.667 -27.333 -32 -46c0 -20 12.5 -67.333 37.5 -142s56.333 -161.5 94 -260.5l111 -289.5
l88.5 -233l238 626c-44 140 -81.667 235.833 -113 287.5s-86.333 78.834 -165 81.501v41h573v-41c-49.333 -4.66699 -88.166 -11.5 -116.499 -20.5s-42.833 -28.167 -43.5 -57.5c0 -20.667 12.667 -67.834 38 -141.501s56.833 -159.334 94.5 -257.001l110.5 -286.5l89 -232
l82 225l104.5 280.5c35.667 95.667 65.667 181 90 256s37.166 125.5 38.499 151.5z" />
    <glyph glyph-name="X" unicode="X" horiz-adv-x="1569" 
d="M53 1365l-0.00390625 41.001h635v-41c-65.333 -0.666992 -108.166 -6.83398 -128.499 -18.501s-29.5 -25.834 -27.5 -42.501c-1.33301 -11.333 0.833984 -23.5 6.50098 -36.5s18 -32.5 37 -58.5l89 -118.5l162.5 -221.5c136 153.333 225.667 259.333 269 318
s63 99 59 121c1.33301 14.667 -9 27.667 -31 39s-62 17.333 -120 18v41h516v-41c-46.667 1.33301 -85.667 -3.16699 -117 -13.5s-66.166 -33.5 -104.499 -69.5s-90.333 -93 -156 -171l-265.5 -315c256 -360 416.833 -578 482.5 -654s131.167 -110.667 196.5 -104v-38h-647
v38c68.667 0.666992 114.834 7.33398 138.501 20.001s34.834 29.334 33.501 50.001c0 13.333 -7.16699 33.333 -21.5 60s-35.833 60.5 -64.5 101.5l-106.5 149.5l-147.5 205c-188.667 -216 -304 -353.5 -346 -412.5s-59 -95.167 -51 -108.5
c-0.666992 -22.667 11.333 -39.167 36 -49.5s64.667 -15.5 120 -15.5v-38h-475v38c30 -1.33301 57.5 3.16699 82.5 13.5s57.667 35.5 98 75.5s98.166 105.167 173.499 195.5l309 370.5l-279.5 384.5c-67.667 92.333 -120.5 159.166 -158.5 200.499s-70.667 66.833 -98 76.5
s-60.333 13.167 -99 10.5z" />
    <glyph glyph-name="Y" unicode="Y" horiz-adv-x="1565" 
d="M1249 1299c-0.666992 17.333 -15.1641 32.5 -43.4971 45.5s-65.5 19.833 -111.5 20.5v41h438v-41c-56.667 6 -115.334 -28.167 -176.001 -102.5s-201.334 -285.833 -422.001 -634.5v-422c-1.33301 -62.667 14 -106.5 46 -131.5s86.333 -37.167 163 -36.5v-38h-639v38
c78.667 0 133.5 13.833 164.5 41.5s45.833 71.167 44.5 130.5v393l-302.5 427.5c-71.667 103 -126.667 177.333 -165 223s-72.166 75 -101.499 88s-66.333 20.833 -111 23.5v41h647v-41c-67.333 -4.66699 -112 -13.334 -134 -26.001s-32 -27.334 -30 -44.001
c0 -13.333 14.667 -43.166 44 -89.499s64.833 -99.666 106.5 -159.999l125 -176.5l101.5 -143l94 145.5l117.5 180.5c40.333 61.333 74.166 114.833 101.499 160.5s41.666 74.5 42.999 86.5z" />
    <glyph glyph-name="Z" unicode="Z" horiz-adv-x="1454" 
d="M1016 1320l-492 0.000976562c-117.333 2 -200.5 -18 -249.5 -60s-83.167 -116.333 -102.5 -223h-37l25 369h1192l-975 -1323h532c160.667 -1.33301 272 21.667 334 69s107.667 126.666 137 237.999h41l-69 -390h-1307z" />
    <glyph glyph-name="bracketleft" unicode="[" horiz-adv-x="668" 
d="M594 1406c-127.333 3.33301 -204.833 -8 -232.5 -34s-38.834 -84.333 -33.501 -175v-1430c-5.33301 -80.667 5.83398 -133.5 33.501 -158.5s105.167 -36.5 232.5 -34.5v-57h-434v1946h434v-57z" />
    <glyph glyph-name="backslash" unicode="\" horiz-adv-x="553" 
d="M483 -188l-500 1627h83l503 -1627h-86z" />
    <glyph glyph-name="bracketright" unicode="]" horiz-adv-x="668" 
d="M336 1197c5.33301 90.667 -5.83398 148.999 -33.501 174.999s-105.167 37.333 -232.5 34v57h434v-1950h-434v57c127.333 -2 204.833 9.33301 232.5 34s38.834 77.334 33.501 158.001v1435z" />
    <glyph glyph-name="asciicircum" unicode="^" horiz-adv-x="2040" 
d="M410 890l512 557h188l512 -557h-98l-508 418l-512 -418h-94z" />
    <glyph glyph-name="underscore" unicode="_" 
d="M0 -344h1016v-139h-1016v139z" />
    <glyph glyph-name="grave" unicode="`" 
d="M229 1381c0 18.667 5.33203 34.167 15.999 46.5s27.334 18.833 50.001 19.5c18.667 7.33301 48.167 -7.33398 88.5 -44.001s140.5 -139.334 300.5 -308.001h-66c-186.667 112.667 -300.167 183.834 -340.5 213.501s-56.5 53.834 -48.5 72.501z" />
    <glyph glyph-name="a" unicode="a" horiz-adv-x="1004" 
d="M266 259c0.666992 -50.667 16 -94.167 46 -130.5s70.667 -55.5 122 -57.5c48 2.66699 92.833 18 134.5 46s63.834 53.667 66.501 77v360c-106.667 -36 -194.334 -76.667 -263.001 -122s-104 -103 -106 -173zM131 767c3.33301 59.333 39.1641 109.165 107.497 149.498
s147.166 61.5 236.499 63.5c105.333 -2 186.833 -26.167 244.5 -72.5s86.834 -104.166 87.501 -173.499v-577c0 -19.333 5.16699 -35.666 15.5 -48.999s26.833 -20.333 49.5 -21c12.667 0.666992 26.167 5 40.5 13s26.833 17.333 37.5 28l25 -25
c-14 -28.667 -40.667 -56.5 -80 -83.5s-82.333 -41.833 -129 -44.5c-37.333 2 -67.666 16.5 -90.999 43.5s-35.333 56.833 -36 89.5c-48.667 -39.333 -98.667 -71 -150 -95s-106.333 -36.667 -165 -38c-79.333 2.66699 -137.666 26.334 -174.999 71.001
s-55.666 100.667 -54.999 168c0 90 44.667 162.833 134 218.5s225 116.5 407 182.5v144c0.666992 50 -11.5 91.5 -36.5 124.5s-68.833 50.167 -131.5 51.5c-40.667 -0.666992 -77 -11.834 -109 -33.501s-49 -47.5 -51 -77.5l12 -57c0 -27.333 -7.66699 -51 -23 -71
s-40.333 -30.333 -75 -31c-26.667 0.666992 -48.167 10.5 -64.5 29.5s-24.833 43.167 -25.5 72.5z" />
    <glyph glyph-name="b" unicode="b" horiz-adv-x="1085" 
d="M0 1332l0.00292969 37.0029c57.333 10 109.166 22.167 155.499 36.5s98.166 33.5 155.499 57.5v-630c40.667 40 87.667 74.167 141 102.5s115.666 43.166 186.999 44.499c120.667 -4.66699 210.834 -50.167 270.501 -136.5s89.5 -186.833 89.5 -301.5
c-1.33301 -146.667 -46.833 -274.167 -136.5 -382.5s-216.167 -165.5 -379.5 -171.5c-71.333 1.33301 -136 12.166 -194 32.499s-109.333 45.166 -154 74.499v1110c1.33301 42.667 -6.83398 74.5 -24.501 95.5s-54.5 31.5 -110.5 31.5zM311.003 157.003
c0.666992 -17.333 20.168 -40.1699 58.501 -68.5029s92.5 -43.833 162.5 -46.5c42.667 -5.33301 99.834 18.334 171.501 71.001s111.5 168.334 119.5 347.001c-0.666992 113.333 -27.834 207.833 -81.501 283.5s-130.167 114.834 -229.5 117.501
c-52.667 -2.66699 -98.834 -18 -138.501 -46s-60.5 -53.667 -62.5 -77v-581z" />
    <glyph glyph-name="c" unicode="c" horiz-adv-x="897" 
d="M459 -29c-126 6 -224.167 56.168 -294.5 150.501s-106.166 201.5 -107.499 321.5c0.666992 142.667 40.834 266.5 120.501 371.5s196.5 160.167 350.5 165.5c94 -1.33301 168.5 -21.666 223.5 -60.999s83.167 -88.666 84.5 -147.999
c0 -27.333 -7.83301 -50.333 -23.5 -69s-40.834 -28.334 -75.501 -29.001c-70.667 10 -106 50.167 -106 120.5s-46.333 110.5 -139 120.5c-88.667 -4.66699 -155.334 -45.334 -200.001 -122.001s-67 -161.334 -67 -254.001c-1.33301 -94.667 22.5 -185.834 71.5 -273.501
s130.5 -134.5 244.5 -140.5c74 1.33301 134.5 21 181.5 59s87.5 85.333 121.5 142l33 -21c-34.667 -78 -86.5 -151.667 -155.5 -221s-156.5 -106.666 -262.5 -111.999z" />
    <glyph glyph-name="d" unicode="d" horiz-adv-x="1110" 
d="M766 -25l0.00195312 132.997c-33.333 -38 -75.5 -68.5 -126.5 -91.5s-108.5 -35.167 -172.5 -36.5c-132.667 5.33301 -230.834 53.333 -294.501 144s-95.167 195.667 -94.5 315c0.666992 148 39.5 274 116.5 378s188.167 158.333 333.5 163
c54.667 0 100.667 -8.66699 138 -26s70.666 -41.333 99.999 -72v352c4 20.667 -0.666992 42.334 -14 65.001s-58 35 -134 37v29c61.333 14 116.333 27.833 165 41.5s101.667 32.5 159 56.5v-1274c-1.33301 -35.333 6.16699 -58.666 22.5 -69.999s48.5 -16.666 96.5 -15.999
c0 -0.666992 0.5 -5 1.5 -13s0.5 -14.333 -1.5 -19c-55.333 -16 -104.833 -31.333 -148.5 -46zM766.002 684.997c0 50.667 -19.5 101.334 -58.5 152.001s-97.5 78 -175.5 82c-92 -3.33301 -161.333 -39.666 -208 -108.999s-70 -152 -70 -248
c-1.33301 -118 21.834 -225.167 69.501 -321.5s128.167 -147.5 241.5 -153.5c46 1.33301 86.667 10.666 122 27.999s61.666 36.666 78.999 57.999v512z" />
    <glyph glyph-name="e" unicode="e" horiz-adv-x="1008" 
d="M483 -25c-140.667 4.66699 -244.167 54.335 -310.5 149.002s-99.166 210.667 -98.499 348c1.33301 137.333 40.166 255.166 116.499 353.499s183.5 149.833 321.5 154.5c128.667 -4.66699 223.167 -45.5 283.5 -122.5s90.166 -161.833 89.499 -254.5h-660
c-0.666992 -130.667 26.333 -241.5 81 -332.5s141 -138.5 259 -142.5c85.333 2.66699 154.666 26.5 207.999 71.5s96 96.167 128 153.5l37 -16c-31.333 -77.333 -82.666 -155.333 -153.999 -234s-171.666 -121.334 -300.999 -128.001zM233 661.001l418.001 0.00292969
c14 0 23.167 4.5 27.5 13.5s6.16602 20.833 5.49902 35.5c2.66699 33.333 -10.333 75.166 -39 125.499s-86.667 78.166 -174 83.499c-65.333 -2.66699 -120.833 -29.334 -166.5 -80.001s-69.5 -110 -71.5 -178z" />
    <glyph glyph-name="f" unicode="f" horiz-adv-x="672" 
d="M41 951l171.998 0.00195312v115c0.666992 102 29.834 190.167 87.501 264.5s141.834 113.166 252.501 116.499c63.333 -0.666992 111.166 -13.834 143.499 -39.501s48.5 -60.167 48.5 -103.5c0 -21.333 -5.5 -38.833 -16.5 -52.5s-28.5 -20.834 -52.5 -21.501
c-57.333 6.66699 -88.666 33.334 -93.999 80.001s-35.333 73.334 -90 80.001c-44 -2.66699 -72.5 -22.834 -85.5 -60.501s-18.833 -76.5 -17.5 -116.5v-262h246v-69h-246v-705c-0.666992 -52 16.5 -89 51.5 -111s92.833 -32.667 173.5 -32v-34h-573v34
c70 -0.666992 116.667 10 140 32s34 59 32 111v705h-172v69z" />
    <glyph glyph-name="g" unicode="g" horiz-adv-x="995" 
d="M455 927c-69.333 -3.33301 -113.335 -29.667 -132.002 -79s-26.667 -102.333 -24 -159c-1.33301 -68 12.334 -140 41.001 -216s79.334 -117.333 152.001 -124c67.333 2.66699 110.5 26.667 129.5 72s27.5 95 25.5 149c0.666992 78 -14 155.5 -44 232.5
s-79.333 118.5 -148 124.5zM122.998 614.999c0 94.667 29.3359 178.169 88.0029 250.502s145.334 110.5 260.001 114.5c52.667 0 97.334 -6.66699 134.001 -20s70 -31.333 100 -54h241v-82h-172c14.667 -26 26.5 -54 35.5 -84s13.5 -63.333 13.5 -100
c-1.33301 -96.667 -34.5 -178.167 -99.5 -244.5s-154.5 -100.833 -268.5 -103.5c-18.667 0 -39 1.16699 -61 3.5s-42.667 6.5 -62 12.5c-17.333 -16.667 -32.5 -34.167 -45.5 -52.5s-19.833 -34.833 -20.5 -49.5c2.66699 -46.667 38.167 -73 106.5 -79
s147.166 -8.66699 236.499 -8s168.166 -12.333 236.499 -39s104.5 -83.334 108.5 -170.001c-4 -118 -59.833 -212.333 -167.5 -283s-241.5 -107.334 -401.5 -110.001c-104 0 -187 17.5 -249 52.5s-93.667 89.833 -95 164.5c2 50 20.167 96.5 54.5 139.5
s72.166 79.833 113.499 110.5c-28.667 14 -49.5 29.667 -62.5 47s-19.5 40 -19.5 68c1.33301 43.333 17.666 84 48.999 122s68.333 72.667 111 104c-58.667 34 -100.834 74.167 -126.501 120.5s-38.167 102.833 -37.5 169.5zM254.001 -32.999
c-25.333 -24 -46.499 -49.333 -63.499 -76s-25.833 -51.667 -26.5 -75c0.666992 -61.333 29.667 -108.5 87 -141.5s137.666 -50.167 240.999 -51.5c98 2 183.5 23.333 256.5 64s111.5 93 115.5 157c-1.33301 38.667 -20 65.5 -56 80.5s-84.167 24.167 -144.5 27.5
s-126 5 -197 5s-141.833 3.33301 -212.5 10z" />
    <glyph glyph-name="h" unicode="h" horiz-adv-x="1118" 
d="M369 181c-0.666992 -56 9.16699 -95.3311 29.5 -117.998s56.833 -33.667 109.5 -33v-30h-463v30c54.667 -0.666992 93.167 10.333 115.5 33s33.166 62 32.499 118v1053c4.66699 18.667 1.83398 39.167 -8.49902 61.5s-54.166 34.5 -131.499 36.5v33
c55.333 9.33301 111.666 23.666 168.999 42.999s106.333 37.666 147 54.999v-643c36.667 37.333 82 72.833 136 106.5s115 51.5 183 53.5c89.333 -2 153.5 -29.5 192.5 -82.5s58.167 -118.5 57.5 -196.5v-524c-1.33301 -50.667 6.66699 -87.834 24 -111.501
s53 -35.5 107 -35.5v-30h-455v30c60 0 100 12.333 120 37s29.333 61.334 28 110.001v471c1.33301 52 -10.5 99.833 -35.5 143.5s-70.5 66.834 -136.5 69.501c-48 -0.666992 -89.333 -11.334 -124 -32.001s-67 -46.667 -97 -78v-570z" />
    <glyph glyph-name="i" unicode="i" horiz-adv-x="553" 
d="M508 30l-0.000976562 -30.001h-459v30c54.667 0 93.167 11.333 115.5 34s33.166 56.334 32.499 101.001v577c2.66699 42 -3.66602 70.5 -18.999 85.5s-55.666 22.167 -120.999 21.5v33c58.667 10.667 116 25.334 172 44.001s104 36.667 144 54v-815
c-1.33301 -44.667 7.66699 -78.334 27 -101.001s55.333 -34 108 -34zM183.999 1349c0 26 8.83301 50.998 26.5 74.998s45.834 37 84.501 39c38.667 -1.33301 66.834 -13.666 84.501 -36.999s26.5 -49 26.5 -77c0 -28.667 -8.83301 -54.667 -26.5 -78
s-45.834 -35.666 -84.501 -36.999c-38.667 2 -66.834 15 -84.501 39s-26.5 49.333 -26.5 76z" />
    <glyph glyph-name="j" unicode="j" horiz-adv-x="545" 
d="M188 673c2.66699 54.667 -4.33496 93.668 -21.002 117.001s-61.334 34.666 -134.001 33.999v33c62 16.667 121.333 35.667 178 57s108 43.333 154 66v-1025c1.33301 -96.667 -20.5 -192 -65.5 -286s-122.833 -144.667 -233.5 -152c-50 1.33301 -89.667 14.333 -119 39
s-44.666 56.667 -45.999 96c0.666992 20 8.33398 37.333 23.001 52s34.334 22 59.001 22c44 -5.33301 69.5 -29 76.5 -71s28.167 -66.333 63.5 -73c26 2 43.5 15.833 52.5 41.5s13.167 54.167 12.5 85.5v964zM163.998 1349c0.666992 31.333 11.166 57.998 31.499 79.998
s48.166 33.333 83.499 34c34.667 -1.33301 61.667 -13 81 -35s29 -47 29 -75c-1.33301 -28.667 -12.666 -54.667 -33.999 -78s-46.666 -35.666 -75.999 -36.999c-30 0.666992 -56.333 11.334 -79 32.001s-34.667 47 -36 79z" />
    <glyph glyph-name="k" unicode="k" horiz-adv-x="1061" 
d="M684 865c1.33301 14.667 -4.66797 27.1699 -18.001 37.5029s-42.666 15.833 -87.999 16.5v32h430v-32c-54.667 5.33301 -114.167 -11.834 -178.5 -51.501s-164.833 -131.834 -301.5 -276.501c193.333 -256.667 319.833 -416.834 379.5 -480.501s109.5 -90.5 149.5 -80.5
v-30h-447v30c29.333 -0.666992 52.5 2 69.5 8s25.5 17 25.5 33c-4 25.333 -36.5 75.333 -97.5 150l-201.5 243c-12.667 14 -23.334 20.167 -32.001 18.5s-13.334 -7.83398 -14.001 -18.501v-295c-1.33301 -50.667 8.33398 -86.667 29.001 -108s59 -31.666 115 -30.999v-30
h-475v30c62 -0.666992 104.333 9.66602 127 30.999s33.334 57.333 32.001 108v1040c2 50 -6.5 83.333 -25.5 100s-59.5 24.334 -121.5 23.001v33c61.333 14.667 118.666 30 171.999 46s102.333 33.333 147 52v-897c0 -10.667 4.83301 -16.5 14.5 -17.5
s22.834 6.16699 39.501 21.5l211.5 205c40.333 40.667 59.833 70.667 58.5 90z" />
    <glyph glyph-name="l" unicode="l" horiz-adv-x="557" 
d="M365 173c-1.33301 -47.333 7.00098 -83.001 25.001 -107.001s56 -36 114 -36v-30h-463v30c56.667 -0.666992 95.667 10.333 117 33s31.333 59.334 30 110.001v1040c1.33301 53.333 -7.33398 87 -26.001 101s-55 20 -109 18v33c60.667 12.667 115.667 27 165 43
s98.333 34.333 147 55v-1290z" />
    <glyph glyph-name="m" unicode="m" horiz-adv-x="1663" 
d="M508 0l-470.995 0.000976562v30c54 -0.666992 92.167 9.33301 114.5 30s33.166 58.334 32.499 113.001v533c2.66699 56 -4.16602 94.167 -20.499 114.5s-57.166 29.833 -122.499 28.5v33c50 8.66699 106.333 23.167 169 43.5s112.667 41.166 150 62.499v-172
c47.333 42.667 97.333 80.167 150 112.5s106.667 49.5 162 51.5c61.333 -0.666992 111 -16.167 149 -46.5s66 -69.5 84 -117.5c45.333 39.333 96.166 76 152.499 110s117.5 52 183.5 54c88.667 -2 151.5 -29.5 188.5 -82.5s54.833 -118.5 53.5 -196.5v-528
c-2 -54.667 4.5 -92.334 19.5 -113.001s52.167 -30.667 111.5 -30v-30h-459v30c65.333 -1.33301 107.5 8.16699 126.5 28.5s27.5 58.5 25.5 114.5v516c1.33301 42.667 -10.834 80.167 -36.501 112.5s-70.834 49.5 -135.501 51.5c-42.667 -0.666992 -81.834 -11 -117.501 -31
s-68.834 -46.667 -99.501 -80v-569c-2 -50.667 5.66699 -87.334 23 -110.001s58.666 -33.667 123.999 -33v-30h-467v30c63.333 0 103.5 11.667 120.5 35s24.5 59.333 22.5 108v516c0.666992 44.667 -11.5 82.834 -36.5 114.501s-65.833 48.167 -122.5 49.5
c-45.333 -1.33301 -87.333 -13.666 -126 -36.999s-70.667 -49.333 -96 -78v-565c-1.33301 -54.667 8 -92.334 28 -113.001s60 -30.667 120 -30v-30z" />
    <glyph glyph-name="n" unicode="n" horiz-adv-x="1118" 
d="M41 30c52.667 -0.666992 91.165 10.332 115.498 32.999s36.5 59.334 36.5 110.001v578c1.33301 43.333 -8 70.833 -28 82.5s-60 16.834 -120 15.501v33c51.333 9.33301 107.833 24.5 169.5 45.5s113.167 41.167 154.5 60.5v-160c43.333 42 92.666 77.5 147.999 106.5
s115 44.167 179 45.5c94.667 -3.33301 159.167 -34 193.5 -92s50.5 -121.667 48.5 -191v-524c-1.33301 -43.333 6.66699 -77.833 24 -103.5s53 -38.834 107 -39.501v-30h-455v30c60 0 100 12 120 36s29.333 59.667 28 107v483c0.666992 60.667 -12.666 109.667 -39.999 147
s-71.333 56.666 -132 57.999c-51.333 -1.33301 -95 -12.666 -131 -33.999s-66 -46.666 -90 -75.999v-578c-1.33301 -50.667 7.83398 -87.334 27.501 -110.001s56.834 -33.667 111.501 -33v-30h-467v30z" />
    <glyph glyph-name="o" unicode="o" horiz-adv-x="1114" 
d="M565 980c152 -4.66699 266.998 -54.498 344.998 -149.498s117.333 -206.167 118 -333.5c2 -134.667 -35.333 -253.834 -112 -357.501s-203 -158.5 -379 -164.5c-156 4.66699 -273.5 54.167 -352.5 148.5s-118.5 211.833 -118.5 352.5
c0.666992 139.333 43.834 257.166 129.501 353.499s208.834 146.5 369.501 150.5zM253.998 546.002c-2 -104 20.165 -213.5 66.498 -328.5s127.833 -177.5 244.5 -187.5c115.333 4 190.833 44.167 226.5 120.5s51.834 165.833 48.501 268.5
c1.33301 101.333 -22.167 208.333 -70.5 321s-130.166 173.667 -245.499 183c-98.667 -4.66699 -168.667 -45 -210 -121s-61.333 -161.333 -60 -256z" />
    <glyph glyph-name="p" unicode="p" horiz-adv-x="1114" 
d="M344 984l-0.00292969 -176.001c42.667 44.667 88.5 82.834 137.5 114.501s104.167 48.167 165.5 49.5c145.333 -5.33301 247 -54.833 305 -148.5s86 -198.5 84 -314.5c0.666992 -136.667 -36.666 -258.167 -111.999 -364.5s-193.666 -162.833 -354.999 -169.5
c-42 0.666992 -83.167 7 -123.5 19s-74.166 29.333 -101.499 52v-341c-0.666992 -56 11.166 -96.667 35.499 -122s65.833 -38 124.5 -38v-32h-484v32c58 0 97.5 12.667 118.5 38s30.833 66 29.5 122v984c2 52.667 -5.83301 88.667 -23.5 108s-56.167 28.333 -115.5 27v33
c60.667 20 115.834 39.667 165.501 59s99.5 42 149.5 68zM343.997 725.999l0.00292969 -537c1.33301 -26 22.666 -57.5 63.999 -94.5s93.666 -57.167 156.999 -60.5c108.667 4.66699 184.834 48.5 228.501 131.5s64.5 177.167 62.5 282.5
c1.33301 92 -19.334 179.667 -62.001 263s-113.334 128 -212.001 134c-52.667 -0.666992 -97 -12.167 -133 -34.5s-71 -50.5 -105 -84.5z" />
    <glyph glyph-name="q" unicode="q" horiz-adv-x="1106" 
d="M758 747c-2 48.667 -23 89.833 -63 123.5s-87.333 51.167 -142 52.5c-107.333 -5.33301 -183.666 -50.166 -228.999 -134.499s-67.333 -176.166 -66 -275.499c-0.666992 -114 23.333 -211.833 72 -293.5s127 -124.5 235 -128.5
c54.667 3.33301 100.167 20.666 136.5 51.999s55.166 57.666 56.499 78.999v525zM758 119.999c-40.667 -36.667 -87.166 -69.499 -139.499 -98.499s-111.166 -44.5 -176.499 -46.5c-128 6 -220.833 54 -278.5 144s-86.167 190 -85.5 300
c0.666992 152.667 40 283.167 118 391.5s193 164.833 345 169.5c69.333 -2.66699 124.333 -12.834 165 -30.501s69 -27.834 85 -30.501c15.333 2 39.666 12 72.999 30s56.666 31 69.999 39v-1287c-1.33301 -50.667 6.66699 -89.167 24 -115.5s53 -39.833 107 -40.5v-32h-475
v32c68 0 113.5 12.333 136.5 37s33.5 64.334 31.5 119.001v419z" />
    <glyph glyph-name="r" unicode="r" horiz-adv-x="782" 
d="M49 882c54 14.667 112.498 32.334 175.498 53.001l156.5 53v-192c36.667 48.667 76.334 91 119.001 127s90.334 55 143.001 57c36.667 -0.666992 63.667 -11.334 81 -32.001s26 -47 26 -79c0.666992 -21.333 -5.33301 -40.166 -18 -56.499s-34 -24.833 -64 -25.5
c-40.667 2 -66.5 11 -77.5 27s-31.833 25 -62.5 27c-30 -4 -60 -22.333 -90 -55s-49 -58 -57 -76v-529c-1.33301 -50.667 11 -88.5 37 -113.5s72.333 -37.5 139 -37.5v-30h-512v30c55.333 0.666992 95.833 14.167 121.5 40.5s38.5 63.166 38.5 110.499v566
c-0.666992 45.333 -15 74 -43 86s-65.667 17.333 -113 16v33z" />
    <glyph glyph-name="s" unicode="s" horiz-adv-x="778" 
d="M553 943c10 0 19.1631 2.66504 27.4961 7.99805s15.5 15 21.5 29h29l16 -291h-37c-13.333 67.333 -38.666 124 -75.999 170s-92.333 70 -165 72c-46 -1.33301 -83.333 -14.833 -112 -40.5s-43.334 -57.167 -44.001 -94.5c1.33301 -54.667 27 -99.5 77 -134.5
s107.667 -67.833 173 -98.5s123.333 -69.5 174 -116.5s77.334 -110.833 80.001 -191.5c-2 -83.333 -30.833 -150.333 -86.5 -201s-126.5 -77 -212.5 -79c-67.333 2.66699 -121.666 9.83398 -162.999 21.501s-70.333 18.5 -87 20.5c-11.333 0 -21.5 -2.83301 -30.5 -8.5
s-13.833 -13.834 -14.5 -24.501h-33l-12 332h33c24 -80 58.5 -148.333 103.5 -205s105.833 -86.334 182.5 -89.001c54.667 0.666992 98.334 15.334 131.001 44.001s49.334 67 50.001 115c-3.33301 56 -30.166 101.833 -80.499 137.5s-108.333 68.834 -174 99.501
s-123.334 68.834 -173.001 114.501s-75.167 107.5 -76.5 185.5c0 72 24.167 133.167 72.5 183.5s119.5 76.5 213.5 78.5c52 -1.33301 94.5 -7.5 127.5 -18.5s54.833 -17.167 65.5 -18.5z" />
    <glyph glyph-name="t" unicode="t" horiz-adv-x="668" 
d="M188 153l0.000976562 729.001h-147v28c58.667 33.333 113.5 78 164.5 134s90.5 122 118.5 198h41v-291h233v-69h-233v-643c-2 -38.667 2.5 -72 13.5 -100s39.167 -42.667 84.5 -44c32 0.666992 59.167 7.5 81.5 20.5s41.5 28.167 57.5 45.5l25 -25
c-26.667 -40.667 -59.834 -77 -99.501 -109s-87.167 -49.333 -142.5 -52c-64 0.666992 -112.833 15.667 -146.5 45s-50.5 73.666 -50.5 132.999z" />
    <glyph glyph-name="u" unicode="u" horiz-adv-x="1114" 
d="M741 -33l0.000976562 156.998c-43.333 -42 -91.833 -76.833 -145.5 -104.5s-111.5 -42.5 -173.5 -44.5c-100 3.33301 -167.333 33.166 -202 89.499s-50.667 122.5 -48 198.5v500c1.33301 54 -8.83398 90.333 -30.501 109s-60.5 27.334 -116.5 26.001v15v18l323 20v-647
c-1.33301 -55.333 10.834 -104.666 36.501 -147.999s70.834 -66.333 135.501 -69c51.333 1.33301 95.333 13.833 132 37.5s66.334 49.5 89.001 77.5v561c1.33301 52 -8.16699 87.833 -28.5 107.5s-58.5 28.834 -114.5 27.501v15v18c51.333 2 107.166 4.83301 167.499 8.5
s111.166 7.5 152.499 11.5v-749c-2 -43.333 6.16699 -71 24.5 -83s59.166 -17.333 122.499 -16v-36c-57.333 -10.667 -113.333 -24.5 -168 -41.5s-106.667 -36.5 -156 -58.5z" />
    <glyph glyph-name="v" unicode="v" horiz-adv-x="922" 
d="M430 -25l-222.002 517.504l-123 283.5c-28 62 -51 102 -69 120s-37.333 25.667 -58 23v32h427v-32c-59.333 -0.666992 -96 -8.33398 -110 -23.001s-19.667 -31.667 -17 -51c-1.33301 -15.333 1.33398 -33.833 8.00098 -55.5s18.334 -53.334 35.001 -95.001
s40.334 -98 71.001 -169l120 -278.5l117 283.5l72 173c17.333 42.333 29.666 75.166 36.999 98.499s11 41.666 11 54.999c1.33301 17.333 -5.83398 31.833 -21.501 43.5s-46.834 17.834 -93.501 18.501v32h304v-32c-22 2.66699 -41.167 -3.83301 -57.5 -19.5
s-38.166 -53.334 -65.499 -113.001s-66.666 -153.667 -117.999 -282l-214 -529.5h-33z" />
    <glyph glyph-name="w" unicode="w" horiz-adv-x="1380" 
d="M958 -25l-36.001 -0.00195312l-242 595l-258 -595h-37l-199.5 522.5c-47 127.667 -82.833 221.5 -107.5 281.5s-45.667 98.333 -63 115s-37.666 23.334 -60.999 20.001v37h374v-32c-42.667 -1.33301 -68.167 -9.16602 -76.5 -23.499s-11.5 -28.5 -9.5 -42.5
c0 -16.667 5.66699 -43 17 -79s27 -79.667 47 -131l70 -174l87 -210l172 410c-38.667 120 -70.667 193 -96 219s-56.333 36.333 -93 31v32h447v-32c-57.333 -0.666992 -92.666 -8.33398 -105.999 -23.001s-19 -31.667 -17 -51c0 -18 8.16699 -50.167 24.5 -96.5
s36.166 -98.833 59.499 -157.5l71 -172l58 -139c37.333 85.333 80.333 193.833 129 325.5s75.334 215.5 80.001 251.5c3.33301 17.333 0.333008 31.833 -9 43.5s-43.333 17.834 -102 18.501v32h283v-37c-14 3.33301 -27.667 -0.833984 -41 -12.501
s-32.333 -45.167 -57 -100.5s-61.334 -148.166 -110.001 -278.499z" />
    <glyph glyph-name="x" unicode="x" horiz-adv-x="901" 
d="M516 550c148 -240.667 244.329 -389.834 288.996 -447.501s80.667 -81.834 108 -72.501v-30h-442v30c48 0 79.5 4.66699 94.5 14s21.833 22.333 20.5 39c-4 31.333 -27.333 80 -70 146l-110 165l-120.5 -162.5c-48.333 -65 -75.166 -115.833 -80.499 -152.5
c0 -16.667 8 -29 24 -37s39.333 -12 70 -12v-30h-329v30c22.667 0 42.834 4 60.501 12s38.834 26 63.501 54s58.167 71.333 100.5 130l174.5 238l-155 248c-38.667 61.333 -70.667 106.666 -96 135.999s-47.5 48.833 -66.5 58.5s-40.5 13.834 -64.5 12.501v32h451v-32
c-20.667 0.666992 -43 -2 -67 -8s-37 -20 -39 -42c3.33301 -30 22 -71.167 56 -123.5l87 -130.5c26 30.667 57 71.167 93 121.5s55.667 90.5 59 120.5c1.33301 17.333 -4.5 31.833 -17.5 43.5s-41.5 17.834 -85.5 18.501v32h373v-32c-60 2 -113.667 -24.167 -161 -78.5
s-120.666 -151.166 -219.999 -290.499z" />
    <glyph glyph-name="y" unicode="y" horiz-adv-x="909" 
d="M844 894c-22 -24.667 -54.501 -95.667 -97.501 -213l-143.5 -403.5c-52.667 -151.667 -104.834 -291.5 -156.501 -419.5s-98.167 -214.333 -139.5 -259c-33.333 -31.333 -67.833 -52.833 -103.5 -64.5s-65.167 -17.5 -88.5 -17.5
c-40.667 1.33301 -70.667 11.833 -90 31.5s-29.333 45.834 -30 78.501c0.666992 24 8.16699 44.333 22.5 61s35.833 25 64.5 25c34.667 -0.666992 59.334 -5.66699 74.001 -15s35 -15 61 -17c34.667 -2.66699 65.5 16.833 92.5 58.5s65.833 123.167 116.5 244.5l-229 529.5
c-56 128.333 -98.333 221.5 -127 279.5s-50.667 94.167 -66 108.5s-30.666 20.166 -45.999 17.499v32h427v-32c-49.333 -0.666992 -81.166 -7.33398 -95.499 -20.001s-20.833 -26.667 -19.5 -42c0 -16 9 -49.667 27 -101s40.167 -110.833 66.5 -178.5l78.5 -196.5l66 -159
l124 351.5c49.333 143.667 76.333 238.167 81 283.5c1.33301 17.333 -5.33398 31.833 -20.001 43.5s-45 17.834 -91 18.501v32h303v-32c-13.333 0 -24.5 -1.66699 -33.5 -5s-18.167 -10 -27.5 -20z" />
    <glyph glyph-name="z" unicode="z" horiz-adv-x="889" 
d="M557 75c77.333 0 134.668 16.6689 172.001 50.002s60.666 85 69.999 155h32c-4 -34.667 -7.5 -81.334 -10.5 -140.001s-7.5 -105.334 -13.5 -140.001h-782v42l581 844h-278c-72 -0.666992 -123.167 -17.5 -153.5 -50.5s-51.5 -80.5 -63.5 -142.5h-33l16 258h754v-12
l-602 -864h311z" />
    <glyph glyph-name="braceleft" unicode="{" 
d="M606 919c0.666992 -72 -22.333 -134.998 -69 -188.998s-122 -88 -226 -102c104 -14.667 179.333 -48 226 -100s69.667 -111.667 69 -179v-340c-0.666992 -62 17 -110.833 53 -146.5s96.333 -54.167 181 -55.5v-49c-133.333 -0.666992 -231.666 20.166 -294.999 62.499
s-94.666 114.833 -93.999 217.5v283c3.33301 83.333 -12.834 147.5 -48.501 192.5s-111.167 73.5 -226.5 85.5v62c110 8.66699 184 35.667 222 81s55.667 107 53 185v282c-2 102 26.833 176.167 86.5 222.5s160.5 69.166 302.5 68.499v-49
c-90.667 -0.666992 -152.834 -20.167 -186.501 -58.5s-49.5 -89.833 -47.5 -154.5v-319z" />
    <glyph glyph-name="bar" unicode="|" 
d="M438 1549h144v-2032h-144v2032z" />
    <glyph glyph-name="braceright" unicode="}" 
d="M410 349c-0.666992 69.333 22.335 129.665 69.002 180.998s122 84 226 98c-104 14 -179.333 48 -226 102s-69.667 117 -69 189v319c2 64.667 -14 116.167 -48 154.5s-96 57.833 -186 58.5v49c142 0.666992 242.833 -22.166 302.5 -68.499s88.5 -120.5 86.5 -222.5v-282
c-2.66699 -78 15 -139.667 53 -185s112 -72.333 222 -81v-62c-115.333 -12 -190.833 -40.5 -226.5 -85.5s-51.834 -109.167 -48.501 -192.5v-283c0.666992 -102.667 -30.833 -175.167 -94.5 -217.5s-161.834 -63.166 -294.501 -62.499v49
c85.333 1.33301 146 19.833 182 55.5s53.333 84.5 52 146.5v340z" />
    <glyph glyph-name="asciitilde" unicode="~" horiz-adv-x="2040" 
d="M418 1054c27.333 71.333 68.168 129.669 122.501 175.002s128.166 68.666 221.499 69.999c44.667 0 91.667 -6 141 -18s98.5 -25.833 147.5 -41.5s96.833 -29.667 143.5 -42s91 -19.166 133 -20.499c48 0 93.667 11.667 137 35s77 56.666 101 99.999l57 -33
c-26 -65.333 -66.167 -120 -120.5 -164s-126.166 -67 -215.499 -69c-46 1.33301 -93.667 8 -143 20s-98.833 26 -148.5 42s-97.5 30 -143.5 42s-89.333 18 -130 18c-58.667 -0.666992 -107.334 -13.834 -146.001 -39.501s-72 -60.167 -100 -103.5z" />
    <glyph glyph-name="exclamdown" unicode="&#xa1;" horiz-adv-x="664" 
d="M438 120c0.666992 -47.333 -7.16797 -84.333 -23.501 -111s-46.5 -40.667 -90.5 -42c-42 1.33301 -71.167 15.333 -87.5 42s-24.166 63.667 -23.499 111l94 909h41zM208.998 1320c0.666992 33.333 11.834 61.333 33.501 84s50.167 34.334 85.5 35.001
c35.333 -0.666992 64.5 -12.334 87.5 -35.001s34.833 -50.667 35.5 -84c-0.666992 -34 -12 -62.667 -34 -86s-51.667 -35.666 -89 -36.999c-37.333 1.33301 -66.333 13.666 -87 36.999s-31.334 52 -32.001 86z" />
    <glyph glyph-name="cent" unicode="&#xa2;" 
d="M754 972c34 -17.333 63.332 -39.502 87.999 -66.502s37.667 -63.5 39 -109.5c0 -27.333 -8.16699 -49.833 -24.5 -67.5s-41.166 -26.834 -74.499 -27.501c-24 0.666992 -43.667 7.83398 -59 21.501s-27 31.167 -35 52.5l-205 -602c15.333 -6 33 -11.5 53 -16.5
s39.333 -7.5 58 -7.5c64.667 0.666992 120.834 19 168.501 55s89.834 84.333 126.501 145l33 -20c-50.667 -101.333 -109.334 -181.166 -176.001 -239.499s-147.334 -88.166 -242.001 -89.499l-78 1l-66 -198h-65l74 219c-94 44.667 -162.833 107.167 -206.5 187.5
s-65.167 166.5 -64.5 258.5c2.66699 162 47.167 292 133.5 390s197.5 148.333 333.5 151c23.333 0 47.333 -1.66699 72 -5l59 -8l45 144h70zM654.999 881.998c-0.666992 14.667 -12.168 28.3311 -34.501 40.998s-50.166 19.334 -83.499 20.001
c-86.667 -4.66699 -152.667 -45.667 -198 -123s-68.333 -163.333 -69 -258c0 -75.333 12.833 -145.666 38.5 -210.999s66.167 -115 121.5 -149z" />
    <glyph glyph-name="sterling" unicode="&#xa3;" 
d="M389 116c-26 -42 -57.666 -75.6631 -94.999 -100.996s-83.333 -38.666 -138 -39.999c-40 1.33301 -72.5 12.166 -97.5 32.499s-37.833 48.166 -38.5 83.499c0.666992 56 18.834 99.167 54.501 129.5s84.5 45.833 146.5 46.5c18.667 0 37.667 -1.83301 57 -5.5
s37.333 -8.5 54 -14.5c4.66699 60 6 120.833 4 182.5s-9 144.167 -21 247.5h-213l17 82h192c-2 27.333 -3.83301 58.166 -5.5 92.499s-2.5 66.166 -2.5 95.499c-2 119.333 23.167 228.333 75.5 327s145.833 151 280.5 157c75.333 -1.33301 136.166 -20.833 182.499 -58.5
s70.166 -83.834 71.499 -138.501c0 -33.333 -6.5 -60.666 -19.5 -81.999s-33.833 -32.333 -62.5 -33c-24.667 0.666992 -43 8.16699 -55 22.5s-18 30.166 -18 47.499c0.666992 10.667 2.16699 23.167 4.5 37.5s3.5 27.833 3.5 40.5c0 28 -10.833 53 -32.5 75
s-53.167 33.667 -94.5 35c-51.333 -2.66699 -91.333 -27 -120 -73s-43.334 -98 -44.001 -156c0 -52.667 2.33301 -116.5 7 -191.5s9.33398 -140.833 14.001 -197.5h278l-12 -82h-258c0.666992 -108.667 -4.33301 -196.167 -15 -262.5s-29 -134.5 -55 -204.5
c58 -19.333 113.667 -35.666 167 -48.999s103 -20.333 149 -21c75.333 4 127.5 21.167 156.5 51.5s47.833 47.5 56.5 51.5c8 -0.666992 12.833 -4.16699 14.5 -10.5s2.16699 -13.833 1.5 -22.5c-0.666992 -44 -23 -93.333 -67 -148s-103.667 -85 -179 -91
c-68 2.66699 -131 19.167 -189 49.5s-109.667 62.166 -155 95.499zM176.001 202.004c-29.333 0 -52.832 -8.66797 -70.499 -26.001s-26.834 -41.666 -27.501 -72.999c0 -26 7.33301 -44.667 22 -56s37.334 -17 68.001 -17c40.667 1.33301 72.834 15.5 96.501 42.5
s40.5 57.833 50.5 92.5c-22.667 12 -45.334 21.167 -68.001 27.5s-46.334 9.5 -71.001 9.5z" />
    <glyph glyph-name="currency" unicode="&#xa4;" horiz-adv-x="1237" 
d="M315 878c2 -86 31.5 -157.667 88.5 -215s128.5 -87 214.5 -89c86 2 157.667 31.667 215 89s87 129 89 215c-2 86 -31.667 157.5 -89 214.5s-129 86.5 -215 88.5c-86 -2 -157.5 -31.5 -214.5 -88.5s-86.5 -128.5 -88.5 -214.5zM618 464c-50 0 -97.333 7.16699 -142 21.5
s-81.667 35.833 -111 64.5l-205 -205l-78 78l205 205c-32.667 34 -55.334 74.5 -68.001 121.5s-18.667 89.833 -18 128.5c-0.666992 38 5.33301 80.5 18 127.5s35.334 87.5 68.001 121.5l-205 205l78 78l205 -205c29.333 28.667 66.333 50.167 111 64.5s92 21.5 142 21.5
c50.667 0 98.334 -7.16699 143.001 -21.5s81.667 -35.833 111 -64.5l205 205l78 -78l-205 -205c32.667 -34 55.334 -74.5 68.001 -121.5s18.667 -89.5 18 -127.5c0.666992 -38.667 -5.33301 -81.5 -18 -128.5s-35.334 -87.5 -68.001 -121.5l205 -205l-78 -78l-205 205
c-29.333 -28.667 -66.333 -50.167 -111 -64.5s-92.334 -21.5 -143.001 -21.5z" />
    <glyph glyph-name="yen" unicode="&#xa5;" horiz-adv-x="1364" 
d="M1085 1246c26 44.667 23.3311 75.832 -8.00195 93.499s-75 26.167 -131 25.5v41h434v-17.5v-23.5c-38.667 0 -75.5 -9.16699 -110.5 -27.5s-64.833 -46.166 -89.5 -83.499l-189 -278h344v-66h-389l-143 -213h532v-65h-573v-422c-2 -60.667 11.833 -104.667 41.5 -132
s85.5 -40.666 167.5 -39.999v-38h-586v38c78.667 -0.666992 133.5 12.666 164.5 39.999s45.833 71.333 44.5 132v422h-578v65h545l-147 213h-398v66h353l-176 250c-31.333 45.333 -64 79.833 -98 103.5s-78.333 35.5 -133 35.5c0.666992 6.66699 1 15 1 25
s-0.333008 15.333 -1 16h570v-17.5v-23.5c-75.333 0 -124.666 -10.833 -147.999 -32.5s-21.666 -53.167 5.00098 -94.5l352 -512z" />
    <glyph glyph-name="brokenbar" unicode="&#xa6;" 
d="M438 1418h144v-749h-144v749zM438 402h144v-750h-144v750z" />
    <glyph glyph-name="section" unicode="&#xa7;" 
d="M479 -258c-86 1.33301 -156.836 20.1748 -212.503 56.5078s-84.5 84.5 -86.5 144.5c-0.666992 30.667 7.5 58.667 24.5 84s45.833 38.666 86.5 39.999c32.667 -1.33301 57.834 -11.166 75.501 -29.499s26.5 -37.5 26.5 -57.5c-2.66699 -40.667 -13.5 -68.167 -32.5 -82.5
s-29.833 -27.833 -32.5 -40.5c1.33301 -20 15.166 -36.333 41.499 -49s57.5 -19.667 93.5 -21c70.667 3.33301 120.5 21.5 149.5 54.5s43.167 63.833 42.5 92.5c-4 55.333 -32.667 109.666 -86 162.999s-115 107.666 -185 162.999s-131.667 113.666 -185 174.999
s-81.333 128.333 -84 201c2.66699 78.667 32 139.167 88 181.5s122 63.833 198 64.5c-56 50 -101.167 97.5 -135.5 142.5s-51.833 91.5 -52.5 139.5c1.33301 84.667 30 151.5 86 200.5s129.667 73.833 221 74.5c88.667 -1.33301 157.834 -21.333 207.501 -60
s74.834 -88.334 75.501 -149.001c0.666992 -28 -7.66602 -54.5 -24.999 -79.5s-47.333 -38.167 -90 -39.5c-29.333 0.666992 -52.833 8.83398 -70.5 24.501s-26.834 36.167 -27.501 61.5c2.66699 26.667 13.5 50.167 32.5 70.5s29.833 37.833 32.5 52.5
c-0.666992 15.333 -13 30.5 -37 45.5s-56.667 23.167 -98 24.5c-51.333 -0.666992 -90.833 -14.334 -118.5 -41.001s-41.5 -63.667 -41.5 -111c3.33301 -54.667 31.5 -108.334 84.5 -161.001s114.667 -106.5 185 -161.5s132.166 -113.333 185.499 -175
s82 -129.167 86 -202.5c-0.666992 -70 -25.5 -128.667 -74.5 -176s-119.833 -72 -212.5 -74c58.667 -48.667 105.334 -97.834 140.001 -147.501s52.334 -106.167 53.001 -169.5c-2 -62.667 -33.5 -115.834 -94.5 -159.501s-138.833 -66.834 -233.5 -69.501zM609.997 337.009
c55.333 1.33301 95.332 16.668 119.999 46.001s36.667 66 36 110c-8.66699 58.667 -56.667 128.667 -144 210s-161 126 -221 134c-47.333 -0.666992 -84.166 -15.667 -110.499 -45s-39.833 -69 -40.5 -119c8.66699 -50 55.5 -116.333 140.5 -199
s158.167 -128.334 219.5 -137.001z" />
    <glyph glyph-name="dieresis" unicode="&#xa8;" 
d="M336 1148c-32.667 1.33301 -57.167 12 -73.5 32s-24.5 42 -24.5 66s8.5 46.167 25.5 66.5s41.167 31.166 72.5 32.499c30.667 -1.33301 54 -12.666 70 -33.999s24 -43 24 -65s-7.5 -43.5 -22.5 -64.5s-38.833 -32.167 -71.5 -33.5zM684 1148
c-32.667 1.33301 -57.167 12 -73.5 32s-24.5 42 -24.5 66s8.66699 46.167 26 66.5s41.333 31.166 72 32.499c30.667 -1.33301 54 -12.666 70 -33.999s24 -43 24 -65s-7.5 -43.5 -22.5 -64.5s-38.833 -32.167 -71.5 -33.5z" />
    <glyph glyph-name="copyright" unicode="&#xa9;" horiz-adv-x="1675" 
d="M594 677c0.666992 -125.333 23.833 -220.161 69.5 -284.494s109.834 -96.5 192.501 -96.5c67.333 2 124.333 20.833 171 56.5s82.667 74.167 108 115.5l36 -16c-25.333 -52 -65.166 -99.833 -119.499 -143.5s-129.166 -66.834 -224.499 -69.501
c-99.333 1.33301 -190.333 38.166 -273 110.499s-126.667 174.5 -132 306.5c2.66699 127.333 42 231 118 311s171.667 121.333 287 124c66.667 -2.66699 117.5 -14.334 152.5 -35.001s62.167 -32.334 81.5 -35.001c15.333 1.33301 29.166 9.16602 41.499 23.499
s18.833 28.166 19.5 41.499h33v-311h-37c2 26 -17.833 75.333 -59.5 148s-115.834 113.667 -222.501 123c-91.333 -4 -154.833 -43 -190.5 -117s-52.834 -158 -51.501 -252zM843.999 -32.9951c-204 6.66699 -372.665 76.666 -505.998 209.999s-202.333 296 -207 488
c3.33301 184 68.666 346.833 195.999 488.5s297 216.167 509 223.5c221.333 -6.66699 394.166 -79.167 518.499 -217.5s187.5 -301.833 189.5 -490.5c-0.666992 -160 -60 -314.167 -178 -462.5s-292 -228.166 -522 -239.499zM221.001 665.004
c10 -203.333 80.8311 -357.165 212.498 -461.498s265.834 -156.833 402.501 -157.5c164 3.33301 307.167 62 429.5 176s186.5 263 192.5 447c-6 187.333 -69.167 337.666 -189.5 450.999s-263.166 171.666 -428.499 174.999c-180 -4.66699 -327.167 -67 -441.5 -187
s-173.5 -267.667 -177.5 -443z" />
    <glyph glyph-name="ordfeminine" unicode="&#xaa;" horiz-adv-x="754" 
d="M229 1312l9 -41.002c0 -17.333 -6.16699 -33.166 -18.5 -47.499s-30.833 -21.833 -55.5 -22.5c-19.333 0.666992 -35.666 7.33398 -48.999 20.001s-20.333 29.334 -21 50.001c3.33301 47.333 31 84.166 83 110.499s110.333 39.833 175 40.5
c75.333 0 136.166 -15 182.499 -45s70.166 -73.667 71.499 -131v-385c0 -17.333 3.5 -32.333 10.5 -45s18.5 -19.334 34.5 -20.001c10.667 0 22 2.66699 34 8s21.333 12 28 20l16 -20c-12.667 -20 -32.5 -39 -59.5 -57s-59.167 -27.667 -96.5 -29
c-30 0.666992 -52 9.5 -66 26.5s-22 38.167 -24 63.5c-38 -25.333 -77.167 -46.5 -117.5 -63.5s-82.833 -25.833 -127.5 -26.5c-54 0.666992 -95.5 15.834 -124.5 45.501s-43.5 70.5 -43.5 122.5c0 62.667 33.333 113.667 100 153s168.334 82.333 305.001 129v119
c0.666992 33.333 -9.33301 58.833 -30 76.5s-54.334 26.5 -101.001 26.5c-33.333 -0.666992 -60.666 -8.16699 -81.999 -22.5s-32.333 -32.833 -33 -55.5zM729 606.998v-110h-659v110h659zM475 1127c-80 -24 -145.835 -52.999 -197.502 -86.999s-78.5 -74.333 -80.5 -121
c0 -32.667 10.833 -62.5 32.5 -89.5s53.167 -41.167 94.5 -42.5c26.667 -1.33301 52.834 3.16699 78.501 13.5s49.834 33.166 72.501 68.499v258z" />
    <glyph glyph-name="guillemotleft" unicode="&#xab;" horiz-adv-x="1032" 
d="M94 476c84.667 74 152.667 135.833 204 185.5l120 118.5c28.667 29.333 50.167 50.5 64.5 63.5s26.833 18.833 37.5 17.5c28.667 -8.66699 11.167 -57.5 -52.5 -146.5s-125.167 -168.5 -184.5 -238.5c59.333 -70 120.833 -149.5 184.5 -238.5
s81.167 -137.833 52.5 -146.5c-10.667 0 -23.167 6.5 -37.5 19.5s-35.833 34.167 -64.5 63.5l-120 119c-51.333 50 -119.333 111 -204 183zM492 476c84 74 151.667 135.833 203 185.5l120 118.5c28.667 29.333 50.167 50.5 64.5 63.5s27.166 18.833 38.499 17.5
c28.667 -8.66699 11 -57.5 -53 -146.5s-125.667 -168.5 -185 -238.5c59.333 -70 121 -149.5 185 -238.5s81.667 -137.833 53 -146.5c-11.333 0 -24.166 6.5 -38.499 19.5s-35.833 34.167 -64.5 63.5l-120 119c-51.333 50 -119 111 -203 183z" />
    <glyph glyph-name="logicalnot" unicode="&#xac;" horiz-adv-x="1700" 
d="M254 849h1192v-496h-135v361h-1057v135z" />
    <glyph glyph-name="registered" unicode="&#xae;" horiz-adv-x="1675" 
d="M1122 263c-120.667 17.333 -173.001 85.668 -157.001 205.001s-50.333 187.666 -199 204.999h-33v-262c-0.666992 -23.333 8 -43.333 26 -60s49 -25.334 93 -26.001v-45h-385v45c50 0.666992 83.333 10.334 100 29.001s24.334 41.667 23.001 69v508
c0 42 -10.167 71 -30.5 87s-51.166 23.667 -92.499 23v41h430c78 -0.666992 143.5 -18.334 196.5 -53.001s80.5 -81 82.5 -139c-3.33301 -64.667 -33.333 -112.667 -90 -144s-122.334 -51.666 -197.001 -60.999c139.333 -45.333 211.5 -114 216.5 -206
s26.833 -143.333 65.5 -154c24.667 0.666992 42.5 12.167 53.5 34.5s16.5 53.166 16.5 92.499h41c1.33301 -49.333 -9.5 -92.666 -32.5 -129.999s-65.5 -57 -127.5 -59zM843.999 -32.998c-204 6.66699 -372.665 76.666 -505.998 209.999s-202.333 296 -207 488
c3.33301 184 68.666 346.833 195.999 488.5s297 216.167 509 223.5c221.333 -6.66699 394.166 -79.167 518.499 -217.5s187.5 -301.833 189.5 -490.5c-0.666992 -160 -60 -314.167 -178 -462.5s-292 -228.166 -522 -239.499zM221.001 665.001
c10 -203.333 80.8311 -357.165 212.498 -461.498s265.834 -156.833 402.501 -157.5c164 3.33301 307.167 62 429.5 176s186.5 263 192.5 447c-6 187.333 -69.167 337.666 -189.5 450.999s-263.166 171.666 -428.499 174.999c-180 -4.66699 -327.167 -67 -441.5 -187
s-173.5 -267.667 -177.5 -443zM830.999 1046c-32.667 0.666992 -57.167 -4.66504 -73.5 -15.998s-24.5 -32 -24.5 -62v-258h94c51.333 -0.666992 95.833 13.166 133.5 41.499s57.5 73.166 59.5 134.499c-1.33301 51.333 -20 90.833 -56 118.5s-80.333 41.5 -133 41.5z" />
    <glyph glyph-name="overscore" unicode="&#xaf;" 
d="M0 1549h1016v-139h-1016v139z" />
    <glyph glyph-name="degree" unicode="&#xb0;" horiz-adv-x="672" 
d="M336 873c-94.667 3.33301 -166.167 33.6689 -214.5 91.002s-72.5 121.333 -72.5 192c0.666992 71.333 26 136.166 76 194.499s120.333 89.166 211 92.499c90.667 -4 160.167 -35.167 208.5 -93.5s72.833 -120.166 73.5 -185.499c0 -66 -23.5 -129.833 -70.5 -191.5
s-117.5 -94.834 -211.5 -99.501zM139 1156c0.666992 -52.667 18.334 -97.501 53.001 -134.501s81.334 -56.167 140.001 -57.5c58 2 104.833 21.833 140.5 59.5s54.167 81.834 55.5 132.501c-0.666992 51.333 -18.334 96.5 -53.001 135.5s-81 59.5 -139 61.5
c-58.667 -2 -105.834 -22 -141.501 -60s-54.167 -83.667 -55.5 -137z" />
    <glyph glyph-name="plusminus" unicode="&#xb1;" horiz-adv-x="1700" 
d="M254 161h1192v-135h-1192v135zM782 706h-528v135h528v340h136v-340h528v-135h-528v-340h-136v340z" />
    <glyph glyph-name="twosuperior" unicode="&#xb2;" horiz-adv-x="672" 
d="M283 1336c-52.667 -0.666992 -98.6689 -15.001 -138.002 -43.001s-65.666 -66.667 -78.999 -116l-29 4c22 78 57.167 137.5 105.5 178.5s114.166 61.833 197.499 62.5c82 -2 142.833 -23.833 182.5 -65.5s59.5 -92.167 59.5 -151.5
c-1.33301 -50.667 -18.166 -100.834 -50.499 -150.501s-71.333 -98 -117 -145s-91.667 -91.667 -138 -134s-85.166 -82.166 -116.499 -119.499h286c47.333 0 85.333 7.66699 114 23s51 39.333 67 72l24 -9l-73 -180h-541v17c22 28.667 56.167 65.167 102.5 109.5l145 143
c50.333 51 93.333 102.5 129 154.5s54.834 100.667 57.501 146c-0.666992 62 -17.334 111.333 -50.001 148s-78.667 55.334 -138 56.001z" />
    <glyph glyph-name="threesuperior" unicode="&#xb3;" horiz-adv-x="672" 
d="M295 591c46 0 89.6699 16.666 131.003 49.999s63.333 85 66 155c2 50.667 -18.333 93.834 -61 129.501s-119.334 55.167 -230.001 58.5v21c88.667 9.33301 150 35.166 184 77.499s50.333 83.166 49 122.499c-2 43.333 -18.167 76 -48.5 98s-64.5 33 -102.5 33
c-46 -0.666992 -87.667 -12.834 -125 -36.501s-66.666 -55.167 -87.999 -94.5l-25 17c21.333 48 54.666 92.667 99.999 134s107.666 63.333 186.999 66c71.333 -2 124 -20.167 158 -54.5s51 -72.166 51 -113.499c0 -32.667 -11.5 -64.5 -34.5 -95.5
s-55.167 -61.833 -96.5 -92.5c59.333 -14 104.166 -39 134.499 -75s45.5 -87.333 45.5 -154c0 -67.333 -31 -131 -93 -191s-155.333 -92 -280 -96c-63.333 0.666992 -109.333 8.5 -138 23.5s-42.667 33.167 -42 54.5c0 16.667 3.66699 29 11 37s20 12 38 12
c42 -3.33301 79.333 -17.666 112 -42.999s65 -39.666 97 -42.999z" />
    <glyph glyph-name="acute" unicode="&#xb4;" 
d="M786 1381c8 -18.667 -8.16699 -42.834 -48.5 -72.501s-153.833 -100.834 -340.5 -213.501h-65c160 168.667 260.167 271.334 300.5 308.001s69.833 51.334 88.5 44.001c22.667 -0.666992 39.167 -7.16699 49.5 -19.5s15.5 -27.833 15.5 -46.5z" />
    <glyph glyph-name="mu" unicode="&#xb5;" horiz-adv-x="1163" 
d="M348 873c-9.33301 -38 -20.4971 -86 -33.4971 -144l-40 -181c-13.667 -62.667 -24.667 -118.667 -33 -168s-12.5 -84.333 -12.5 -105c-1.33301 -38 10 -72.167 34 -102.5s67.333 -46.5 130 -48.5c56 0 100.333 12.667 133 38s59.667 66.666 81 123.999
s41.5 134.166 60.5 230.499l73.5 356.5h168c-22 -94 -49.167 -216.833 -81.5 -368.5s-50.166 -245.834 -53.499 -282.501c-0.666992 -26 7 -49.167 23 -69.5s44 -31.166 84 -32.499c48.667 2 87 21.167 115 57.5s47 79.833 57 130.5c0 4.66699 2.16699 11.167 6.5 19.5
s11.5 12.833 21.5 13.5c10 0 16.667 -2.66699 20 -8s5 -12.333 5 -21c1.33301 -62 -18.834 -131 -60.501 -207s-113.167 -117.667 -214.5 -125c-54.667 2 -94.834 22.5 -120.501 61.5s-38.5 86.833 -38.5 143.5c-22.667 -53.333 -56.334 -100.166 -101.001 -140.499
s-109.334 -61.833 -194.001 -64.5c-58.667 2 -107.334 21.833 -146.001 59.5s-62.334 87.5 -71.001 149.5c-23.333 -92.667 -40.166 -176 -50.499 -250l-26.5 -191c-7.33301 -53.333 -18.166 -94 -32.499 -122s-36.833 -42.667 -67.5 -44
c-30 1.33301 -51.167 11.833 -63.5 31.5s-18.5 44.834 -18.5 75.501c0 14.667 7.16699 48 21.5 100l59.5 217.5c25.333 93 55.5 211.333 90.5 355s72.167 314.167 111.5 511.5h164z" />
    <glyph glyph-name="paragraph" unicode="&#xb6;" 
d="M545 0l-107 0.000976562v775c-119.333 2.66699 -211 37.167 -275 103.5s-96.333 147.833 -97 244.5c2 95.333 35.167 175.166 99.5 239.499s145.833 97.833 244.5 100.5h540v-82h-119v-1381h-106v1381h-180v-1381z" />
    <glyph glyph-name="periodcentered" unicode="&#xb7;" horiz-adv-x="1028" 
d="M512 550c-34 1.33301 -63.333 14.333 -88 39s-37.667 54 -39 88c1.33301 34 14.333 63.333 39 88s54 37.667 88 39c34 -1.33301 63.333 -14.333 88 -39s37.667 -54 39 -88c-1.33301 -34 -14.333 -63.333 -39 -88s-54 -37.667 -88 -39z" />
    <glyph glyph-name="cedilla" unicode="&#xb8;" 
d="M537 -369c35.333 0.666992 64.3359 8.00098 87.0029 22.001s34.334 34 35.001 60c-0.666992 30.667 -10.334 56.167 -29.001 76.5s-44.334 30.5 -77.001 30.5c-12.667 0.666992 -24.667 0.166992 -36 -1.5s-21.333 -3.83398 -30 -6.50098v184h58v-111
c12 0.666992 22.667 1.66699 32 3s19 1.66602 29 0.999023c59.333 0.666992 104.166 -12.666 134.499 -39.999s45.5 -67 45.5 -119c0.666992 -48 -15.833 -88.833 -49.5 -122.5s-88.167 -51.5 -163.5 -53.5c-48.667 0.666992 -97 7.66699 -145 21s-96.333 32 -145 56l32 70
c46 -22 88.667 -39 128 -51s70.666 -18.333 93.999 -19z" />
    <glyph glyph-name="onesuperior" unicode="&#xb9;" horiz-adv-x="672" 
d="M270 1304c-18 -1.33301 -43.0029 -8.83301 -75.0029 -22.5s-57.333 -25.5 -76 -35.5l-8 25l299 151v-688c-3.33301 -63.333 3.33398 -104.833 20.001 -124.5s63 -28.5 139 -26.5v-21h-446v21c78.667 -1.33301 127.834 8.5 147.501 29.5s27.834 61.5 24.501 121.5v520
c0 14.667 -2 26.667 -6 36s-10.333 14 -19 14z" />
    <glyph glyph-name="ordmasculine" unicode="&#xba;" horiz-adv-x="836" 
d="M774 607v-110h-725v110h725zM418 1422c115.333 -2 203.33 -35.335 263.997 -100.002s91.334 -150 92.001 -256c0 -94.667 -30.667 -175.5 -92 -242.5s-153.333 -102.167 -276 -105.5c-117.333 2 -206.166 35.333 -266.499 100s-90.5 147.334 -90.5 248.001
c0.666992 101.333 32.834 185.333 96.501 252s154.5 101.334 272.5 104.001zM388.997 1381c-94 -7.33301 -151.169 -44.3311 -171.502 -110.998s-28.5 -121 -24.5 -163c-2 -68.667 13.833 -142.834 47.5 -222.501s95.5 -122.834 185.5 -129.501
c76.667 2.66699 130.334 28.5 161.001 77.5s45.334 106.5 44.001 172.5c2 85.333 -14.167 167.833 -48.5 247.5s-98.833 122.5 -193.5 128.5z" />
    <glyph glyph-name="guillemotright" unicode="&#xbb;" horiz-adv-x="1032" 
d="M934 476c-86 -72 -155 -133 -207 -183s-92 -89.667 -120 -119s-49.167 -50.5 -63.5 -63.5s-26.166 -19.5 -35.499 -19.5c-28.667 8.66699 -11.167 57.5 52.5 146.5s125.167 168.5 184.5 238.5c-59.333 70 -120.833 149.5 -184.5 238.5s-81.167 137.833 -52.5 146.5
c9.33301 1.33301 21.166 -4.5 35.499 -17.5s35.5 -34.167 63.5 -63.5s68 -68.833 120 -118.5s121 -111.5 207 -185.5zM537 476c-86 -72 -155 -133 -207 -183s-92 -89.667 -120 -119s-49.167 -50.5 -63.5 -63.5s-26.166 -19.5 -35.499 -19.5
c-28.667 8.66699 -11.167 57.5 52.5 146.5s125.167 168.5 184.5 238.5c-59.333 70 -120.833 149.5 -184.5 238.5s-81.167 137.833 -52.5 146.5c9.33301 1.33301 21.166 -4.5 35.499 -17.5s35.5 -34.167 63.5 -63.5s68 -68.833 120 -118.5s121 -111.5 207 -185.5z" />
    <glyph glyph-name="onequarter" unicode="&#xbc;" horiz-adv-x="1626" 
d="M1364 681l-307 -410h307v410zM279 1271c0 12 -2.16699 21.832 -6.5 29.499s-10.5 11.5 -18.5 11.5c-18.667 -1.33301 -42.667 -8.16602 -72 -20.499s-53 -23.166 -71 -32.499l-13 20l287 139v-639c-3.33301 -59.333 3.16699 -97.833 19.5 -115.5
s61.833 -25.5 136.5 -23.5v-20h-426v20c76.667 -1.33301 124 7.66699 142 27s25.333 56.666 22 111.999v492zM1364 -0.000976562v198h-352v82l393 520h53v-529h127v-73h-127v-198h-94zM303 -25.001l926 1456h90l-922 -1456h-94z" />
    <glyph glyph-name="onehalf" unicode="&#xbd;" horiz-adv-x="1626" 
d="M1544 603c-1.33301 -48 -17.332 -95.833 -47.999 -143.5s-68.5 -94.334 -113.5 -140.001s-90 -88.667 -135 -129s-82.5 -76.166 -112.5 -107.499h274c46 0 82.167 6.83301 108.5 20.5s47.5 35.5 63.5 65.5l25 -4l-70 -165h-520v9c22 27.333 55.5 62.166 100.5 104.499
l139 137.5c47.667 49.333 88.667 98.5 123 147.5s52.833 94.167 55.5 135.5c-1.33301 56 -18.833 100.5 -52.5 133.5s-77.834 49.833 -132.501 50.5c-50 -0.666992 -92.667 -14.667 -128 -42s-59.333 -64 -72 -110l-33 8c21.333 72.667 54.833 128.334 100.5 167.001
s109.167 58.334 190.5 59.001c85.333 -2.66699 146.333 -24.334 183 -65.001s54.667 -84.667 54 -132zM279.001 1271c0 12 -2.16699 21.834 -6.5 29.501s-10.5 11.5 -18.5 11.5c-20 -1.33301 -44.5 -8.83301 -73.5 -22.5s-52.167 -25.5 -69.5 -35.5l-13 25l287 139v-639
c-3.33301 -59.333 3.16699 -97.833 19.5 -115.5s61.833 -25.5 136.5 -23.5v-20h-426v20c76.667 -1.33301 124 7.66699 142 27s25.333 56.666 22 111.999v492zM303.001 -24.999l926 1456h90l-922 -1456h-94z" />
    <glyph glyph-name="threequarters" unicode="&#xbe;" horiz-adv-x="1626" 
d="M1364 681l-307 -410h307v410zM1364 0v198h-352v82l393 520h53v-529h127v-73h-127v-198h-94zM303 -25l926 1456h90l-926 -1456h-90zM70 1226l-21.0029 12c20 45.333 51.333 86.833 94 124.5s101.334 57.5 176.001 59.5c68 -1.33301 117.833 -17.166 149.5 -47.499
s47.5 -64.833 47.5 -103.5c-0.666992 -30.667 -12 -60.5 -34 -89.5s-51.667 -57.833 -89 -86.5c56 -14 98.667 -38 128 -72s44 -82.333 44 -145c0 -63.333 -29.667 -123.333 -89 -180s-148.333 -87 -267 -91c-59.333 0.666992 -102.833 7.83398 -130.5 21.501
s-41.5 31.167 -41.5 52.5c0 14.667 4 25.834 12 33.501s20.333 11.5 37 11.5c40 -3.33301 75.333 -17 106 -41s61 -37.667 91 -41c43.333 0 84.166 15.833 122.499 47.5s58.833 80.167 61.5 145.5c2 48.667 -16.833 90 -56.5 124s-110.834 52.667 -213.501 56v24
c82.667 9.33301 139.834 33.166 171.501 71.499s46.834 76.166 45.501 113.499c-1.33301 39.333 -16.5 69 -45.5 89s-61.833 30 -98.5 30c-41.333 -0.666992 -79.666 -11.834 -114.999 -33.501s-63.666 -50.167 -84.999 -85.5z" />
    <glyph glyph-name="questiondown" unicode="&#xbf;" horiz-adv-x="1004" 
d="M721 153c-2.66699 29.333 -13.002 53.666 -31.002 72.999s-28.333 55 -31 107c0.666992 24.667 9.83398 43.834 27.501 57.501s40.167 20.5 67.5 20.5c32.667 -1.33301 57.834 -14.666 75.501 -39.999s26.5 -55.666 26.5 -90.999
c-2.66699 -84.667 -37.334 -156.5 -104.001 -215.5s-149.334 -90.167 -248.001 -93.5c-116 2.66699 -207.5 34.5 -274.5 95.5s-101.167 137.5 -102.5 229.5c1.33301 83.333 19 154.666 53 213.999s74.333 114 121 164s88.334 103.333 125.001 160s58.667 123 66 199h45
c-8.66699 -86 -24.167 -160 -46.5 -222s-47.166 -118.667 -74.499 -170s-51 -104.333 -71 -159s-30 -118 -30 -190c0 -73.333 20.167 -134.833 60.5 -184.5s99.5 -75.5 177.5 -77.5c44.667 1.33301 83.5 14.166 116.5 38.499s50.167 52.5 51.5 84.5zM515.998 1197
c-36 0.666992 -65.333 12.167 -88 34.5s-34.334 50.5 -35.001 84.5c0.666992 33.333 12.334 61.833 35.001 85.5s52 36.167 88 37.5c35.333 -1.33301 63.833 -13.833 85.5 -37.5s32.834 -52.167 33.501 -85.5c-0.666992 -34 -11.834 -62.167 -33.501 -84.5
s-50.167 -33.833 -85.5 -34.5z" />
    <glyph glyph-name="Agrave" unicode="&#xc0;" horiz-adv-x="1569" 
d="M283 128c-2.66699 -20 5.16699 -39.667 23.5 -59s64.833 -29.666 139.5 -30.999v-38h-455v38c24 0.666992 46.5 5.5 67.5 14.5s36.833 19.167 47.5 30.5c13.333 -1.33301 54.666 68.167 123.999 208.5l544 1139.5h49l519 -1142.5
c66 -140.333 104.667 -208.833 116 -205.5c22 -21.333 42.667 -34.333 62 -39s41 -6.66699 65 -6v-38h-586v38c34 -1.33301 68.5 3.16699 103.5 13.5s53.833 34.5 56.5 72.5c-3.33301 36 -21.666 90.167 -54.999 162.5l-80 177.5h-606
c-20 -48.667 -47 -109.334 -81 -182.001s-52 -124 -54 -154zM729.001 1140l-274 -598h536zM528.001 1836c0 18.667 5.33301 34.167 16 46.5s27.334 18.833 50.001 19.5c18.667 7.33301 48.167 -7.33398 88.5 -44.001s140.5 -139.667 300.5 -309h-65
c-186.667 113.333 -300.334 184.833 -341.001 214.5s-57 53.834 -49 72.501z" />
    <glyph glyph-name="Aacute" unicode="&#xc1;" horiz-adv-x="1569" 
d="M283 128c-2.66699 -20 5.16699 -39.667 23.5 -59s64.833 -29.666 139.5 -30.999v-38h-455v38c24 0.666992 46.5 5.5 67.5 14.5s36.833 19.167 47.5 30.5c13.333 -1.33301 54.666 68.167 123.999 208.5l544 1139.5h49l519 -1142.5
c66 -140.333 104.667 -208.833 116 -205.5c22 -21.333 42.667 -34.333 62 -39s41 -6.66699 65 -6v-38h-586v38c34 -1.33301 68.5 3.16699 103.5 13.5s53.833 34.5 56.5 72.5c-3.33301 36 -21.666 90.167 -54.999 162.5l-80 177.5h-606
c-20 -48.667 -47 -109.334 -81 -182.001s-52 -124 -54 -154zM729.001 1140l-274 -598h536zM1020 1902c22.667 -0.666992 39.167 -7.16699 49.5 -19.5s15.5 -27.833 15.5 -46.5c8 -18.667 -8.16699 -42.834 -48.5 -72.501s-153.833 -101.167 -340.5 -214.5h-65
c160 169.333 260.167 272.333 300.5 309s69.833 51.334 88.5 44.001z" />
    <glyph glyph-name="Acircumflex" unicode="&#xc2;" horiz-adv-x="1569" 
d="M283 128c-2.66699 -20 5.16699 -39.667 23.5 -59s64.833 -29.666 139.5 -30.999v-38h-455v38c24 0.666992 46.5 5.5 67.5 14.5s36.833 19.167 47.5 30.5c13.333 -1.33301 54.666 68.167 123.999 208.5l544 1139.5h49l519 -1142.5
c66 -140.333 104.667 -208.833 116 -205.5c22 -21.333 42.667 -34.333 62 -39s41 -6.66699 65 -6v-38h-586v38c34 -1.33301 68.5 3.16699 103.5 13.5s53.833 34.5 56.5 72.5c-3.33301 36 -21.666 90.167 -54.999 162.5l-80 177.5h-606
c-20 -48.667 -47 -109.334 -81 -182.001s-52 -124 -54 -154zM729.001 1140l-274 -598h536zM1040 1549l-229 209l-233 -209h-58l230 344h118l230 -344h-58z" />
    <glyph glyph-name="Atilde" unicode="&#xc3;" horiz-adv-x="1569" 
d="M283 128c-2.66699 -20 5.16699 -39.667 23.5 -59s64.833 -29.666 139.5 -30.999v-38h-455v38c24 0.666992 46.5 5.5 67.5 14.5s36.833 19.167 47.5 30.5c13.333 -1.33301 54.666 68.167 123.999 208.5l544 1139.5h49l519 -1142.5
c66 -140.333 104.667 -208.833 116 -205.5c22 -21.333 42.667 -34.333 62 -39s41 -6.66699 65 -6v-38h-586v38c34 -1.33301 68.5 3.16699 103.5 13.5s53.833 34.5 56.5 72.5c-3.33301 36 -21.666 90.167 -54.999 162.5l-80 177.5h-606
c-20 -48.667 -47 -109.334 -81 -182.001s-52 -124 -54 -154zM729.001 1140l-274 -598h536zM578.001 1598l-50.001 -0.000976562c10 60.667 30.167 109.667 60.5 147s73.166 56.666 128.499 57.999c44 -2 87 -9.5 129 -22.5s76.667 -20.5 104 -22.5
c28 0.666992 48.833 8.33398 62.5 23.001s24.167 34.334 31.5 59.001h50c-10 -56 -30.167 -102.333 -60.5 -139s-75.833 -55.667 -136.5 -57c-43.333 2 -84.166 9.5 -122.499 22.5s-71.166 20.5 -98.499 22.5c-24 0 -43.833 -7.5 -59.5 -22.5s-28.5 -37.833 -38.5 -68.5z
" />
    <glyph glyph-name="Adieresis" unicode="&#xc4;" horiz-adv-x="1569" 
d="M283 128c-2.66699 -20 5.16699 -39.667 23.5 -59s64.833 -29.666 139.5 -30.999v-38h-455v38c24 0.666992 46.5 5.5 67.5 14.5s36.833 19.167 47.5 30.5c13.333 -1.33301 54.666 68.167 123.999 208.5l544 1139.5h49l519 -1142.5
c66 -140.333 104.667 -208.833 116 -205.5c22 -21.333 42.667 -34.333 62 -39s41 -6.66699 65 -6v-38h-586v38c34 -1.33301 68.5 3.16699 103.5 13.5s53.833 34.5 56.5 72.5c-3.33301 36 -21.666 90.167 -54.999 162.5l-80 177.5h-606
c-20 -48.667 -47 -109.334 -81 -182.001s-52 -124 -54 -154zM729.001 1140l-274 -598h536zM729.001 1701c0 -22 -7.5 -43.5 -22.5 -64.5s-38.833 -32.167 -71.5 -33.5c-32.667 1.33301 -57.167 12 -73.5 32s-24.5 42 -24.5 66s8.5 46 25.5 66s41.167 30.667 72.5 32
c30.667 -1.33301 54 -12.5 70 -33.5s24 -42.5 24 -64.5zM885.001 1701c0 24 8.66699 46 26 66s41.333 30.667 72 32c30.667 -1.33301 54 -12.5 70 -33.5s24 -42.5 24 -64.5s-7.5 -43.5 -22.5 -64.5s-38.833 -32.167 -71.5 -33.5c-32.667 1.33301 -57.167 12 -73.5 32
s-24.5 42 -24.5 66z" />
    <glyph glyph-name="Aring" unicode="&#xc5;" horiz-adv-x="1569" 
d="M283 128c-2.66699 -20 5.16699 -39.667 23.5 -59s64.833 -29.666 139.5 -30.999v-38h-455v38c24 0.666992 46.5 5.5 67.5 14.5s36.833 19.167 47.5 30.5c13.333 -1.33301 54.666 68.167 123.999 208.5l544 1139.5h49l519 -1142.5
c66 -140.333 104.667 -208.833 116 -205.5c22 -21.333 42.667 -34.333 62 -39s41 -6.66699 65 -6v-38h-586v38c34 -1.33301 68.5 3.16699 103.5 13.5s53.833 34.5 56.5 72.5c-3.33301 36 -21.666 90.167 -54.999 162.5l-80 177.5h-606
c-20 -48.667 -47 -109.334 -81 -182.001s-52 -124 -54 -154zM729.001 1140l-274 -598h536zM795.001 1955c67.333 -2 123.166 -25.333 167.499 -70s67.5 -100.667 69.5 -168c-2 -67.333 -25.167 -123.166 -69.5 -167.499s-100.166 -67.5 -167.499 -69.5
c-67.333 2 -123.333 25.167 -168 69.5s-68 100.166 -70 167.499c2 67.333 25.333 123.333 70 168s100.667 68 168 70zM795.001 1562c40 1.33301 75.5 17.333 106.5 48s47.167 66.334 48.5 107.001c-1.33301 40.667 -17.5 76.5 -48.5 107.5s-66.5 47.167 -106.5 48.5
c-40.667 -1.33301 -76.5 -17.5 -107.5 -48.5s-47.167 -66.833 -48.5 -107.5c1.33301 -40.667 17.5 -76.334 48.5 -107.001s66.833 -46.667 107.5 -48z" />
    <glyph glyph-name="AE" unicode="&#xc6;" horiz-adv-x="2138" 
d="M655 1369v37h1266l21 -307h-37c-12 72 -37.833 128.667 -77.5 170s-117.834 62.333 -234.501 63h-286c-67.333 2.66699 -108.166 -4.16602 -122.499 -20.499s-20.166 -59.833 -17.499 -130.5v-324c-1.33301 -32 1.66699 -53.167 9 -63.5s27.666 -15.166 60.999 -14.499
h332c72 -0.666992 123.333 13.5 154 42.5s47.667 79.167 51 150.5h32v-475h-32c-4 80 -24.833 134.5 -62.5 163.5s-96.167 42.5 -175.5 40.5h-291c-37.333 1.33301 -60 -4.16699 -68 -16.5s-11.333 -39.5 -10 -81.5v-389c-4 -56 3.66699 -93.5 23 -112.5
s73.333 -27.833 162 -26.5h209c136 -2.66699 235.5 15.666 298.5 54.999s117.5 115 163.5 227l29 -16l-102 -341h-1217v34c84.667 0 143 13.667 175 41s47.333 69.666 46 126.999v360h-442l-197 -344c-30 -52 -37.333 -95.333 -22 -130s62.333 -52.667 141 -54v-34h-422v34
c42.667 -4 86.167 24.167 130.5 84.5s142.833 225.833 295.5 496.5l166.5 283l115.5 198c30.667 52.667 53.5 94.667 68.5 126s22.5 53 22.5 65c-4 39.333 -24.5 63.333 -61.5 72s-68.5 12 -94.5 10zM553 636h405v713z" />
    <glyph glyph-name="Ccedilla" unicode="&#xc7;" horiz-adv-x="1446" 
d="M1430 284c-98.667 -120.667 -196.835 -203.499 -294.502 -248.499s-193.5 -66.5 -287.5 -64.5v-86c12 0.666992 22.667 1.66699 32 3s19 1.66602 29 0.999023c59.333 0.666992 104.333 -12.666 135 -39.999s46 -67 46 -119c0.666992 -48 -16 -88.833 -50 -122.5
s-88.333 -51.5 -163 -53.5c-49.333 0.666992 -98 7.66699 -146 21s-96.333 32 -145 56l32 70c46 -22 88.667 -39 128 -51s70.666 -18.333 93.999 -19c35.333 0.666992 64.5 8 87.5 22s34.833 34 35.5 60c0 30.667 -9.5 56.167 -28.5 76.5s-45.167 30.5 -78.5 30.5
c-12.667 0.666992 -24.667 0.166992 -36 -1.5s-21 -3.83398 -29 -6.50098v159c-255.333 14 -436.166 100.167 -542.499 258.5s-157.833 308.833 -154.5 451.5c2 212.667 68.167 390.667 198.5 534s311.5 218 543.5 224c127.333 -3.33301 216.833 -17 268.5 -41
s101.167 -37.667 148.5 -41c20.667 0.666992 36.334 7.66699 47.001 21s17 29.333 19 48h37l41 -454h-41c-24 88 -72.5 174 -145.5 258s-184.167 129 -333.5 135c-193.333 -8.66699 -332.833 -80.667 -418.5 -216s-127.834 -280.333 -126.501 -435
c-1.33301 -162 40.834 -311 126.501 -447s225.167 -208.333 418.5 -217c116 2 215.833 28.333 299.5 79s155.834 116 216.501 196z" />
    <glyph glyph-name="Egrave" unicode="&#xc8;" horiz-adv-x="1421" 
d="M872 1549h-65.001c-186.667 113.333 -300.167 184.833 -340.5 214.5s-56.5 53.834 -48.5 72.501c0 18.667 5.16699 34.167 15.5 46.5s26.833 18.833 49.5 19.5c18.667 7.33301 48.334 -7.33398 89.001 -44.001s140.667 -139.667 300 -309zM44.999 1365
l-0.00195312 40.998h1204l21 -307h-41c-12.667 75.333 -37 132.333 -73 171s-104.667 58 -206 58h-323c-72.667 3.33301 -117 -2.66699 -133 -18s-22.333 -58.333 -19 -129v-324c-1.33301 -32 2.83398 -53.833 12.501 -65.5s34.167 -17.167 73.5 -16.5h316
c89.333 0 148.333 16.167 177 48.5s44.667 83.166 48 152.499h37v-488h-37c-0.666992 62.667 -15.167 112.834 -43.5 150.501s-88.833 57.167 -181.5 58.5h-316c-41.333 1.33301 -66.5 -3.66699 -75.5 -15s-12.5 -37.666 -10.5 -78.999v-389
c-4 -59.333 4.66699 -97.166 26 -113.499s78.333 -23.5 171 -21.5h266c109.333 -3.33301 193.666 13.167 252.999 49.5s113 111.166 161 224.499l37 -12l-107 -341h-1237v38c69.333 -0.666992 121.5 10 156.5 32s52.5 59 52.5 111v1037
c0.666992 50.667 -15.166 87.834 -47.499 111.501s-86.166 35.5 -161.499 35.5z" />
    <glyph glyph-name="Eacute" unicode="&#xc9;" horiz-adv-x="1421" 
d="M45 1406l1204 -0.00195312l21 -307h-41c-12.667 75.333 -37 132.333 -73 171s-104.667 58 -206 58h-323c-72.667 3.33301 -117 -2.66699 -133 -18s-22.333 -58.333 -19 -129v-324c-1.33301 -32 2.83398 -53.833 12.501 -65.5s34.167 -17.167 73.5 -16.5h316
c89.333 0 148.333 16.167 177 48.5s44.667 83.166 48 152.499h37v-488h-37c-0.666992 62.667 -15.167 112.834 -43.5 150.501s-88.833 57.167 -181.5 58.5h-316c-41.333 1.33301 -66.5 -3.66699 -75.5 -15s-12.5 -37.666 -10.5 -78.999v-389
c-4 -59.333 4.66699 -97.166 26 -113.499s78.333 -23.5 171 -21.5h266c109.333 -3.33301 193.666 13.167 252.999 49.5s113 111.166 161 224.499l37 -12l-107 -341h-1237v38c69.333 -0.666992 121.5 10 156.5 32s52.5 59 52.5 111v1037
c0.666992 50.667 -15.166 87.834 -47.499 111.501s-86.166 35.5 -161.499 35.5v41zM908.998 1902c22.667 -0.666992 39.333 -7.16699 50 -19.5s16 -27.833 16 -46.5c8 -18.667 -8.16699 -42.834 -48.5 -72.501s-153.833 -101.167 -340.5 -214.5h-66
c160 169.333 260.167 272.333 300.5 309s69.833 51.334 88.5 44.001z" />
    <glyph glyph-name="Ecircumflex" unicode="&#xca;" horiz-adv-x="1421" 
d="M45 1406l1204 -0.00195312l21 -307h-41c-12.667 75.333 -37 132.333 -73 171s-104.667 58 -206 58h-323c-72.667 3.33301 -117 -2.66699 -133 -18s-22.333 -58.333 -19 -129v-324c-1.33301 -32 2.83398 -53.833 12.501 -65.5s34.167 -17.167 73.5 -16.5h316
c89.333 0 148.333 16.167 177 48.5s44.667 83.166 48 152.499h37v-488h-37c-0.666992 62.667 -15.167 112.834 -43.5 150.501s-88.833 57.167 -181.5 58.5h-316c-41.333 1.33301 -66.5 -3.66699 -75.5 -15s-12.5 -37.666 -10.5 -78.999v-389
c-4 -59.333 4.66699 -97.166 26 -113.499s78.333 -23.5 171 -21.5h266c109.333 -3.33301 193.666 13.167 252.999 49.5s113 111.166 161 224.499l37 -12l-107 -341h-1237v38c69.333 -0.666992 121.5 10 156.5 32s52.5 59 52.5 111v1037
c0.666992 50.667 -15.166 87.834 -47.499 111.501s-86.166 35.5 -161.499 35.5v41zM929.998 1549l-230 209l-233 -209h-57l229 344h119l229 -344h-57z" />
    <glyph glyph-name="Edieresis" unicode="&#xcb;" horiz-adv-x="1421" 
d="M45 1406l1204 -0.00195312l21 -307h-41c-12.667 75.333 -37 132.333 -73 171s-104.667 58 -206 58h-323c-72.667 3.33301 -117 -2.66699 -133 -18s-22.333 -58.333 -19 -129v-324c-1.33301 -32 2.83398 -53.833 12.501 -65.5s34.167 -17.167 73.5 -16.5h316
c89.333 0 148.333 16.167 177 48.5s44.667 83.166 48 152.499h37v-488h-37c-0.666992 62.667 -15.167 112.834 -43.5 150.501s-88.833 57.167 -181.5 58.5h-316c-41.333 1.33301 -66.5 -3.66699 -75.5 -15s-12.5 -37.666 -10.5 -78.999v-389
c-4 -59.333 4.66699 -97.166 26 -113.499s78.333 -23.5 171 -21.5h266c109.333 -3.33301 193.666 13.167 252.999 49.5s113 111.166 161 224.499l37 -12l-107 -341h-1237v38c69.333 -0.666992 121.5 10 156.5 32s52.5 59 52.5 111v1037
c0.666992 50.667 -15.166 87.834 -47.499 111.501s-86.166 35.5 -161.499 35.5v41zM523.998 1603c-32.667 1.33301 -57.167 12 -73.5 32s-24.5 42 -24.5 66s8.66699 46 26 66s41.333 30.667 72 32c31.333 -1.33301 54.833 -12.5 70.5 -33.5s23.5 -42.5 23.5 -64.5
s-7.5 -43.5 -22.5 -64.5s-38.833 -32.167 -71.5 -33.5zM871.998 1603c-32.667 1.33301 -57.167 12 -73.5 32s-24.5 42 -24.5 66s8.66699 46 26 66s41.333 30.667 72 32c31.333 -1.33301 55 -12.5 71 -33.5s24 -42.5 24 -64.5s-7.66699 -43.5 -23 -64.5
s-39.333 -32.167 -72 -33.5z" />
    <glyph glyph-name="Igrave" unicode="&#xcc;" horiz-adv-x="778" 
d="M709 1365c-86 0 -143 -16.833 -171 -50.5s-40.667 -85.167 -38 -154.5v-950c-1.33301 -57.333 13.5 -100.333 44.5 -129s85.833 -43 164.5 -43v-38h-639v38c82 0 137.833 13.833 167.5 41.5s43.5 71.167 41.5 130.5v950c3.33301 64 -7 114 -31 150
s-83.333 54.333 -178 55v41h639v-41zM172 1902c18.667 7.33301 48.167 -7.33398 88.5 -44.001s140.5 -139.667 300.5 -309h-65c-186.667 113.333 -300.334 184.833 -341.001 214.5s-57 53.834 -49 72.501c0 18.667 5.33301 34.167 16 46.5s27.334 18.833 50.001 19.5z" />
    <glyph glyph-name="Iacute" unicode="&#xcd;" horiz-adv-x="778" 
d="M500 1160v-950c-1.33301 -57.333 13.5 -100.333 44.5 -129s85.833 -43 164.5 -43v-38h-639v38c82 0 137.833 13.833 167.5 41.5s43.5 71.167 41.5 130.5v950c3.33301 64 -7 114 -31 150s-83.333 54.333 -178 55v41h639v-41c-86 0 -143 -16.833 -171 -50.5
s-40.667 -85.167 -38 -154.5zM598 1902c22.667 -0.666992 39.334 -7.16699 50.001 -19.5s16 -27.833 16 -46.5c8 -18.667 -8.33301 -42.834 -49 -72.501s-154.334 -101.167 -341.001 -214.5h-65c160 169.333 260.167 272.333 300.5 309s69.833 51.334 88.5 44.001z" />
    <glyph glyph-name="Icircumflex" unicode="&#xce;" horiz-adv-x="778" 
d="M500 1160v-950c-1.33301 -57.333 13.5 -100.333 44.5 -129s85.833 -43 164.5 -43v-38h-639v38c82 0 137.833 13.833 167.5 41.5s43.5 71.167 41.5 130.5v950c3.33301 64 -7 114 -31 150s-83.333 54.333 -178 55v41h639v-41c-86 0 -143 -16.833 -171 -50.5
s-40.667 -85.167 -38 -154.5zM618 1549l-229 209l-233 -209h-58l230 344h118l230 -344h-58z" />
    <glyph glyph-name="Idieresis" unicode="&#xcf;" horiz-adv-x="778" 
d="M500 1160v-950c-1.33301 -57.333 13.5 -100.333 44.5 -129s85.833 -43 164.5 -43v-38h-639v38c82 0 137.833 13.833 167.5 41.5s43.5 71.167 41.5 130.5v950c3.33301 64 -7 114 -31 150s-83.333 54.333 -178 55v41h639v-41c-86 0 -143 -16.833 -171 -50.5
s-40.667 -85.167 -38 -154.5zM213 1603c-32.667 1.33301 -57.167 12 -73.5 32s-24.5 42 -24.5 66s8.66699 46 26 66s41.333 30.667 72 32c30.667 -1.33301 54 -12.5 70 -33.5s24 -42.5 24 -64.5s-7.5 -43.5 -22.5 -64.5s-38.833 -32.167 -71.5 -33.5zM561 1603
c-32.667 1.33301 -57.167 12 -73.5 32s-24.5 42 -24.5 66s8.66699 46 26 66s41.333 30.667 72 32c31.333 -1.33301 54.833 -12.5 70.5 -33.5s23.5 -42.5 23.5 -64.5s-7.5 -43.5 -22.5 -64.5s-38.833 -32.167 -71.5 -33.5z" />
    <glyph glyph-name="Eth" unicode="&#xd0;" horiz-adv-x="1647" 
d="M1315 693c2 184.667 -50.498 336.999 -157.498 456.999s-281.167 182 -522.5 186c-60 0.666992 -101.333 -9.16602 -124 -29.499s-33.334 -52.833 -32.001 -97.5v-454h414v-70h-414v-450c-2.66699 -62.667 6.16602 -106 26.499 -130s68.833 -35.333 145.5 -34
c208.667 2 371 58 487 168s175 261.333 177 454zM49.002 1406l720.998 0.00195312c226 -0.666992 411 -60 555 -178s218.333 -290.667 223 -518c-3.33301 -220 -78 -392.667 -224 -518s-345.667 -189.333 -599 -192h-676v38c76.667 -0.666992 131 11.5 163 36.5
s47.333 68.833 46 131.5v479h-258v70h258v450c0.666992 57.333 -15.166 99.166 -47.499 125.499s-86.166 39.166 -161.499 38.499v37z" />
    <glyph glyph-name="Ntilde" unicode="&#xd1;" horiz-adv-x="1569" 
d="M1036 1369l-0.00195312 41.0029h508v-41c-73.333 0.666992 -126.666 -11.833 -159.999 -37.5s-49.666 -67.834 -48.999 -126.501v-1204h-41l-954 1139v-926c0 -64.667 16.833 -109.834 50.5 -135.501s85.167 -37.834 154.5 -36.501v-41h-508v41
c80.667 0 136 13.833 166 41.5s44.333 71.167 43 130.5v1012c-26 42 -55.667 76.167 -89 102.5s-73.333 39.833 -120 40.5v41h364l840 -1008v803c0.666992 53.333 -14.5 94 -45.5 122s-84.167 42 -159.5 42zM548.998 1598l-49.002 -0.000976562
c10 60.667 30.167 109.667 60.5 147s72.833 56.666 127.5 57.999c44 -2 87 -9.5 129 -22.5s77 -20.5 105 -22.5c28 0.666992 48.667 8.33398 62 23.001s24 34.334 32 59.001h49c-10 -56 -30.167 -102.333 -60.5 -139s-75.833 -55.667 -136.5 -57
c-43.333 2 -84.166 9.5 -122.499 22.5s-71.166 20.5 -98.499 22.5c-24 0 -43.833 -7.5 -59.5 -22.5s-28.5 -37.833 -38.5 -68.5z" />
    <glyph glyph-name="Ograve" unicode="&#xd2;" horiz-adv-x="1651" 
d="M94 640v127.001c-0.666992 155.333 58.5 303.666 177.5 444.999s302.833 217 551.5 227c245.333 -9.33301 428.333 -83.5 549 -222.5s180.667 -288.833 180 -449.5v-94c0 -183.333 -60.833 -344.166 -182.5 -482.499s-306.5 -211.5 -554.5 -219.5
c-236 9.33301 -415 82.166 -537 218.499s-183.333 286.5 -184 450.5zM823 1365c-190.667 -12 -321.169 -91.168 -391.502 -237.501s-103.5 -289.833 -99.5 -430.5c-3.33301 -145.333 31.334 -288.166 104.001 -428.499s201.667 -215.833 387 -226.5
c178.667 8.66699 305.834 80.5 381.501 215.5s112.5 281.5 110.5 439.5c3.33301 150 -31 296.167 -103 438.5s-201.667 218.833 -389 229.5zM609.998 1902c18.667 7.33301 48.333 -7.33398 89 -44.001s140.667 -139.667 300 -309h-65
c-186.667 113.333 -300.167 184.833 -340.5 214.5s-56.5 53.834 -48.5 72.501c0 18.667 5.16699 34.167 15.5 46.5s26.833 18.833 49.5 19.5z" />
    <glyph glyph-name="Oacute" unicode="&#xd3;" horiz-adv-x="1651" 
d="M94 640v127.001c-0.666992 155.333 58.5 303.666 177.5 444.999s302.833 217 551.5 227c245.333 -9.33301 428.333 -83.5 549 -222.5s180.667 -288.833 180 -449.5v-94c0 -183.333 -60.833 -344.166 -182.5 -482.499s-306.5 -211.5 -554.5 -219.5
c-236 9.33301 -415 82.166 -537 218.499s-183.333 286.5 -184 450.5zM823 1365c-190.667 -12 -321.169 -91.168 -391.502 -237.501s-103.5 -289.833 -99.5 -430.5c-3.33301 -145.333 31.334 -288.166 104.001 -428.499s201.667 -215.833 387 -226.5
c178.667 8.66699 305.834 80.5 381.501 215.5s112.5 281.5 110.5 439.5c3.33301 150 -31 296.167 -103 438.5s-201.667 218.833 -389 229.5zM1036 1902c22.667 -0.666992 39.333 -7.16699 50 -19.5s16 -27.833 16 -46.5c8 -18.667 -8.16699 -42.834 -48.5 -72.501
s-153.833 -101.167 -340.5 -214.5h-66c160 169.333 260.167 272.333 300.5 309s69.833 51.334 88.5 44.001z" />
    <glyph glyph-name="Ocircumflex" unicode="&#xd4;" horiz-adv-x="1651" 
d="M94 640v127.001c-0.666992 155.333 58.5 303.666 177.5 444.999s302.833 217 551.5 227c245.333 -9.33301 428.333 -83.5 549 -222.5s180.667 -288.833 180 -449.5v-94c0 -183.333 -60.833 -344.166 -182.5 -482.499s-306.5 -211.5 -554.5 -219.5
c-236 9.33301 -415 82.166 -537 218.499s-183.333 286.5 -184 450.5zM823 1365c-190.667 -12 -321.169 -91.168 -391.502 -237.501s-103.5 -289.833 -99.5 -430.5c-3.33301 -145.333 31.334 -288.166 104.001 -428.499s201.667 -215.833 387 -226.5
c178.667 8.66699 305.834 80.5 381.501 215.5s112.5 281.5 110.5 439.5c3.33301 150 -31 296.167 -103 438.5s-201.667 218.833 -389 229.5zM1057 1549l-230 209l-233 -209h-57l229 344h119l229 -344h-57z" />
    <glyph glyph-name="Otilde" unicode="&#xd5;" horiz-adv-x="1651" 
d="M590 1598l-49 -0.000976562c9.33301 60.667 29.166 109.667 59.499 147s73.166 56.666 128.499 57.999c44 -2 87 -9.5 129 -22.5s77 -20.5 105 -22.5c28 0.666992 48.667 8.33398 62 23.001s24 34.334 32 59.001h49c-10 -56 -30.167 -102.333 -60.5 -139
s-75.833 -55.667 -136.5 -57c-43.333 2 -84.166 9.5 -122.499 22.5s-71.166 20.5 -98.499 22.5c-24 0 -43.833 -7.5 -59.5 -22.5s-28.5 -37.833 -38.5 -68.5zM815 -29.001c-236 9.33301 -415 82.167 -537 218.5s-183.333 286.5 -184 450.5v127
c-0.666992 155.333 58.5 303.666 177.5 444.999s302.833 217 551.5 227c245.333 -9.33301 428.333 -83.5 549 -222.5s180.667 -288.833 180 -449.5v-94c0 -183.333 -60.833 -344.166 -182.5 -482.499s-306.5 -211.5 -554.5 -219.5zM823 1365
c-190.667 -12 -321.169 -91.168 -391.502 -237.501s-103.5 -289.833 -99.5 -430.5c-3.33301 -145.333 31.334 -288.166 104.001 -428.499s201.667 -215.833 387 -226.5c178.667 8.66699 305.834 80.5 381.501 215.5s112.5 281.5 110.5 439.5
c3.33301 150 -31 296.167 -103 438.5s-201.667 218.833 -389 229.5z" />
    <glyph glyph-name="Odieresis" unicode="&#xd6;" horiz-adv-x="1651" 
d="M94 640v127.001c-0.666992 155.333 58.5 303.666 177.5 444.999s302.833 217 551.5 227c245.333 -9.33301 428.333 -83.5 549 -222.5s180.667 -288.833 180 -449.5v-94c0 -183.333 -60.833 -344.166 -182.5 -482.499s-306.5 -211.5 -554.5 -219.5
c-236 9.33301 -415 82.166 -537 218.499s-183.333 286.5 -184 450.5zM332 697.001c-3.33301 -145.333 31.332 -288.167 103.999 -428.5s201.667 -215.833 387 -226.5c178.667 8.66699 305.834 80.5 381.501 215.5s112.5 281.5 110.5 439.5
c3.33301 150 -31 296.167 -103 438.5s-201.667 218.833 -389 229.5c-190.667 -12 -321.167 -91.167 -391.5 -237.5s-103.5 -289.833 -99.5 -430.5zM744.998 1701c0 -22 -7.5 -43.5 -22.5 -64.5s-38.833 -32.167 -71.5 -33.5c-32.667 1.33301 -57.167 12 -73.5 32
s-24.5 42 -24.5 66s8.66699 46 26 66s41.333 30.667 72 32c31.333 -1.33301 54.833 -12.5 70.5 -33.5s23.5 -42.5 23.5 -64.5zM998.998 1603c-32.667 1.33301 -57.167 12 -73.5 32s-24.5 42 -24.5 66s8.66699 46 26 66s41.333 30.667 72 32
c31.333 -1.33301 55 -12.5 71 -33.5s24 -42.5 24 -64.5s-7.66699 -43.5 -23 -64.5s-39.333 -32.167 -72 -33.5z" />
    <glyph glyph-name="multiply" unicode="&#xd7;" horiz-adv-x="1700" 
d="M385 1168l471 -471l471 471l94 -94l-471 -471l471 -471l-94 -94l-471 471l-471 -471l-94 94l471 471l-471 471z" />
    <glyph glyph-name="Oslash" unicode="&#xd8;" horiz-adv-x="1651" 
d="M1130 1242c-36 35.333 -76.333 63.833 -121 85.5s-110.667 32.834 -198 33.501c-172.667 -9.33301 -298.167 -83.333 -376.5 -222s-116.833 -287.334 -115.5 -446.001c0 -104 11 -190.333 33 -259s53.333 -133.667 94 -195zM94 701
c-1.33301 192 56.8301 359.832 174.497 503.499s303.834 219.167 558.501 226.5c84 -0.666992 154.167 -9.5 210.5 -26.5s109.166 -38.5 158.499 -64.5l147 213h111l-176 -258c102.667 -74.667 174.334 -163.5 215.001 -266.5s60.334 -213.5 59.001 -331.5
c-1.33301 -213.333 -65.666 -387.666 -192.999 -522.999s-308.666 -205.666 -543.999 -210.999c-82.667 0.666992 -153.334 8.66699 -212.001 24s-115 37.666 -169 66.999l-155 -222h-115l192 276c-88 72 -153.667 155.5 -197 250.5s-65 209.167 -65 342.5zM822.996 33.999
c173.333 8 300.834 78.5 382.501 211.5s122.167 282.167 121.5 447.5c1.33301 104 -6.83398 192.333 -24.501 265s-54.5 142.667 -110.5 210l-684 -1003c42 -43.333 87.5 -76 136.5 -98s108.5 -33 178.5 -33z" />
    <glyph glyph-name="Ugrave" unicode="&#xd9;" horiz-adv-x="1675" 
d="M1126 1365l0.00292969 40.999h492v-41c-68.667 -1.33301 -116.834 -20 -144.501 -56s-40.834 -81.333 -39.501 -136v-664c-0.666992 -166.667 -51.334 -299.167 -152.001 -397.5s-246.667 -149.166 -438 -152.499c-191.333 1.33301 -337.333 43.666 -438 126.999
s-151.334 202.333 -152.001 357v660c4.66699 73.333 -4 134.833 -26 184.5s-83 75.5 -183 77.5v41h627v-41c-92.667 -1.33301 -149.667 -22.666 -171 -63.999s-30 -96.333 -26 -165v-639c-2 -124.667 28.5 -229.5 91.5 -314.5s169.167 -129.167 318.5 -132.5
c146 3.33301 257.333 48 334 134s115.334 193 116.001 321v659c2 66 -11.833 116 -41.5 150s-85.5 51 -167.5 51zM664.003 1902c18.667 7.33301 48.166 -7.33398 88.499 -44.001s140.5 -139.667 300.5 -309h-66c-186.667 113.333 -300.167 184.833 -340.5 214.5
s-56.5 53.834 -48.5 72.501c0 18.667 5.33301 34.167 16 46.5s27.334 18.833 50.001 19.5z" />
    <glyph glyph-name="Uacute" unicode="&#xda;" horiz-adv-x="1675" 
d="M1126 1365l0.00292969 40.999h492v-41c-68.667 -1.33301 -116.834 -20 -144.501 -56s-40.834 -81.333 -39.501 -136v-664c-0.666992 -166.667 -51.334 -299.167 -152.001 -397.5s-246.667 -149.166 -438 -152.499c-191.333 1.33301 -337.333 43.666 -438 126.999
s-151.334 202.333 -152.001 357v660c4.66699 73.333 -4 134.833 -26 184.5s-83 75.5 -183 77.5v41h627v-41c-92.667 -1.33301 -149.667 -22.666 -171 -63.999s-30 -96.333 -26 -165v-639c-2 -124.667 28.5 -229.5 91.5 -314.5s169.167 -129.167 318.5 -132.5
c146 3.33301 257.333 48 334 134s115.334 193 116.001 321v659c2 66 -11.833 116 -41.5 150s-85.5 51 -167.5 51zM1090 1902c22.667 -0.666992 39.166 -7.16699 49.499 -19.5s15.5 -27.833 15.5 -46.5c8 -18.667 -8.16699 -42.834 -48.5 -72.501
s-153.833 -101.167 -340.5 -214.5h-66c160 169.333 260.333 272.333 301 309s70.334 51.334 89.001 44.001z" />
    <glyph glyph-name="Ucircumflex" unicode="&#xdb;" horiz-adv-x="1675" 
d="M1126 1365l0.00292969 40.999h492v-41c-68.667 -1.33301 -116.834 -20 -144.501 -56s-40.834 -81.333 -39.501 -136v-664c-0.666992 -166.667 -51.334 -299.167 -152.001 -397.5s-246.667 -149.166 -438 -152.499c-191.333 1.33301 -337.333 43.666 -438 126.999
s-151.334 202.333 -152.001 357v660c4.66699 73.333 -4 134.833 -26 184.5s-83 75.5 -183 77.5v41h627v-41c-92.667 -1.33301 -149.667 -22.666 -171 -63.999s-30 -96.333 -26 -165v-639c-2 -124.667 28.5 -229.5 91.5 -314.5s169.167 -129.167 318.5 -132.5
c146 3.33301 257.333 48 334 134s115.334 193 116.001 321v659c2 66 -11.833 116 -41.5 150s-85.5 51 -167.5 51zM1110 1549l-229 209l-234 -209h-57l229 344h119l229 -344h-57z" />
    <glyph glyph-name="Udieresis" unicode="&#xdc;" horiz-adv-x="1675" 
d="M1126 1365l0.00292969 40.999h492v-41c-68.667 -1.33301 -116.834 -20 -144.501 -56s-40.834 -81.333 -39.501 -136v-664c-0.666992 -166.667 -51.334 -299.167 -152.001 -397.5s-246.667 -149.166 -438 -152.499c-191.333 1.33301 -337.333 43.666 -438 126.999
s-151.334 202.333 -152.001 357v660c4.66699 73.333 -4 134.833 -26 184.5s-83 75.5 -183 77.5v41h627v-41c-92.667 -1.33301 -149.667 -22.666 -171 -63.999s-30 -96.333 -26 -165v-639c-2 -124.667 28.5 -229.5 91.5 -314.5s169.167 -129.167 318.5 -132.5
c146 3.33301 257.333 48 334 134s115.334 193 116.001 321v659c2 66 -11.833 116 -41.5 150s-85.5 51 -167.5 51zM799.003 1701c0 -22 -7.49805 -43.5 -22.498 -64.5s-38.833 -32.167 -71.5 -33.5c-32.667 1.33301 -57.334 12 -74.001 32s-25 42 -25 66s8.66699 46 26 66
s41.666 30.667 72.999 32c30.667 -1.33301 54 -12.5 70 -33.5s24 -42.5 24 -64.5zM1053 1603c-32.667 1.33301 -57.332 12 -73.999 32s-25 42 -25 66s8.66699 46 26 66s41.666 30.667 72.999 32c30.667 -1.33301 54 -12.5 70 -33.5s24 -42.5 24 -64.5
s-7.5 -43.5 -22.5 -64.5s-38.833 -32.167 -71.5 -33.5z" />
    <glyph glyph-name="Yacute" unicode="&#xdd;" horiz-adv-x="1565" 
d="M1094 1365l0.00292969 41h438v-41c-56.667 6 -115.334 -28.167 -176.001 -102.5s-201.334 -285.833 -422.001 -634.5v-422c-1.33301 -62.667 14 -106.5 46 -131.5s86.333 -37.167 163 -36.5v-38h-639v38c78.667 0 133.5 13.833 164.5 41.5s45.833 71.167 44.5 130.5v393
l-302.5 427.5c-71.667 103 -126.667 177.333 -165 223s-72.166 75 -101.499 88s-66.333 20.833 -111 23.5v41h647v-41c-67.333 -4.66699 -112 -13.334 -134 -26.001s-32 -27.334 -30 -44.001c0 -13.333 14.667 -43.166 44 -89.499s64.833 -99.666 106.5 -159.999l125 -176.5
l101.5 -143l94 145.5l117.5 180.5c40.333 61.333 74.166 114.833 101.499 160.5s41.666 74.5 42.999 86.5c-0.666992 17.333 -15.167 32.5 -43.5 45.5s-65.5 19.833 -111.5 20.5zM995.003 1902c22.667 -0.666992 39.333 -7.16699 50 -19.5s16 -27.833 16 -46.5
c8 -18.667 -8.16699 -42.834 -48.5 -72.501s-153.833 -101.167 -340.5 -214.5h-66c160 169.333 260.167 272.333 300.5 309s69.833 51.334 88.5 44.001z" />
    <glyph glyph-name="Thorn" unicode="&#xde;" horiz-adv-x="1225" 
d="M53 0l0.00195312 42c94.667 0.666992 153.5 19.167 176.5 55.5s32.5 87.5 28.5 153.5v954c0.666992 60.667 -14.5 102.834 -45.5 126.501s-84.167 34.834 -159.5 33.501v41h623v-41c-82 1.33301 -137.167 -9.5 -165.5 -32.5s-41.5 -65.5 -39.5 -127.5v-82
c-0.666992 -12 3.16602 -21.167 11.499 -27.5s23.5 -9.5 45.5 -9.5h160c146.667 -1.33301 261.5 -32 344.5 -92s125.167 -139.667 126.5 -239c-0.666992 -124.667 -42.834 -217.334 -126.501 -278.001s-206.5 -91 -368.5 -91h-119c-26 0 -44.833 -2.5 -56.5 -7.5
s-17.5 -13.5 -17.5 -25.5v-127c-2.66699 -59.333 8.5 -105.333 33.5 -138s82.167 -49.334 171.5 -50.001v-38h-623zM582.002 1017c-42 0 -71.1699 -3.66895 -87.5029 -11.002s-24.166 -20 -23.499 -38v-463c0 -20 7 -34 21 -42s37 -11.667 69 -11
c124.667 0.666992 217.334 25.834 278.001 75.501s91 119.834 91 210.501c0.666992 86.667 -26.666 154.667 -81.999 204s-144 74.333 -266 75z" />
    <glyph glyph-name="germandbls" unicode="&#xdf;" horiz-adv-x="1122" 
d="M324 0l-307.998 -0.00195312v38c54 0.666992 89.667 15 107 43s25.333 67 24 117v839c0 120 32.167 220.167 96.5 300.5s162.166 122.166 293.499 125.499c130.667 -1.33301 228.167 -29.333 292.5 -84s96.5 -127.667 96.5 -219c0 -86.667 -24.667 -160.167 -74 -220.5
s-123 -104.166 -221 -131.499c131.333 -13.333 229.666 -52.833 294.999 -118.5s98 -150.5 98 -254.5c0.666992 -114 -31.666 -217.667 -96.999 -311s-168.333 -143 -309 -149c-62 1.33301 -111.833 16.333 -149.5 45s-57.167 68.667 -58.5 120
c0.666992 25.333 9 46.5 25 63.5s37.667 25.833 65 26.5c72.667 -8 107 -40 103 -96s20.333 -88 73 -96c58.667 6 100.167 44 124.5 114s36.166 138.333 35.499 205c3.33301 108.667 -20 203.167 -70 283.5s-147 122.5 -291 126.5v57c102.667 3.33301 173.167 34 211.5 92
s56.5 124.333 54.5 199c1.33301 60.667 -13 123 -43 187s-85.333 98.667 -166 104c-82 -3.33301 -137.667 -35.166 -167 -95.499s-43 -128.166 -41 -203.499v-1107z" />
    <glyph glyph-name="agrave" unicode="&#xe0;" horiz-adv-x="1004" 
d="M807 157c0 -19.333 5.16504 -35.667 15.498 -49s26.833 -20.333 49.5 -21c12.667 0.666992 26.167 5 40.5 13s26.833 17.333 37.5 28l25 -25c-14 -28.667 -40.667 -56.5 -80 -83.5s-82.333 -41.833 -129 -44.5c-37.333 2 -67.666 16.5 -90.999 43.5
s-35.333 56.833 -36 89.5c-48.667 -39.333 -98.667 -71 -150 -95s-106.333 -36.667 -165 -38c-79.333 2.66699 -137.666 26.334 -174.999 71.001s-55.666 100.667 -54.999 168c0 90 44.667 162.833 134 218.5s225 116.5 407 182.5v144c0.666992 50 -11.5 91.5 -36.5 124.5
s-68.833 50.167 -131.5 51.5c-40.667 -0.666992 -77 -11.834 -109 -33.501s-49 -47.5 -51 -77.5l12 -57c0 -27.333 -7.66699 -51 -23 -71s-40.333 -30.333 -75 -31c-26.667 0.666992 -48.167 10.5 -64.5 29.5s-24.833 43.167 -25.5 72.5
c3.33301 59.333 39.166 109.166 107.499 149.499s147.166 61.5 236.499 63.5c105.333 -2 186.833 -26.167 244.5 -72.5s86.834 -104.166 87.501 -173.499v-577zM265.998 258.999c0.666992 -50.667 16 -94.167 46 -130.5s70.667 -55.5 122 -57.5
c48 2.66699 92.833 18 134.5 46s63.834 53.667 66.501 77v360c-106.667 -36 -194.334 -76.667 -263.001 -122s-104 -103 -106 -173zM269.998 1447c18.667 7.33301 48.333 -7.33398 89 -44.001s140.667 -139.334 300 -308.001h-65
c-186.667 112.667 -300.167 183.834 -340.5 213.501s-56.5 53.834 -48.5 72.501c0 18.667 5.16699 34.167 15.5 46.5s26.833 18.833 49.5 19.5z" />
    <glyph glyph-name="aacute" unicode="&#xe1;" horiz-adv-x="1004" 
d="M434 71c48 2.66699 92.833 18 134.5 46s63.834 53.667 66.501 77v360c-106.667 -36 -194.334 -76.667 -263.001 -122s-104 -103 -106 -173c0.666992 -50.667 16 -94.167 46 -130.5s70.667 -55.5 122 -57.5zM131 767c3.33301 59.333 39.1641 109.165 107.497 149.498
s147.166 61.5 236.499 63.5c105.333 -2 186.833 -26.167 244.5 -72.5s86.834 -104.166 87.501 -173.499v-577c0 -19.333 5.16699 -35.666 15.5 -48.999s26.833 -20.333 49.5 -21c12.667 0.666992 26.167 5 40.5 13s26.833 17.333 37.5 28l25 -25
c-14 -28.667 -40.667 -56.5 -80 -83.5s-82.333 -41.833 -129 -44.5c-37.333 2 -67.666 16.5 -90.999 43.5s-35.333 56.833 -36 89.5c-48.667 -39.333 -98.667 -71 -150 -95s-106.333 -36.667 -165 -38c-79.333 2.66699 -137.666 26.334 -174.999 71.001
s-55.666 100.667 -54.999 168c0 90 44.667 162.833 134 218.5s225 116.5 407 182.5v144c0.666992 50 -11.5 91.5 -36.5 124.5s-68.833 50.167 -131.5 51.5c-40.667 -0.666992 -77 -11.834 -109 -33.501s-49 -47.5 -51 -77.5l12 -57c0 -27.333 -7.66699 -51 -23 -71
s-40.333 -30.333 -75 -31c-26.667 0.666992 -48.167 10.5 -64.5 29.5s-24.833 43.167 -25.5 72.5zM695.998 1447c22.667 -0.666992 39.333 -7.16699 50 -19.5s16 -27.833 16 -46.5c8 -18.667 -8.16699 -42.834 -48.5 -72.501s-153.833 -100.834 -340.5 -213.501h-66
c160 168.667 260.167 271.334 300.5 308.001s69.833 51.334 88.5 44.001z" />
    <glyph glyph-name="acircumflex" unicode="&#xe2;" horiz-adv-x="1004" 
d="M807 157c0 -19.333 5.16504 -35.667 15.498 -49s26.833 -20.333 49.5 -21c12.667 0.666992 26.167 5 40.5 13s26.833 17.333 37.5 28l25 -25c-14 -28.667 -40.667 -56.5 -80 -83.5s-82.333 -41.833 -129 -44.5c-37.333 2 -67.666 16.5 -90.999 43.5
s-35.333 56.833 -36 89.5c-48.667 -39.333 -98.667 -71 -150 -95s-106.333 -36.667 -165 -38c-79.333 2.66699 -137.666 26.334 -174.999 71.001s-55.666 100.667 -54.999 168c0 90 44.667 162.833 134 218.5s225 116.5 407 182.5v144c0.666992 50 -11.5 91.5 -36.5 124.5
s-68.833 50.167 -131.5 51.5c-40.667 -0.666992 -77 -11.834 -109 -33.501s-49 -47.5 -51 -77.5l12 -57c0 -27.333 -7.66699 -51 -23 -71s-40.333 -30.333 -75 -31c-26.667 0.666992 -48.167 10.5 -64.5 29.5s-24.833 43.167 -25.5 72.5
c3.33301 59.333 39.166 109.166 107.499 149.499s147.166 61.5 236.499 63.5c105.333 -2 186.833 -26.167 244.5 -72.5s86.834 -104.166 87.501 -173.499v-577zM433.998 70.999c48 2.66699 92.833 18 134.5 46s63.834 53.667 66.501 77v360
c-106.667 -36 -194.334 -76.667 -263.001 -122s-104 -103 -106 -173c0.666992 -50.667 16 -94.167 46 -130.5s70.667 -55.5 122 -57.5zM716.998 1095l-230 209l-233 -209h-57l229 344h119l229 -344h-57z" />
    <glyph glyph-name="atilde" unicode="&#xe3;" horiz-adv-x="1004" 
d="M635 554c-106.667 -36 -194.334 -76.667 -263.001 -122s-104 -103 -106 -173c0.666992 -50.667 16 -94.167 46 -130.5s70.667 -55.5 122 -57.5c48 2.66699 92.833 18 134.5 46s63.834 53.667 66.501 77v360zM221 665c-26.667 0.666992 -48.1689 10.499 -64.502 29.499
s-24.833 43.167 -25.5 72.5c3.33301 59.333 39.166 109.166 107.499 149.499s147.166 61.5 236.499 63.5c105.333 -2 186.833 -26.167 244.5 -72.5s86.834 -104.166 87.501 -173.499v-577c0 -19.333 5.16699 -35.666 15.5 -48.999s26.833 -20.333 49.5 -21
c12.667 0.666992 26.167 5 40.5 13s26.833 17.333 37.5 28l25 -25c-14 -28.667 -40.667 -56.5 -80 -83.5s-82.333 -41.833 -129 -44.5c-37.333 2 -67.666 16.5 -90.999 43.5s-35.333 56.833 -36 89.5c-48.667 -39.333 -98.667 -71 -150 -95s-106.333 -36.667 -165 -38
c-79.333 2.66699 -137.666 26.334 -174.999 71.001s-55.666 100.667 -54.999 168c0 90 44.667 162.833 134 218.5s225 116.5 407 182.5v144c0.666992 50 -11.5 91.5 -36.5 124.5s-68.833 50.167 -131.5 51.5c-40.667 -0.666992 -77 -11.834 -109 -33.501
s-49 -47.5 -51 -77.5l12 -57c0 -27.333 -7.66699 -51 -23 -71s-40.333 -30.333 -75 -31zM253.998 1144l-49.001 0.000976562c10 60.667 30.167 109.667 60.5 147s72.833 56.666 127.5 57.999c44 -2 87 -9.5 129 -22.5s77 -20.5 105 -22.5c28 0 48.833 7.33301 62.5 22
s24.167 34.334 31.5 59.001h49c-9.33301 -56 -29.333 -102.333 -60 -139s-76.334 -55.667 -137.001 -57c-43.333 2 -84.166 9.5 -122.499 22.5s-71.166 20.5 -98.499 22.5c-24 0 -43.833 -7.33301 -59.5 -22s-28.5 -37.334 -38.5 -68.001z" />
    <glyph glyph-name="adieresis" unicode="&#xe4;" horiz-adv-x="1004" 
d="M807 157c0 -19.333 5.16504 -35.667 15.498 -49s26.833 -20.333 49.5 -21c12.667 0.666992 26.167 5 40.5 13s26.833 17.333 37.5 28l25 -25c-14 -28.667 -40.667 -56.5 -80 -83.5s-82.333 -41.833 -129 -44.5c-37.333 2 -67.666 16.5 -90.999 43.5
s-35.333 56.833 -36 89.5c-48.667 -39.333 -98.667 -71 -150 -95s-106.333 -36.667 -165 -38c-79.333 2.66699 -137.666 26.334 -174.999 71.001s-55.666 100.667 -54.999 168c0 90 44.667 162.833 134 218.5s225 116.5 407 182.5v144c0.666992 50 -11.5 91.5 -36.5 124.5
s-68.833 50.167 -131.5 51.5c-40.667 -0.666992 -77 -11.834 -109 -33.501s-49 -47.5 -51 -77.5l12 -57c0 -27.333 -7.66699 -51 -23 -71s-40.333 -30.333 -75 -31c-26.667 0.666992 -48.167 10.5 -64.5 29.5s-24.833 43.167 -25.5 72.5
c3.33301 59.333 39.166 109.166 107.499 149.499s147.166 61.5 236.499 63.5c105.333 -2 186.833 -26.167 244.5 -72.5s86.834 -104.166 87.501 -173.499v-577zM265.998 258.999c0.666992 -50.667 16 -94.167 46 -130.5s70.667 -55.5 122 -57.5
c48 2.66699 92.833 18 134.5 46s63.834 53.667 66.501 77v360c-106.667 -36 -194.334 -76.667 -263.001 -122s-104 -103 -106 -173zM310.998 1148c-32.667 1.33301 -57.167 12 -73.5 32s-24.5 42 -24.5 66s8.66699 46.167 26 66.5s41.333 31.166 72 32.499
c31.333 -1.33301 55 -12.666 71 -33.999s24 -43 24 -65s-7.66699 -43.5 -23 -64.5s-39.333 -32.167 -72 -33.5zM560.998 1246c0 24 8.66699 46.167 26 66.5s41.333 31.166 72 32.499c31.333 -1.33301 55 -12.666 71 -33.999s24 -43 24 -65s-7.66699 -43.5 -23 -64.5
s-39.333 -32.167 -72 -33.5c-32.667 1.33301 -57.167 12 -73.5 32s-24.5 42 -24.5 66z" />
    <glyph glyph-name="aring" unicode="&#xe5;" horiz-adv-x="1004" 
d="M807 157c0 -19.333 5.16504 -35.667 15.498 -49s26.833 -20.333 49.5 -21c12.667 0.666992 26.167 5 40.5 13s26.833 17.333 37.5 28l25 -25c-14 -28.667 -40.667 -56.5 -80 -83.5s-82.333 -41.833 -129 -44.5c-37.333 2 -67.666 16.5 -90.999 43.5
s-35.333 56.833 -36 89.5c-48.667 -39.333 -98.667 -71 -150 -95s-106.333 -36.667 -165 -38c-79.333 2.66699 -137.666 26.334 -174.999 71.001s-55.666 100.667 -54.999 168c0 90 44.667 162.833 134 218.5s225 116.5 407 182.5v144c0.666992 50 -11.5 91.5 -36.5 124.5
s-68.833 50.167 -131.5 51.5c-40.667 -0.666992 -77 -11.834 -109 -33.501s-49 -47.5 -51 -77.5l12 -57c0 -27.333 -7.66699 -51 -23 -71s-40.333 -30.333 -75 -31c-26.667 0.666992 -48.167 10.5 -64.5 29.5s-24.833 43.167 -25.5 72.5
c3.33301 59.333 39.166 109.166 107.499 149.499s147.166 61.5 236.499 63.5c105.333 -2 186.833 -26.167 244.5 -72.5s86.834 -104.166 87.501 -173.499v-577zM433.998 70.999c48 2.66699 92.833 18 134.5 46s63.834 53.667 66.501 77v360
c-106.667 -36 -194.334 -76.667 -263.001 -122s-104 -103 -106 -173c0.666992 -50.667 16 -94.167 46 -130.5s70.667 -55.5 122 -57.5zM253.998 1316c2 67.333 25.333 123.166 70 167.499s100.667 67.5 168 69.5c67.333 -2 123.166 -25.167 167.499 -69.5
s67.5 -100.166 69.5 -167.499c-2 -67.333 -25.167 -123.333 -69.5 -168s-100.166 -68 -167.499 -70c-67.333 2 -123.333 25.333 -168 70s-68 100.667 -70 168zM335.998 1316c1.33301 -40.667 17.5 -76.5 48.5 -107.5s66.833 -47.167 107.5 -48.5
c40 1.33301 75.5 17.5 106.5 48.5s47.167 66.833 48.5 107.5c-1.33301 40.667 -17.5 76.5 -48.5 107.5s-66.5 47.167 -106.5 48.5c-40.667 -1.33301 -76.5 -17.5 -107.5 -48.5s-47.167 -66.833 -48.5 -107.5z" />
    <glyph glyph-name="ae" unicode="&#xe6;" horiz-adv-x="1569" 
d="M635 550c-131.333 -41.333 -225.333 -86.834 -282 -136.501s-84.334 -102.5 -83.001 -158.5c0 -47.333 14 -90.666 42 -129.999s68.667 -60.333 122 -63c44.667 1.33301 89.834 15.333 135.501 42s82.5 58 110.5 94c-16 46 -27.5 99.5 -34.5 160.5
s-10.5 124.833 -10.5 191.5zM131 758.999c3.33301 66.667 39.3369 119.328 108.004 157.995s148.667 58.334 240 59.001c79.333 -0.666992 142.166 -13.167 188.499 -37.5s80.5 -55.5 102.5 -93.5c43.333 46.667 91.166 80.834 143.499 102.501s108.166 32.5 167.499 32.5
c130 -5.33301 223.667 -47.833 281 -127.5s85.333 -164.167 84 -253.5h-660v-57c-1.33301 -90.667 25.5 -181.334 80.5 -272.001s144.5 -139.334 268.5 -146.001c44.667 -2.66699 96.167 11.333 154.5 42s115.833 91.667 172.5 183l37 -20
c-19.333 -36 -40.833 -73.667 -64.5 -113s-52.667 -77.166 -87 -113.499s-75.333 -66.333 -123 -90s-103.5 -36.167 -167.5 -37.5c-64.667 -1.33301 -124.334 8.66699 -179.001 30s-111 65 -169 131c-32 -35.333 -77.5 -70.166 -136.5 -104.499
s-135.167 -53.166 -228.5 -56.499c-85.333 2 -148.333 24 -189 66s-61 95.667 -61 161c0 60 16.833 111.167 50.5 153.5s77 78.5 130 108.5s111 56.333 174 79l186.5 64v99c2 72 -8 127.333 -30 166s-66.667 58.334 -134 59.001c-53.333 -1.33301 -94 -13.833 -122 -37.5
s-42 -49.5 -42 -77.5c0 -10 0.666992 -20.333 2 -31s2 -22 2 -34c-2 -36 -13 -60.167 -33 -72.5s-39 -18.166 -57 -17.499c-23.333 0 -44 8.16699 -62 24.5s-27.333 40.833 -28 73.5zM1040 918.993c-85.333 -5.33301 -148.333 -38.332 -189 -98.999
s-60.667 -115.334 -60 -164.001h417c10.667 0 19.5 3 26.5 9s10.5 14 10.5 24c2 44 -11.167 92.167 -39.5 144.5s-83.5 80.833 -165.5 85.5z" />
    <glyph glyph-name="ccedilla" unicode="&#xe7;" horiz-adv-x="897" 
d="M508 -25v-89.9961c12 0.666992 22.667 1.66699 32 3s19 1.66602 29 0.999023c59.333 0.666992 104.333 -12.666 135 -39.999s46 -67 46 -119c0.666992 -48 -16 -88.833 -50 -122.5s-88.333 -51.5 -163 -53.5c-49.333 0.666992 -98 7.66699 -146 21s-96.333 32 -145 56
l33 70c46 -22 88.5 -39 127.5 -51s70.167 -18.333 93.5 -19c35.333 0.666992 64.5 8 87.5 22s34.833 34 35.5 60c0 30.667 -9.5 56.167 -28.5 76.5s-45.167 30.5 -78.5 30.5c-12 0.666992 -23.833 0.166992 -35.5 -1.5s-21.5 -3.83398 -29.5 -6.50098v163
c-108 3.33301 -199.833 48.166 -275.5 134.499s-115.167 197.5 -118.5 333.5c0.666992 142.667 40.834 266.5 120.501 371.5s196.5 160.167 350.5 165.5c94 -1.33301 168.5 -21.666 223.5 -60.999s83.167 -88.666 84.5 -147.999c0 -27.333 -7.83301 -50.333 -23.5 -69
s-40.834 -28.334 -75.501 -29.001c-70.667 10 -106 50.167 -106 120.5s-46.333 110.5 -139 120.5c-88.667 -4.66699 -155.334 -45.334 -200.001 -122.001s-67 -161.334 -67 -254.001c-1.33301 -94.667 22.5 -185.834 71.5 -273.501s130.5 -134.5 244.5 -140.5
c74 1.33301 134.5 21 181.5 59s87.5 85.333 121.5 142l33 -21c-30 -72.667 -77.667 -141.5 -143 -206.5s-140.666 -105.833 -225.999 -122.5z" />
    <glyph glyph-name="egrave" unicode="&#xe8;" horiz-adv-x="1008" 
d="M74 472c1.33301 137.333 40.166 255.167 116.499 353.5s183.5 149.833 321.5 154.5c128.667 -4.66699 223.167 -45.5 283.5 -122.5s90.166 -161.833 89.499 -254.5h-660c-0.666992 -130.667 26.333 -241.5 81 -332.5s141 -138.5 259 -142.5
c85.333 2.66699 154.666 26.5 207.999 71.5s96 96.167 128 153.5l37 -16c-31.333 -77.333 -82.666 -155.333 -153.999 -234s-171.666 -121.334 -300.999 -128.001c-140.667 4.66699 -244.167 54.334 -310.5 149.001s-99.166 210.667 -98.499 348zM651 661.001
c14 0 23.168 4.50293 27.501 13.5029s6.16602 20.833 5.49902 35.5c2.66699 33.333 -10.333 75.166 -39 125.499s-86.667 78.166 -174 83.499c-65.333 -2.66699 -120.833 -29.334 -166.5 -80.001s-69.5 -110 -71.5 -178h418zM303.001 1447
c18.667 7.33301 48.167 -7.33398 88.5 -44.001s140.5 -139.334 300.5 -308.001h-65c-186.667 112.667 -300.167 183.834 -340.5 213.501s-56.5 53.834 -48.5 72.501c0 18.667 5.16699 34.167 15.5 46.5s26.833 18.833 49.5 19.5z" />
    <glyph glyph-name="eacute" unicode="&#xe9;" horiz-adv-x="1008" 
d="M74 472c1.33301 137.333 40.166 255.167 116.499 353.5s183.5 149.833 321.5 154.5c128.667 -4.66699 223.167 -45.5 283.5 -122.5s90.166 -161.833 89.499 -254.5h-660c-0.666992 -130.667 26.333 -241.5 81 -332.5s141 -138.5 259 -142.5
c85.333 2.66699 154.666 26.5 207.999 71.5s96 96.167 128 153.5l37 -16c-31.333 -77.333 -82.666 -155.333 -153.999 -234s-171.666 -121.334 -300.999 -128.001c-140.667 4.66699 -244.167 54.334 -310.5 149.001s-99.166 210.667 -98.499 348zM233 661.001
l418.001 0.00292969c14 0 23.167 4.5 27.5 13.5s6.16602 20.833 5.49902 35.5c2.66699 33.333 -10.333 75.166 -39 125.499s-86.667 78.166 -174 83.499c-65.333 -2.66699 -120.833 -29.334 -166.5 -80.001s-69.5 -110 -71.5 -178zM729.001 1447
c22.667 -0.666992 39.333 -7.16699 50 -19.5s16 -27.833 16 -46.5c8 -18.667 -8.16699 -42.834 -48.5 -72.501s-153.833 -100.834 -340.5 -213.501h-66c160 168.667 260.167 271.334 300.5 308.001s69.833 51.334 88.5 44.001z" />
    <glyph glyph-name="ecircumflex" unicode="&#xea;" horiz-adv-x="1008" 
d="M520 1304l-233 -209h-58l230 344h119l229 -344h-57zM74 472c1.33301 137.333 40.166 255.167 116.499 353.5s183.5 149.833 321.5 154.5c128.667 -4.66699 223.167 -45.5 283.5 -122.5s90.166 -161.833 89.499 -254.5h-660c-0.666992 -130.667 26.333 -241.5 81 -332.5
s141 -138.5 259 -142.5c85.333 2.66699 154.666 26.5 207.999 71.5s96 96.167 128 153.5l37 -16c-31.333 -77.333 -82.666 -155.333 -153.999 -234s-171.666 -121.334 -300.999 -128.001c-140.667 4.66699 -244.167 54.334 -310.5 149.001s-99.166 210.667 -98.499 348z
M651 661.001c14 0 23.168 4.50293 27.501 13.5029s6.16602 20.833 5.49902 35.5c2.66699 33.333 -10.333 75.166 -39 125.499s-86.667 78.166 -174 83.499c-65.333 -2.66699 -120.833 -29.334 -166.5 -80.001s-69.5 -110 -71.5 -178h418z" />
    <glyph glyph-name="edieresis" unicode="&#xeb;" horiz-adv-x="1008" 
d="M344 1148c-32.667 1.33301 -57.167 12 -73.5 32s-24.5 42 -24.5 66s8.66699 46.167 26 66.5s41.333 31.166 72 32.499c31.333 -1.33301 54.833 -12.666 70.5 -33.999s23.5 -43 23.5 -65s-7.5 -43.5 -22.5 -64.5s-38.833 -32.167 -71.5 -33.5zM692 1148
c-32.667 1.33301 -57.167 12 -73.5 32s-24.5 42 -24.5 66s8.66699 46.167 26 66.5s41.333 31.166 72 32.499c31.333 -1.33301 54.833 -12.666 70.5 -33.999s23.5 -43 23.5 -65s-7.5 -43.5 -22.5 -64.5s-38.833 -32.167 -71.5 -33.5zM74 472
c1.33301 137.333 40.166 255.167 116.499 353.5s183.5 149.833 321.5 154.5c128.667 -4.66699 223.167 -45.5 283.5 -122.5s90.166 -161.833 89.499 -254.5h-660c-0.666992 -130.667 26.333 -241.5 81 -332.5s141 -138.5 259 -142.5
c85.333 2.66699 154.666 26.5 207.999 71.5s96 96.167 128 153.5l37 -16c-31.333 -77.333 -82.666 -155.333 -153.999 -234s-171.666 -121.334 -300.999 -128.001c-140.667 4.66699 -244.167 54.334 -310.5 149.001s-99.166 210.667 -98.499 348zM233 661.001
l418.001 0.00292969c14 0 23.167 4.5 27.5 13.5s6.16602 20.833 5.49902 35.5c2.66699 33.333 -10.333 75.166 -39 125.499s-86.667 78.166 -174 83.499c-65.333 -2.66699 -120.833 -29.334 -166.5 -80.001s-69.5 -110 -71.5 -178z" />
    <glyph glyph-name="igrave" unicode="&#xec;" horiz-adv-x="553" 
d="M373 165c-1.33301 -44.667 7.66602 -78.335 26.999 -101.002s55.333 -34 108 -34v-30h-459v30c54.667 0 93.167 11.333 115.5 34s33.166 56.334 32.499 101.001v577c2.66699 42 -3.66602 70.5 -18.999 85.5s-55.666 22.167 -120.999 21.5v33
c58.667 10.667 116 25.334 172 44.001s104 36.667 144 54v-815zM65.999 1447c18.667 7.33301 48.166 -7.33398 88.499 -44.001s140.5 -139.334 300.5 -308.001h-66c-186.667 112.667 -300 183.834 -340 213.501s-56.333 53.834 -49 72.501c0 18.667 5.33301 34.167 16 46.5
s27.334 18.833 50.001 19.5z" />
    <glyph glyph-name="iacute" unicode="&#xed;" horiz-adv-x="553" 
d="M373 165c-1.33301 -44.667 7.66602 -78.335 26.999 -101.002s55.333 -34 108 -34v-30h-459v30c54.667 0 93.167 11.333 115.5 34s33.166 56.334 32.499 101.001v577c2.66699 42 -3.66602 70.5 -18.999 85.5s-55.666 22.167 -120.999 21.5v33
c58.667 10.667 116 25.334 172 44.001s104 36.667 144 54v-815zM491.999 1447c22.667 -0.666992 39.166 -7.16699 49.499 -19.5s15.5 -27.833 15.5 -46.5c8 -18.667 -8.16699 -42.834 -48.5 -72.501s-153.833 -100.834 -340.5 -213.501h-66
c160 168.667 260.333 271.334 301 308.001s70.334 51.334 89.001 44.001z" />
    <glyph glyph-name="icircumflex" unicode="&#xee;" horiz-adv-x="553" 
d="M512 1095l-229 209l-234 -209h-54l226 344h119l229 -344h-57zM373 165c-1.33301 -44.667 7.66602 -78.335 26.999 -101.002s55.333 -34 108 -34v-30h-459v30c54.667 0 93.167 11.333 115.5 34s33.166 56.334 32.499 101.001v577c2.66699 42 -3.66602 70.5 -18.999 85.5
s-55.666 22.167 -120.999 21.5v33c58.667 10.667 116 25.334 172 44.001s104 36.667 144 54v-815z" />
    <glyph glyph-name="idieresis" unicode="&#xef;" horiz-adv-x="553" 
d="M373 165c-1.33301 -44.667 7.66602 -78.335 26.999 -101.002s55.333 -34 108 -34v-30h-459v30c54.667 0 93.167 11.333 115.5 34s33.166 56.334 32.499 101.001v577c2.66699 42 -3.66602 70.5 -18.999 85.5s-55.666 22.167 -120.999 21.5v33
c58.667 10.667 116 25.334 172 44.001s104 36.667 144 54v-815zM105.999 1148c-32.667 1.33301 -57.167 12 -73.5 32s-24.5 42 -24.5 66s8.66699 46.167 26 66.5s41.333 31.166 72 32.499c31.333 -1.33301 55 -12.666 71 -33.999s24 -43 24 -65s-7.66699 -43.5 -23 -64.5
s-39.333 -32.167 -72 -33.5zM355.999 1246c0 24 8.66895 46.167 26.002 66.5s41.666 31.166 72.999 32.499c30.667 -1.33301 54 -12.666 70 -33.999s24 -43 24 -65s-7.5 -43.5 -22.5 -64.5s-38.833 -32.167 -71.5 -33.5c-32.667 1.33301 -57.334 12 -74.001 32
s-25 42 -25 66z" />
    <glyph glyph-name="eth" unicode="&#xf0;" horiz-adv-x="1122" 
d="M553 984c26.667 0 52.835 -3.00098 78.502 -9.00098s50.167 -15.333 73.5 -28c-20.667 28.667 -50.167 63.334 -88.5 104.001s-71.833 74.334 -100.5 101.001l-323 -180l-29 61l303 168l-299 230l37 36l352 -213l344 185l29 -54l-303 -176
c131.333 -102 231.5 -213 300.5 -333s103.833 -250.667 104.5 -392c1.33301 -128.667 -36.834 -244 -114.501 -346s-201.834 -156.333 -372.501 -163c-145.333 2.66699 -260.333 48.5 -345 137.5s-128 210.167 -130 363.5c0 130.667 40 246.667 120 348
s201 154.666 363 159.999zM258.001 545.999c-2 -96.667 20 -204.167 66 -322.5s129 -182.833 249 -193.5c102.667 4 174.5 42.5 215.5 115.5s60.833 158.5 59.5 256.5c1.33301 119.333 -22.5 235.333 -71.5 348s-133.167 173 -252.5 181
c-102.667 -5.33301 -173.167 -48.5 -211.5 -129.5s-56.5 -166.167 -54.5 -255.5z" />
    <glyph glyph-name="eth" unicode="&#x111;" horiz-adv-x="1122" 
d="M553 984c26.667 0 52.835 -3.00098 78.502 -9.00098s50.167 -15.333 73.5 -28c-20.667 28.667 -50.167 63.334 -88.5 104.001s-71.833 74.334 -100.5 101.001l-323 -180l-29 61l303 168l-299 230l37 36l352 -213l344 185l29 -54l-303 -176
c131.333 -102 231.5 -213 300.5 -333s103.833 -250.667 104.5 -392c1.33301 -128.667 -36.834 -244 -114.501 -346s-201.834 -156.333 -372.501 -163c-145.333 2.66699 -260.333 48.5 -345 137.5s-128 210.167 -130 363.5c0 130.667 40 246.667 120 348
s201 154.666 363 159.999zM258.001 545.999c-2 -96.667 20 -204.167 66 -322.5s129 -182.833 249 -193.5c102.667 4 174.5 42.5 215.5 115.5s60.833 158.5 59.5 256.5c1.33301 119.333 -22.5 235.333 -71.5 348s-133.167 173 -252.5 181
c-102.667 -5.33301 -173.167 -48.5 -211.5 -129.5s-56.5 -166.167 -54.5 -255.5z" />
    <glyph glyph-name="ntilde" unicode="&#xf1;" horiz-adv-x="1118" 
d="M311 1144l-49.001 0.000976562c10 60.667 30.167 109.667 60.5 147s73.166 56.666 128.499 57.999c44 -2 87 -9.5 129 -22.5s76.667 -20.5 104 -22.5c28 0 48.833 7.33301 62.5 22s24.167 34.334 31.5 59.001h49c-9.33301 -56 -29.166 -102.333 -59.499 -139
s-75.833 -55.667 -136.5 -57c-43.333 2 -84.166 9.5 -122.499 22.5s-71.166 20.5 -98.499 22.5c-24.667 0 -44.834 -7.33301 -60.501 -22s-28.5 -37.334 -38.5 -68.001zM192.999 177.001l-0.000976562 577.999c1.33301 43.333 -8 70.833 -28 82.5s-60 16.834 -120 15.501v33
c51.333 9.33301 107.833 24.5 169.5 45.5s113.167 41.167 154.5 60.5v-159c43.333 42 92.666 77.333 147.999 106s115 43.667 179 45c94.667 -3.33301 159.167 -34 193.5 -92s50.5 -121.667 48.5 -191v-524c-1.33301 -43.333 6.66699 -77.833 24 -103.5
s53 -38.834 107 -39.501v-33h-455v33c60 0 100 12 120 36s29.333 59.667 28 107v484c0.666992 60 -12.666 108.667 -39.999 146s-71.333 56.666 -132 57.999c-51.333 -1.33301 -95 -12.666 -131 -33.999s-66 -46.666 -90 -75.999v-578
c-1.33301 -50.667 7.83398 -87.334 27.501 -110.001s56.834 -33.667 111.501 -33v-33h-463v33c52.667 -0.666992 90.667 10.333 114 33s34.666 59.334 33.999 110.001z" />
    <glyph glyph-name="ograve" unicode="&#xf2;" horiz-adv-x="1114" 
d="M1028 497c2 -134.667 -35.335 -253.832 -112.002 -357.499s-203 -158.5 -379 -164.5c-156 4.66699 -273.5 54.167 -352.5 148.5s-118.5 211.833 -118.5 352.5c0.666992 139.333 43.834 257.166 129.501 353.499s208.834 146.5 369.501 150.5
c152 -4.66699 267 -54.5 345 -149.5s117.333 -206.167 118 -333.5zM253.998 546.002c-2 -104 20.165 -213.5 66.498 -328.5s127.833 -177.5 244.5 -187.5c115.333 4 190.833 44.167 226.5 120.5s51.834 165.833 48.501 268.5c1.33301 101.333 -22.167 208.333 -70.5 321
s-130.166 173.667 -245.499 183c-98.667 -4.66699 -168.667 -45 -210 -121s-61.333 -161.333 -60 -256zM339.996 1447c18.667 7.33301 48.167 -7.33398 88.5 -44.001s140.5 -139.334 300.5 -308.001h-65c-186.667 112.667 -300.334 183.834 -341.001 213.501
s-57 53.834 -49 72.501c0 18.667 5.33301 34.167 16 46.5s27.334 18.833 50.001 19.5z" />
    <glyph glyph-name="oacute" unicode="&#xf3;" horiz-adv-x="1114" 
d="M1028 497c2 -134.667 -35.335 -253.832 -112.002 -357.499s-203 -158.5 -379 -164.5c-156 4.66699 -273.5 54.167 -352.5 148.5s-118.5 211.833 -118.5 352.5c0.666992 139.333 43.834 257.166 129.501 353.499s208.834 146.5 369.501 150.5
c152 -4.66699 267 -54.5 345 -149.5s117.333 -206.167 118 -333.5zM253.998 546.002c-2 -104 20.165 -213.5 66.498 -328.5s127.833 -177.5 244.5 -187.5c115.333 4 190.833 44.167 226.5 120.5s51.834 165.833 48.501 268.5c1.33301 101.333 -22.167 208.333 -70.5 321
s-130.166 173.667 -245.499 183c-98.667 -4.66699 -168.667 -45 -210 -121s-61.333 -161.333 -60 -256zM765.996 1447c22.667 -0.666992 39.167 -7.16699 49.5 -19.5s15.5 -27.833 15.5 -46.5c8 -18.667 -8.16699 -42.834 -48.5 -72.501s-153.833 -100.834 -340.5 -213.501
h-65c160 168.667 260.167 271.334 300.5 308.001s69.833 51.334 88.5 44.001z" />
    <glyph glyph-name="ocircumflex" unicode="&#xf4;" horiz-adv-x="1114" 
d="M565 980c152 -4.66699 266.998 -54.498 344.998 -149.498s117.333 -206.167 118 -333.5c2 -134.667 -35.333 -253.834 -112 -357.501s-203 -158.5 -379 -164.5c-156 4.66699 -273.5 54.167 -352.5 148.5s-118.5 211.833 -118.5 352.5
c0.666992 139.333 43.834 257.166 129.501 353.499s208.834 146.5 369.501 150.5zM523.998 923.002c-98.667 -4.66699 -168.669 -45 -210.002 -121s-61.333 -161.333 -60 -256c-2 -104 20.167 -213.5 66.5 -328.5s127.833 -177.5 244.5 -187.5
c115.333 4 190.833 44.167 226.5 120.5s51.834 165.833 48.501 268.5c1.33301 101.333 -22.167 208.333 -70.5 321s-130.166 173.667 -245.499 183zM785.996 1095l-229 209l-233 -209h-58l230 344h118l230 -344h-58z" />
    <glyph glyph-name="otilde" unicode="&#xf5;" horiz-adv-x="1114" 
d="M270 1144c10 60.667 30.166 109.668 60.499 147.001s73.166 56.666 128.499 57.999c44 -2 87 -9.5 129 -22.5s76.667 -20.5 104 -22.5c28 0 48.833 7.33301 62.5 22s24.167 34.334 31.5 59.001h50c-10 -56 -30.167 -102.333 -60.5 -139s-75.833 -55.667 -136.5 -57
c-43.333 2 -84.166 9.5 -122.499 22.5s-71.166 20.5 -98.499 22.5c-24 0 -44 -7.33301 -60 -22s-29 -37.334 -39 -68.001h-49zM564.999 980.001c152 -4.66699 266.998 -54.498 344.998 -149.498s117.333 -206.167 118 -333.5c2 -134.667 -35.333 -253.834 -112 -357.501
s-203 -158.5 -379 -164.5c-156 4.66699 -273.5 54.167 -352.5 148.5s-118.5 211.833 -118.5 352.5c0.666992 139.333 43.834 257.166 129.501 353.499s208.834 146.5 369.501 150.5zM523.997 923.003c-98.667 -4.66699 -168.669 -45 -210.002 -121
s-61.333 -161.333 -60 -256c-2 -104 20.167 -213.5 66.5 -328.5s127.833 -177.5 244.5 -187.5c115.333 4 190.833 44.167 226.5 120.5s51.834 165.833 48.501 268.5c1.33301 101.333 -22.167 208.333 -70.5 321s-130.166 173.667 -245.499 183z" />
    <glyph glyph-name="odieresis" unicode="&#xf6;" horiz-adv-x="1114" 
d="M381 1148c-32.667 1.33301 -57.167 12 -73.5 32s-24.5 42 -24.5 66s8.5 46.167 25.5 66.5s41.167 31.166 72.5 32.499c30.667 -1.33301 54 -12.666 70 -33.999s24 -43 24 -65s-7.5 -43.5 -22.5 -64.5s-38.833 -32.167 -71.5 -33.5zM729 1148
c-32.667 1.33301 -57.167 12 -73.5 32s-24.5 42 -24.5 66s8.66699 46.167 26 66.5s41.333 31.166 72 32.499c31.333 -1.33301 54.833 -12.666 70.5 -33.999s23.5 -43 23.5 -65s-7.5 -43.5 -22.5 -64.5s-38.833 -32.167 -71.5 -33.5zM565 980
c152 -4.66699 266.998 -54.498 344.998 -149.498s117.333 -206.167 118 -333.5c2 -134.667 -35.333 -253.834 -112 -357.501s-203 -158.5 -379 -164.5c-156 4.66699 -273.5 54.167 -352.5 148.5s-118.5 211.833 -118.5 352.5
c0.666992 139.333 43.834 257.166 129.501 353.499s208.834 146.5 369.501 150.5zM523.998 923.002c-98.667 -4.66699 -168.669 -45 -210.002 -121s-61.333 -161.333 -60 -256c-2 -104 20.167 -213.5 66.5 -328.5s127.833 -177.5 244.5 -187.5
c115.333 4 190.833 44.167 226.5 120.5s51.834 165.833 48.501 268.5c1.33301 101.333 -22.167 208.333 -70.5 321s-130.166 173.667 -245.499 183z" />
    <glyph glyph-name="divide" unicode="&#xf7;" horiz-adv-x="1700" 
d="M254 669h1188v-135h-1188v135zM725 968c1.33301 33.333 13.666 61.833 36.999 85.5s52 36.167 86 37.5c33.333 -1.33301 61.833 -13.833 85.5 -37.5s36.167 -52.167 37.5 -85.5c-1.33301 -34 -13.833 -62.667 -37.5 -86s-52.167 -35.666 -85.5 -36.999
c-34 1.33301 -62.667 13.666 -86 36.999s-35.666 52 -36.999 86zM725 235c1.33301 33.333 13.666 61.666 36.999 84.999s52 35.666 86 36.999c33.333 -1.33301 61.833 -13.666 85.5 -36.999s36.167 -51.666 37.5 -84.999c-1.33301 -34 -13.833 -62.667 -37.5 -86
s-52.167 -35.666 -85.5 -36.999c-34 1.33301 -62.667 13.666 -86 36.999s-35.666 52 -36.999 86z" />
    <glyph glyph-name="oslash" unicode="&#xf8;" horiz-adv-x="1114" 
d="M66 468c0 136 41.832 254.165 125.499 354.498s209.5 152.833 377.5 157.5c39.333 0 75.166 -3.5 107.499 -10.5s60.833 -15.833 85.5 -26.5l98 197h82l-119 -234c75.333 -47.333 128.5 -107.166 159.5 -179.499s46.167 -153.166 45.5 -242.499
c2.66699 -118 -32 -230.333 -104 -337s-199.667 -164 -383 -172c-25.333 0.666992 -58.166 4 -98.499 10s-73.166 14 -98.499 24l-119 -214h-82l140 251c-61.333 32.667 -112.5 86.167 -153.5 160.5s-62.167 161.5 -63.5 261.5zM523.999 930.998
c-68.667 2 -129.999 -25.667 -183.999 -83s-82.667 -156.666 -86 -297.999c-0.666992 -52.667 6.33301 -119.834 21 -201.501s39 -142.834 73 -183.501l361 680c-16.667 23.333 -40.834 43.333 -72.501 60s-69.167 25.334 -112.5 26.001zM393 102.998
c10 -14 30 -29.833 60 -47.5s71.667 -27.5 125 -29.5c98.667 2 168 37.333 208 106s59.333 157.334 58 266.001c0.666992 57.333 -5 123.666 -17 198.999s-35 137.333 -69 186z" />
    <glyph glyph-name="ugrave" unicode="&#xf9;" horiz-adv-x="1114" 
d="M1065 67c-57.333 -10.667 -113.332 -24.502 -167.999 -41.502s-106.667 -36.5 -156 -58.5v157c-43.333 -42 -91.833 -76.833 -145.5 -104.5s-111.5 -42.5 -173.5 -44.5c-100 3.33301 -167.333 33.166 -202 89.499s-50.667 122.5 -48 198.5v500
c1.33301 54 -8.83398 90.333 -30.501 109s-60.5 27.334 -116.5 26.001v15v18l323 20v-647c-1.33301 -55.333 10.834 -104.666 36.501 -147.999s70.834 -66.333 135.501 -69c51.333 1.33301 95.333 13.833 132 37.5s66.334 49.5 89.001 77.5v561
c1.33301 52 -8.16699 87.833 -28.5 107.5s-58.5 28.834 -114.5 27.501v15v18c51.333 2 107.166 4.83301 167.499 8.5s111.166 7.5 152.499 11.5v-749c-2 -43.333 6.16699 -71 24.5 -83s59.166 -17.333 122.499 -16v-36zM262.001 1381c0 18.667 5.33203 34.167 15.999 46.5
s27.334 18.833 50.001 19.5c18.667 7.33301 48.167 -7.33398 88.5 -44.001s140.5 -139.334 300.5 -308.001h-66c-186.667 112.667 -300.167 183.834 -340.5 213.501s-56.5 53.834 -48.5 72.501z" />
    <glyph glyph-name="uacute" unicode="&#xfa;" horiz-adv-x="1114" 
d="M1065 67c-57.333 -10.667 -113.332 -24.502 -167.999 -41.502s-106.667 -36.5 -156 -58.5v157c-43.333 -42 -91.833 -76.833 -145.5 -104.5s-111.5 -42.5 -173.5 -44.5c-100 3.33301 -167.333 33.166 -202 89.499s-50.667 122.5 -48 198.5v500
c1.33301 54 -8.83398 90.333 -30.501 109s-60.5 27.334 -116.5 26.001v15v18l323 20v-647c-1.33301 -55.333 10.834 -104.666 36.501 -147.999s70.834 -66.333 135.501 -69c51.333 1.33301 95.333 13.833 132 37.5s66.334 49.5 89.001 77.5v561
c1.33301 52 -8.16699 87.833 -28.5 107.5s-58.5 28.834 -114.5 27.501v15v18c51.333 2 107.166 4.83301 167.499 8.5s111.166 7.5 152.499 11.5v-749c-2 -43.333 6.16699 -71 24.5 -83s59.166 -17.333 122.499 -16v-36zM754.001 1447
c22.667 -0.666992 39.166 -7.16699 49.499 -19.5s15.5 -27.833 15.5 -46.5c8 -18.667 -8.16699 -42.834 -48.5 -72.501s-153.833 -100.834 -340.5 -213.501h-65c159.333 168.667 259.333 271.334 300 308.001s70.334 51.334 89.001 44.001z" />
    <glyph glyph-name="ucircumflex" unicode="&#xfb;" horiz-adv-x="1114" 
d="M598 898l0.000976562 14.998v18c51.333 2 107.166 4.83301 167.499 8.5s111.166 7.5 152.499 11.5v-749c-2 -43.333 6.16699 -71 24.5 -83s59.166 -17.333 122.499 -16v-36c-56 -10.667 -111.5 -24.5 -166.5 -41.5s-107.5 -36.5 -157.5 -58.5v157
c-43.333 -42 -91.833 -76.833 -145.5 -104.5s-111.5 -42.5 -173.5 -44.5c-100 3.33301 -167.333 33.166 -202 89.499s-50.667 122.5 -48 198.5v500c1.33301 54 -8.83398 90.333 -30.501 109s-60.5 27.334 -116.5 26.001v15v18l323 20v-647
c-1.33301 -55.333 10.834 -104.666 36.501 -147.999s70.834 -66.333 135.501 -69c51.333 1.33301 95.333 13.833 132 37.5s66.334 49.5 89.001 77.5v561c1.33301 52 -8.16699 87.833 -28.5 107.5s-58.5 28.834 -114.5 27.501zM774.001 1095l-229 209l-234 -209h-57l229 344
h119l229 -344h-57z" />
    <glyph glyph-name="udieresis" unicode="&#xfc;" horiz-adv-x="1114" 
d="M369 1148c-32.667 1.33301 -57.332 12 -73.999 32s-25 42 -25 66s8.66699 46.167 26 66.5s41.666 31.166 72.999 32.499c30.667 -1.33301 54 -12.666 70 -33.999s24 -43 24 -65s-7.5 -43.5 -22.5 -64.5s-38.833 -32.167 -71.5 -33.5zM618.002 1246
c0 24 8.66895 46.167 26.002 66.5s41.666 31.166 72.999 32.499c30.667 -1.33301 54 -12.666 70 -33.999s24 -43 24 -65s-7.5 -43.5 -22.5 -64.5s-38.833 -32.167 -71.5 -33.5c-32.667 1.33301 -57.334 12 -74.001 32s-25 42 -25 66zM598.004 898l0.000976562 14.998v18
c51.333 2 107.166 4.83301 167.499 8.5s111.166 7.5 152.499 11.5v-749c-2 -43.333 6.16699 -71 24.5 -83s59.166 -17.333 122.499 -16v-36c-56 -10.667 -111.5 -24.5 -166.5 -41.5s-107.5 -36.5 -157.5 -58.5v157c-43.333 -42 -91.833 -76.833 -145.5 -104.5
s-111.5 -42.5 -173.5 -44.5c-100 3.33301 -167.333 33.166 -202 89.499s-50.667 122.5 -48 198.5v500c1.33301 54 -8.83398 90.333 -30.501 109s-60.5 27.334 -116.5 26.001v15v18l323 20v-647c-1.33301 -55.333 10.834 -104.666 36.501 -147.999
s70.834 -66.333 135.501 -69c51.333 1.33301 95.333 13.833 132 37.5s66.334 49.5 89.001 77.5v561c1.33301 52 -8.16699 87.833 -28.5 107.5s-58.5 28.834 -114.5 27.501z" />
    <glyph glyph-name="yacute" unicode="&#xfd;" horiz-adv-x="909" 
d="M307 -401c-33.333 -31.333 -67.834 -52.833 -103.501 -64.5s-65.167 -17.5 -88.5 -17.5c-40.667 1.33301 -70.667 11.833 -90 31.5s-29.333 45.834 -30 78.501c0.666992 24 8.16699 44.333 22.5 61s35.833 25 64.5 25c34.667 -0.666992 59.334 -5.66699 74.001 -15
s35 -15 61 -17c34.667 -2.66699 65.5 16.833 92.5 58.5s65.833 123.167 116.5 244.5l-229 529.5c-56 128.333 -98.333 221.5 -127 279.5s-50.667 94.167 -66 108.5s-30.666 20.166 -45.999 17.499v32h427v-32c-49.333 -0.666992 -81.166 -7.33398 -95.499 -20.001
s-20.833 -26.667 -19.5 -42c0 -16 9 -49.667 27 -101s40.167 -110.833 66.5 -178.5l78.5 -196.5l66 -159l124 351.5c49.333 143.667 76.333 238.167 81 283.5c1.33301 17.333 -5.33398 31.833 -20.001 43.5s-45 17.834 -91 18.501v32h303v-32
c-13.333 0 -24.5 -1.66699 -33.5 -5s-18.167 -10 -27.5 -20c-22 -24.667 -54.5 -95.667 -97.5 -213l-143.5 -403.5c-52.667 -151.667 -104.834 -291.5 -156.501 -419.5s-98.167 -214.333 -139.5 -259zM667.999 1447c22.667 -0.666992 39.166 -7.16699 49.499 -19.5
s15.5 -27.833 15.5 -46.5c8 -18.667 -8.16699 -42.834 -48.5 -72.501s-153.833 -100.834 -340.5 -213.501h-65c159.333 168.667 259.333 271.334 300 308.001s70.334 51.334 89.001 44.001z" />
    <glyph glyph-name="thorn" unicode="&#xfe;" horiz-adv-x="1114" 
d="M573 34c107.333 5.33301 181.835 50.835 223.502 136.502s61.5 179.5 59.5 281.5c1.33301 82.667 -18.834 168.334 -60.501 257.001s-112.834 136.667 -213.501 144c-50 -2 -95.833 -16.333 -137.5 -43s-75.167 -53.334 -100.5 -80.001v-569
c16 -24.667 45 -51.334 87 -80.001s89.333 -44.334 142 -47.001zM168.002 1152c2.66699 56.667 -3.16602 96.334 -17.499 119.001s-54.833 33.667 -121.5 33v32c48.667 15.333 102.167 34.5 160.5 57.5s109.833 46.167 154.5 69.5v-647
c36.667 38.667 80.834 73.834 132.501 105.501s114.167 48.5 187.5 50.5c128.667 -4.66699 223 -51.834 283 -141.501s89.667 -194.167 89 -313.5c-1.33301 -153.333 -41.5 -280.833 -120.5 -382.5s-188.833 -154.834 -329.5 -159.501c-53.333 0.666992 -99.333 7 -138 19
s-73.334 29.333 -104.001 52v-353c-1.33301 -50.667 9 -87.834 31 -111.501s65 -35.834 129 -36.501v-12v-20h-484v32c54.667 0.666992 93.167 12.834 115.5 36.501s33.166 60.834 32.499 111.501v1459z" />
    <glyph glyph-name="ydieresis" unicode="&#xff;" horiz-adv-x="909" 
d="M307 -401c-33.333 -31.333 -67.834 -52.833 -103.501 -64.5s-65.167 -17.5 -88.5 -17.5c-40.667 1.33301 -70.667 11.833 -90 31.5s-29.333 45.834 -30 78.501c0.666992 24 8.16699 44.333 22.5 61s35.833 25 64.5 25c34.667 -0.666992 59.334 -5.66699 74.001 -15
s35 -15 61 -17c34.667 -2.66699 65.5 16.833 92.5 58.5s65.833 123.167 116.5 244.5l-229 529.5c-56 128.333 -98.333 221.5 -127 279.5s-50.667 94.167 -66 108.5s-30.666 20.166 -45.999 17.499v32h427v-32c-49.333 -0.666992 -81.166 -7.33398 -95.499 -20.001
s-20.833 -26.667 -19.5 -42c0 -16 9 -49.667 27 -101s40.167 -110.833 66.5 -178.5l78.5 -196.5l66 -159l124 351.5c49.333 143.667 76.333 238.167 81 283.5c1.33301 17.333 -5.33398 31.833 -20.001 43.5s-45 17.834 -91 18.501v32h303v-32
c-13.333 0 -24.5 -1.66699 -33.5 -5s-18.167 -10 -27.5 -20c-22 -24.667 -54.5 -95.667 -97.5 -213l-143.5 -403.5c-52.667 -151.667 -104.834 -291.5 -156.501 -419.5s-98.167 -214.333 -139.5 -259zM376.999 1246c0 -22 -7.49805 -43.5 -22.498 -64.5
s-38.833 -32.167 -71.5 -33.5c-32.667 1.33301 -57.334 12 -74.001 32s-25 42 -25 66s8.66699 46.167 26 66.5s41.666 31.166 72.999 32.499c30.667 -1.33301 54 -12.666 70 -33.999s24 -43 24 -65zM532.001 1246c0 24 8.66895 46.167 26.002 66.5
s41.666 31.166 72.999 32.499c30.667 -1.33301 54 -12.666 70 -33.999s24 -43 24 -65s-7.5 -43.5 -22.5 -64.5s-38.833 -32.167 -71.5 -33.5c-32.667 1.33301 -57.334 12 -74.001 32s-25 42 -25 66z" />
    <glyph glyph-name="dotlessi" unicode="&#x131;" horiz-adv-x="553" 
d="M373 980l0.00195312 -822.999c-2.66699 -34 3 -63 17 -87s53.333 -37.333 118 -40v-30h-459v30c52.667 2.66699 90.667 12.5 114 29.5s34.666 49.5 33.999 97.5v614c-0.666992 32 -9.5 53.167 -26.5 63.5s-38.5 15.166 -64.5 14.499h-45v33
c50 7.33301 104.167 21 162.5 41s108.166 39 149.499 57z" />
    <glyph glyph-name="OE" unicode="&#x152;" horiz-adv-x="2232" 
d="M1028 235l0.00195312 946.001c-1.33301 53.333 -24 94 -68 122s-100.333 42 -169 42c-159.333 -8 -277.833 -76.333 -355.5 -205s-116.5 -270.667 -116.5 -426c3.33301 -217.333 49.666 -382.166 138.999 -494.499s200.333 -168.833 333 -169.5
c63.333 -0.666992 118.166 13.166 164.499 41.499s70.5 76.166 72.5 143.499zM1085 1398l930.005 -0.000976562l17 -303h-41c-12.667 75.333 -36.167 132.333 -70.5 171s-103.833 58 -208.5 58h-323c-72.667 3.33301 -116.334 -2.66699 -131.001 -18
s-20.334 -58.333 -17.001 -129v-324c-2 -32 1.33301 -53.833 10 -65.5s32.667 -17.167 72 -16.5h315c78.667 -1.33301 134.167 12.667 166.5 42s50.833 82.333 55.5 159h45v-484h-45c-1.33301 62.667 -15.333 112.334 -42 149.001s-86.667 55.334 -180 56.001h-315
c-41.333 1.33301 -65.833 -3.66699 -73.5 -15s-10.5 -37.666 -8.5 -78.999v-389c-4 -59.333 4 -97.166 24 -113.499s76.333 -23.5 169 -21.5h237c105.333 -2.66699 193.5 14.666 264.5 51.999s131.833 112.666 182.5 225.999l32 -16l-106 -337h-885
c-45.333 -0.666992 -111.333 -5.16699 -198 -13.5s-155.667 -13.5 -207 -15.5c-162.667 2 -311.834 65.667 -447.501 191s-207.834 305 -216.501 539c3.33301 204.667 65.833 376.167 187.5 514.5s280.5 210.166 476.5 215.499
c55.333 -1.33301 117.166 -6.83301 185.499 -16.5s116.833 -15.167 145.5 -16.5z" />
    <glyph glyph-name="oe" unicode="&#x153;" horiz-adv-x="1798" 
d="M1454 656c8 0 13.5 3.66602 16.5 10.999s4.5 16 4.5 26c-0.666992 59.333 -19.167 110.5 -55.5 153.5s-84.833 65.5 -145.5 67.5c-85.333 -4 -148.333 -33.667 -189 -89s-61 -111.666 -61 -168.999h430zM557 979.999c98 -1.33301 178.832 -21.001 242.499 -59.001
s112.5 -85.333 146.5 -142c42.667 62 90.834 110.167 144.501 144.5s125.834 51.833 216.501 52.5c120.667 -4 212.167 -43.333 274.5 -118s93.5 -161 93.5 -259h-659v-90c0.666992 -87.333 30.334 -171.333 89.001 -252s143.667 -123.667 255 -129
c74.667 1.33301 138.667 23 192 65s100 95.333 140 160l37 -20c-44.667 -101.333 -103.334 -185.5 -176.001 -252.5s-165.667 -102.167 -279 -105.5c-84 2 -154.5 21 -211.5 57s-99.833 80.333 -128.5 133c-47.333 -62 -101.333 -109.5 -162 -142.5s-139 -50.167 -235 -51.5
c-128.667 0.666992 -238.334 43 -329.001 127s-138 210 -142 378c0 134 40.833 250.333 122.5 349s204.5 150.334 368.5 155.001zM253.999 549.998c2.66699 -167.333 33.3301 -296.166 91.9971 -386.499s130.334 -136.166 215.001 -137.499c74.667 -4 138.5 20.667 191.5 74
s80.833 157 83.5 311c0 136 -26 254.667 -78 356s-131.333 154.666 -238 159.999c-91.333 -2.66699 -158.666 -39.834 -201.999 -111.501s-64.666 -160.167 -63.999 -265.5z" />
    <glyph glyph-name="Scaron" unicode="&#x160;" horiz-adv-x="1118" 
d="M791 1893h57l-230 -344h-118l-230 344h58l233 -208zM303 1156c2.66699 -75.333 39.501 -139.501 110.501 -192.501s153 -104.5 246 -154.5s175.333 -107.667 247 -173s109.5 -148.666 113.5 -249.999c-0.666992 -130 -39.834 -231.167 -117.501 -303.5
s-188.834 -109.5 -333.501 -111.5c-92 2.66699 -160.667 12 -206 28s-80.333 25 -105 27c-18.667 -0.666992 -34 -6 -46 -16s-21.333 -23 -28 -39h-28l-78 452h41c34 -100.667 89.167 -189 165.5 -265s164.5 -116 264.5 -120c84.667 3.33301 149.334 30.833 194.001 82.5
s67.334 108.834 68.001 171.501c-4 84.667 -40.5 154 -109.5 208s-148.833 104.833 -239.5 152.5s-170.5 103.667 -239.5 168s-104.833 148.833 -107.5 253.5c0.666992 103.333 37.5 189.333 110.5 258s176.833 104.334 311.5 107.001c74 -2.66699 132.667 -13.667 176 -33
s78.666 -30.333 105.999 -33c22 1.33301 37.833 9.16602 47.5 23.499s14.5 28.5 14.5 42.5h17.5h14.5l45 -426h-40c-26 84.667 -69.333 164 -130 238s-143 113.333 -247 118c-78 -2.66699 -137.167 -25.334 -177.5 -68.001s-60.5 -91 -60.5 -145z" />
    <glyph glyph-name="scaron" unicode="&#x161;" horiz-adv-x="778" 
d="M98 1439h58l233 -213l229 213h58l-230 -344h-118zM553 943c10 0 19.1631 2.66504 27.4961 7.99805s15.5 15 21.5 29h29l16 -291h-37c-13.333 67.333 -38.666 124 -75.999 170s-92.333 70 -165 72c-46 -1.33301 -83.333 -14.833 -112 -40.5s-43.334 -57.167 -44.001 -94.5
c1.33301 -54.667 27 -99.5 77 -134.5s107.667 -67.833 173 -98.5s123.333 -69.5 174 -116.5s77.334 -110.833 80.001 -191.5c-2 -83.333 -30.833 -150.333 -86.5 -201s-126.5 -77 -212.5 -79c-67.333 2.66699 -121.666 9.83398 -162.999 21.501s-70.333 18.5 -87 20.5
c-11.333 0 -21.5 -2.83301 -30.5 -8.5s-13.833 -13.834 -14.5 -24.501h-33l-12 332h33c24 -80 58.5 -148.333 103.5 -205s105.833 -86.334 182.5 -89.001c54.667 0.666992 98.334 15.334 131.001 44.001s49.334 67 50.001 115c-3.33301 56 -30.166 101.833 -80.499 137.5
s-108.333 68.834 -174 99.501s-123.334 68.834 -173.001 114.501s-75.167 107.5 -76.5 185.5c0 72 24.167 133.167 72.5 183.5s119.5 76.5 213.5 78.5c52 -1.33301 94.5 -7.5 127.5 -18.5s54.833 -17.167 65.5 -18.5z" />
    <glyph glyph-name="Ydieresis" unicode="&#x178;" horiz-adv-x="1565" 
d="M1094 1365l0.00292969 41h438v-41c-56.667 6 -115.334 -28.167 -176.001 -102.5s-201.334 -285.833 -422.001 -634.5v-422c-1.33301 -62.667 14 -106.5 46 -131.5s86.333 -37.167 163 -36.5v-38h-639v38c78.667 0 133.5 13.833 164.5 41.5s45.833 71.167 44.5 130.5v393
l-302.5 427.5c-71.667 103 -126.667 177.333 -165 223s-72.166 75 -101.499 88s-66.333 20.833 -111 23.5v41h647v-41c-67.333 -4.66699 -112 -13.334 -134 -26.001s-32 -27.334 -30 -44.001c0 -13.333 14.667 -43.166 44 -89.499s64.833 -99.666 106.5 -159.999l125 -176.5
l101.5 -143l94 145.5l117.5 180.5c40.333 61.333 74.166 114.833 101.499 160.5s41.666 74.5 42.999 86.5c-0.666992 17.333 -15.167 32.5 -43.5 45.5s-65.5 19.833 -111.5 20.5zM705.003 1701c0 -22 -7.66699 -43.5 -23 -64.5s-39.333 -32.167 -72 -33.5
c-32.667 1.33301 -57.167 12 -73.5 32s-24.5 42 -24.5 66s8.66699 46 26 66s41.333 30.667 72 32c31.333 -1.33301 55 -12.5 71 -33.5s24 -42.5 24 -64.5zM860.003 1701c0 24 8.66699 46 26 66s41.333 30.667 72 32c31.333 -1.33301 55 -12.5 71 -33.5s24 -42.5 24 -64.5
s-7.66699 -43.5 -23 -64.5s-39.333 -32.167 -72 -33.5c-32.667 1.33301 -57.167 12 -73.5 32s-24.5 42 -24.5 66z" />
    <glyph glyph-name="florin" unicode="&#x192;" 
d="M426 783l-216.998 0.000976562l12 62h217c7.33301 133.333 38.666 265.833 93.999 397.5s143 202.5 263 212.5c57.333 -0.666992 101 -13.167 131 -37.5s45 -55.5 45 -93.5c0.666992 -27.333 -4.83301 -50.333 -16.5 -69s-33.5 -28.334 -65.5 -29.001
c-28.667 0 -49.5 5.66699 -62.5 17s-19.5 27.333 -19.5 48c1.33301 18 6.83301 33.833 16.5 47.5s15.167 29.167 16.5 46.5c-4 6.66699 -9.5 11.834 -16.5 15.501s-16.5 5.5 -28.5 5.5c-66.667 -6 -114.667 -64.333 -144 -175s-48.333 -239.334 -57 -386.001h254l-8 -62
h-254c-54.667 -560.667 -120 -913 -196 -1057s-155.333 -205.667 -238 -185c-50.667 2 -91.834 16.167 -123.501 42.5s-48.5 57.166 -50.5 92.499c0 20.667 6.5 42 19.5 64s35.833 33.667 68.5 35c24.667 0 43.667 -7.16699 57 -21.5s20 -30.5 20 -48.5
c-0.666992 -19.333 -4.5 -34.666 -11.5 -45.999s-11.167 -23.333 -12.5 -36c0 -9.33301 3 -17 9 -23s15.333 -9.33301 28 -10c40.667 -1.33301 73 15.5 97 50.5s43.833 96.167 59.5 183.5s32 209 49 365z" />
    <glyph glyph-name="circumflex" unicode="&#x2c6;" 
d="M512 1304l-233 -209h-58l230 344h118l230 -344h-58z" />
    <glyph glyph-name="caron" unicode="&#x2c7;" 
d="M221 1439h58l233 -213l229 213h58l-230 -344h-118z" />
    <glyph glyph-name="breve" unicode="&#x2d8;" 
d="M262 1402c19.333 -61.333 50.832 -100.333 94.499 -117s92.834 -24 147.501 -22c54 -2 102.833 5.33301 146.5 22s75.167 55.667 94.5 117h46c-8 -73.333 -35.5 -135.5 -82.5 -186.5s-115.167 -77.5 -204.5 -79.5c-90 2 -158.333 28.5 -205 79.5s-74 113.167 -82 186.5
h45z" />
    <glyph glyph-name="dotaccent" unicode="&#x2d9;" 
d="M512 1140c-29.333 0.666992 -54.166 11.167 -74.499 31.5s-30.833 45.166 -31.5 74.499c0.666992 30 11.167 55.167 31.5 75.5s45.166 30.833 74.499 31.5c29.333 -0.666992 54.166 -11.167 74.499 -31.5s30.833 -45.5 31.5 -75.5
c-0.666992 -29.333 -11.167 -54.166 -31.5 -74.499s-45.166 -30.833 -74.499 -31.5z" />
    <glyph glyph-name="tilde" unicode="&#x2dc;" 
d="M225 1144c10 60.667 30.166 109.668 60.499 147.001s73.166 56.666 128.499 57.999c44 -2 87 -9.5 129 -22.5s76.667 -20.5 104 -22.5c28 0 48.833 7.33301 62.5 22s24.167 34.334 31.5 59.001h50c-10 -56 -30.167 -102.333 -60.5 -139s-75.833 -55.667 -136.5 -57
c-43.333 2 -84.166 9.5 -122.499 22.5s-71.166 20.5 -98.499 22.5c-24 0 -44 -7.33301 -60 -22s-29 -37.334 -39 -68.001h-49z" />
    <glyph glyph-name="pi" unicode="&#x3c0;" horiz-adv-x="1384" 
d="M37 488c20 124 56.668 218.995 110.001 284.995s138 99.333 254 100h959l-41 -192h-340c-18 -120 -29 -225.167 -33 -315.5s-7.66699 -166.166 -11 -227.499s-12.833 -107.166 -28.5 -137.499s-43.5 -45.5 -83.5 -45.5c-30 1.33301 -51.833 11.5 -65.5 30.5
s-20.5 43.167 -20.5 72.5c0 36 6.5 73.667 19.5 113s29.833 83 50.5 131s41.5 103 62.5 165s39.833 133.333 56.5 214h-389c-19.333 -117.333 -31 -220.666 -35 -309.999s-7.83301 -165.166 -11.5 -227.499s-13.334 -109 -29.001 -140s-43.834 -47.167 -84.501 -48.5
c-28.667 1.33301 -49.5 11 -62.5 29s-19.5 42.667 -19.5 74c0 34.667 5.83301 70.334 17.5 107.001s27 78.5 46 125.5s39.5 102 61.5 165s43 138.167 63 225.5h-200c-56.667 0.666992 -99.667 -14.5 -129 -45.5s-50.666 -80.167 -63.999 -147.5h-53z" />
    <glyph glyph-name="endash" unicode="&#x2013;" 
d="M1016 538v-111h-1016v111h1016z" />
    <glyph glyph-name="emdash" unicode="&#x2014;" horiz-adv-x="2040" 
d="M0 538h2040v-111h-2040v111z" />
    <glyph glyph-name="quoteleft" unicode="&#x2018;" horiz-adv-x="508" 
d="M193 1099c14 0 27.1641 0.666992 39.4971 2s23.5 2 33.5 2c27.333 -0.666992 50.5 -9.5 69.5 -26.5s28.833 -38.167 29.5 -63.5c0.666992 -32 -8.16602 -59.5 -26.499 -82.5s-50.5 -35.167 -96.5 -36.5c-56.667 2 -97 21 -121 57s-35.667 75.667 -35 119
c-1.33301 68 18.667 133.5 60 196.5s111.333 120.5 210 172.5l25 -29c-117.333 -82.667 -186.166 -154.5 -206.499 -215.5s-14.166 -92.833 18.501 -95.5z" />
    <glyph glyph-name="quoteright" unicode="&#x2019;" horiz-adv-x="508" 
d="M401 1263c1.33301 -68.667 -19.167 -134.5 -61.5 -197.5s-113.166 -120.167 -212.499 -171.5l-25 29c75.333 50.667 130.5 98.834 165.5 144.501s52.167 88.834 51.5 129.501c0 16 -3.16699 26.333 -9.5 31s-16.5 6.66699 -30.5 6c-10.667 0 -21 -0.666992 -31 -2
s-20.333 -2 -31 -2c-27.333 0.666992 -50.333 9.5 -69 26.5s-28.334 38.167 -29.001 63.5c-0.666992 31.333 8 58.666 26 81.999s50.333 35.666 97 36.999c56.667 -2 97.5 -21 122.5 -57s37.167 -75.667 36.5 -119z" />
    <glyph glyph-name="quotesinglbase" unicode="&#x201a;" horiz-adv-x="508" 
d="M119 95c0 30 9.83398 55.8311 29.501 77.498s50.834 32.834 93.501 33.501c40 0.666992 76 -13.333 108 -42s49 -74.667 51 -138c0.666992 -68 -21 -131.833 -65 -191.5s-113.667 -116.5 -209 -170.5l-25 29c59.333 39.333 110.666 81.5 153.999 126.5
s66 92.833 68 143.5c0 16.667 -3.33301 27.334 -10 32.001s-17 6.66699 -31 6c-8.66699 0 -17.834 -0.166992 -27.501 -0.5s-19.834 -0.5 -30.501 -0.5c-31.333 -0 -56.666 7.33301 -75.999 22s-29.333 39 -30 73z" />
    <glyph glyph-name="quotedblleft" unicode="&#x201c;" horiz-adv-x="954" 
d="M528 1070c-1.33301 68 19.3301 133.502 61.9971 196.502s113.667 120.5 213 172.5l24 -29c-75.333 -50.667 -130.5 -98.834 -165.5 -144.501s-52.167 -88.834 -51.5 -129.501c0 -16 3.33301 -26.333 10 -31s17 -6.66699 31 -6c10.667 0 21 0.666992 31 2s20.333 2 31 2
c27.333 -0.666992 50.333 -9.5 69 -26.5s28.334 -38.167 29.001 -63.5c0.666992 -32 -8.16602 -59.5 -26.499 -82.5s-50.5 -35.167 -96.5 -36.5c-56.667 2 -97.667 21 -123 57s-37.666 75.667 -36.999 119zM384.996 1410c-117.333 -82.667 -186.17 -154.5 -206.503 -215.5
s-14.166 -92.833 18.501 -95.5c14 0 27.167 0.666992 39.5 2s23.5 2 33.5 2c28 -0.666992 51.333 -9.5 70 -26.5s28.334 -38.167 29.001 -63.5c0.666992 -32 -8.16602 -59.5 -26.499 -82.5s-50.5 -35.167 -96.5 -36.5c-56.667 2 -97 21 -121 57s-35.667 75.667 -35 119
c-1.33301 68 18.667 133.5 60 196.5s111.333 120.5 210 172.5z" />
    <glyph glyph-name="quotedblright" unicode="&#x201d;" horiz-adv-x="954" 
d="M401 1263c1.33301 -68.667 -19.167 -134.5 -61.5 -197.5s-113.166 -120.167 -212.499 -171.5l-25 29c75.333 50.667 130.5 98.834 165.5 144.501s52.167 88.834 51.5 129.501c0 16 -3.16699 26.333 -9.5 31s-16.5 6.66699 -30.5 6c-10.667 0 -21 -0.666992 -31 -2
s-20.333 -2 -31 -2c-27.333 0.666992 -50.333 9.5 -69 26.5s-28.334 38.167 -29.001 63.5c-0.666992 31.333 8 58.666 26 81.999s50.333 35.666 97 36.999c56.667 -2 97.5 -21 122.5 -57s37.167 -75.667 36.5 -119zM545 923c116.667 82.667 185.334 154.335 206.001 215.002
s14.667 92.667 -18 96c-14 0 -27.167 -0.666992 -39.5 -2s-23.833 -2 -34.5 -2c-27.333 0.666992 -50.333 9.5 -69 26.5s-28.334 38.167 -29.001 63.5c-0.666992 31.333 8.16602 58.666 26.499 81.999s50.5 35.666 96.5 36.999c56.667 -2 97 -21 121 -57
s35.667 -75.667 35 -119c1.33301 -68.667 -18.667 -134.5 -60 -197.5s-111.666 -120.167 -210.999 -171.5z" />
    <glyph glyph-name="quotedblbase" unicode="&#x201e;" horiz-adv-x="954" 
d="M401 30c1.33301 -66 -19.167 -130.331 -61.5 -192.998s-113.166 -120.334 -212.499 -173.001l-25 29c75.333 51.333 130.5 99.833 165.5 145.5s52.167 88.5 51.5 128.5c0 16.667 -3.16699 26.667 -9.5 30s-16.5 4.66602 -30.5 3.99902c-10.667 0 -21 -0.166992 -31 -0.5
s-20.333 -0.5 -31 -0.5c-27.333 0.666992 -50.333 9 -69 25s-28.334 36.667 -29.001 62c-0.666992 32 8 59.5 26 82.5s50.333 35.167 97 36.5c56.667 -2 97.5 -21 122.5 -57s37.167 -75.667 36.5 -119zM545 -306.998c116.667 83.333 185.334 155.001 206.001 215.001
s14.667 91 -18 93c-14 0 -27.167 -0.166992 -39.5 -0.5s-23.833 -0.5 -34.5 -0.5c-27.333 0.666992 -50.333 9 -69 25s-28.334 36.667 -29.001 62c-0.666992 32 8.16602 59.5 26.499 82.5s50.5 35.167 96.5 36.5c56.667 -2 97 -21 121 -57s35.667 -75.667 35 -119
c1.33301 -66 -18.667 -130.333 -60 -193s-111.666 -120.334 -210.999 -173.001z" />
    <glyph glyph-name="dagger" unicode="&#x2020;" 
d="M188 1054c54.667 -3.33301 102.162 -16.332 142.495 -38.999s92.5 -35.667 156.5 -39c-3.33301 119.333 -17.666 197.833 -42.999 235.5s-39.666 79.167 -42.999 124.5c-0.666992 22 6.33301 44.167 21 66.5s42 34.5 82 36.5c47.333 -2 77.833 -14.167 91.5 -36.5
s19.834 -44.5 18.501 -66.5c-3.33301 -45.333 -17.666 -86.833 -42.999 -124.5s-39.666 -116.167 -42.999 -235.5c76 3.33301 131.833 16.333 167.5 39s76.834 35.667 123.501 39c33.333 0 59.5 -8.83301 78.5 -26.5s28.5 -43.167 28.5 -76.5
c0.666992 -34 -10 -58.833 -32 -74.5s-47 -23.5 -75 -23.5c-43.333 3.33301 -84 17.666 -122 42.999s-94.333 39.666 -169 42.999c4 -146 20.5 -238.333 49.5 -277s45.5 -70.667 49.5 -96c-4 -30.667 -19.833 -98.5 -47.5 -203.5s-43.5 -321.5 -47.5 -649.5h-49
c-4 327.333 -19.667 542.333 -47 645s-43 172 -47 208c4 25.333 20.333 57.333 49 96s45 131 49 277c-65.333 -3.33301 -119 -17.666 -161 -42.999s-86.333 -39.666 -133 -42.999c-31.333 0.666992 -56.166 10.167 -74.499 28.5s-27.833 42.833 -28.5 73.5
c1.33301 31.333 11.666 55.666 30.999 72.999s41.666 26 66.999 26z" />
    <glyph glyph-name="daggerdbl" unicode="&#x2021;" 
d="M188 1054c54 -3.33301 100.667 -15.6602 140 -36.9932s91 -33.666 155 -36.999c-3.33301 119.333 -17 197.166 -41 233.499s-37.667 77.166 -41 122.499c-0.666992 22 6.33301 44.167 21 66.5s42 34.5 82 36.5c47.333 -2 77.833 -14.167 91.5 -36.5
s19.834 -44.5 18.501 -66.5c-3.33301 -45.333 -17 -86.166 -41 -122.499s-37.667 -114.166 -41 -233.499c68.667 3.33301 121.834 15.666 159.501 36.999s80.167 33.666 127.5 36.999c33.333 0 59.5 -8.83301 78.5 -26.5s28.5 -43.167 28.5 -76.5
c0.666992 -34 -10 -58.833 -32 -74.5s-47 -23.5 -75 -23.5c-45.333 3.33301 -89.5 17 -132.5 41s-94.5 37.667 -154.5 41c4 -138 19.167 -229.333 45.5 -274s41.5 -76.334 45.5 -95.001c-4 -18.667 -19.167 -49.667 -45.5 -93s-41.5 -133.666 -45.5 -270.999
c67.333 3.33301 121 16.333 161 39s82 35.667 126 39c28 0 53 -7.83301 75 -23.5s32.667 -40.834 32 -75.501c0 -32.667 -9.5 -57.834 -28.5 -75.501s-45.167 -26.5 -78.5 -26.5c-47.333 3.33301 -89.333 16.333 -126 39s-90.334 35.667 -161.001 39
c3.33301 -117.333 17 -194.666 41 -231.999s37.667 -79.333 41 -126c1.33301 -21.333 -4.83398 -43 -18.501 -65s-44.167 -34.333 -91.5 -37c-40 2.66699 -67.333 15 -82 37s-21.667 43.667 -21 65c3.33301 46.667 17 88.667 41 126s37.667 114.666 41 231.999
c-64 -3.33301 -115.667 -16.333 -155 -39s-86 -35.667 -140 -39c-25.333 0 -47.666 8.66699 -66.999 26s-29.666 41.333 -30.999 72c0.666992 31.333 10.167 56.166 28.5 74.499s43.166 27.833 74.499 28.5c46.667 -3.33301 90.334 -16.333 131.001 -39
s93.667 -35.667 159 -39c-4 137.333 -19.667 228.166 -47 272.499s-43 74.833 -47 91.5c4 17.333 19.667 48.666 47 93.999s43 137 47 275c-65.333 -3.33301 -118.333 -17 -159 -41s-84.334 -37.667 -131.001 -41c-31.333 0.666992 -56.166 10.167 -74.499 28.5
s-27.833 42.833 -28.5 73.5c1.33301 31.333 11.666 55.666 30.999 72.999s41.666 26 66.999 26z" />
    <glyph glyph-name="bullet" unicode="&#x2022;" horiz-adv-x="1204" 
d="M598 1046c89.333 -3.33301 160.5 -34.166 213.5 -92.499s80.167 -125.833 81.5 -202.5c-1.33301 -76.667 -28.5 -143.667 -81.5 -201s-124.167 -87.333 -213.5 -90c-87.333 2.66699 -157.333 32.667 -210 90s-79.667 124.333 -81 201
c1.33301 76.667 28.333 144.167 81 202.5s122.667 89.166 210 92.499z" />
    <glyph glyph-name="ellipsis" unicode="&#x2026;" horiz-adv-x="2032" 
d="M213 99c0 34 10.6689 62.166 32.002 84.499s51.666 33.833 90.999 34.5c39.333 -1.33301 69.666 -14.166 90.999 -38.499s32 -52.5 32 -84.5s-10.167 -59.5 -30.5 -82.5s-51.166 -35.5 -92.499 -37.5c-40.667 2 -71.334 14.833 -92.001 38.5s-31 52.167 -31 85.5z
M889.002 98.999c0 34 10.6689 62.166 32.002 84.499s51.666 33.833 90.999 34.5c39.333 -1.33301 69.666 -14.166 90.999 -38.499s32 -52.5 32 -84.5s-10.167 -59.5 -30.5 -82.5s-51.166 -35.5 -92.499 -37.5c-40.667 2 -71.334 14.833 -92.001 38.5s-31 52.167 -31 85.5z
M1569 98.998c0 34 10.667 62.166 32 84.499s51.666 33.833 90.999 34.5c38.667 -1.33301 68.834 -14.166 90.501 -38.499s32.5 -52.5 32.5 -84.5s-10.167 -59.5 -30.5 -82.5s-51.166 -35.5 -92.499 -37.5c-40.667 2 -71.334 14.833 -92.001 38.5s-31 52.167 -31 85.5z" />
    <glyph glyph-name="perthousand" unicode="&#x2030;" horiz-adv-x="2769" 
d="M623 1435c48.667 0 87 -7.83301 115 -23.5s53.667 -33.5 77 -53.5s52 -37.833 86 -53.5s81.667 -24.167 143 -25.5c81.333 2 157 22.5 227 61.5s124.333 84.167 163 135.5h82l-1012 -1537h-86l921 1385c-42 -26.667 -86.833 -48.167 -134.5 -64.5
s-103.834 -24.833 -168.501 -25.5c-32.667 0 -64 3.33301 -94 10s-57.333 14.334 -82 23.001l4 -94c-1.33301 -92 -42 -200.833 -122 -326.5s-192 -194.5 -336 -206.5c-82 2 -144.667 27.667 -188 77s-65.333 109.666 -66 180.999
c4.66699 115.333 53.334 231.333 146.001 348s201 179.667 325 189zM1774 529c-3.33301 -116 -49.168 -234.667 -137.501 -356s-199.5 -187.333 -333.5 -198c-78.667 3.33301 -139.167 31.666 -181.5 84.999s-63.833 117 -64.5 191
c4.66699 115.333 53.334 230.666 146.001 345.999s203.667 177.333 333 186c85.333 -1.33301 146.5 -25.666 183.5 -72.999s55.167 -107.666 54.5 -180.999zM1556 722c-81.333 -14.667 -160.835 -89 -238.502 -223s-119.5 -240 -125.5 -318c0 -40 11 -73 33 -99
s57.333 -39.333 106 -40c96.667 6.66699 183.834 61.5 261.501 164.5s118.834 213.5 123.501 331.5c0 52 -12.833 95.333 -38.5 130s-66.167 52.667 -121.5 54zM642.996 1365c-80.667 -15.333 -158.835 -89.501 -234.502 -222.501s-116.167 -233.5 -121.5 -301.5
c0 -47.333 12 -83.166 36 -107.499s62.333 -36.5 115 -36.5c92.667 9.33301 176.834 67 252.501 173s115.834 202.667 120.501 290c0.666992 26 0.166992 48.833 -1.5 68.5s-6.5 40.5 -14.5 62.5c-32.667 12 -60.667 26.833 -84 44.5s-46 27.5 -68 29.5zM2404 721.999
c-81.333 -14.667 -160.834 -89 -238.501 -223s-119.5 -240 -125.5 -318c0 -40 11 -73 33 -99s57.333 -39.333 106 -40c96.667 6.66699 183.834 61.5 261.5 164.5c77.667 103 118.834 213.5 123.501 331.5c0 52 -12.833 95.333 -38.5 130s-66.167 52.667 -121.5 54z
M2383.99 782.999c85.333 -1.33301 146.332 -25.666 182.999 -72.999s54.667 -107.666 54 -180.999c-3.33301 -116 -49 -234.667 -137 -356s-199.333 -187.333 -334 -198c-78 3.33301 -138.167 31.666 -180.5 84.999s-63.833 117 -64.5 191
c4.66699 115.333 53.334 230.666 146.001 345.999s203.667 177.333 333 186z" />
    <glyph glyph-name="guilsinglleft" unicode="&#x2039;" horiz-adv-x="631" 
d="M94 476c84.667 74 152.667 135.833 204 185.5l120 118.5c28.667 29.333 50.167 50.5 64.5 63.5s26.833 18.833 37.5 17.5c28.667 -8.66699 11.167 -57.5 -52.5 -146.5s-125.167 -168.5 -184.5 -238.5c59.333 -70 120.833 -149.5 184.5 -238.5
s81.167 -137.833 52.5 -146.5c-10.667 0 -23.167 6.5 -37.5 19.5s-35.833 34.167 -64.5 63.5l-120 119c-51.333 50 -119.333 111 -204 183z" />
    <glyph glyph-name="guilsinglright" unicode="&#x203a;" horiz-adv-x="631" 
d="M537 476c-86 -72 -155 -133 -207 -183s-92 -89.667 -120 -119s-49.167 -50.5 -63.5 -63.5s-26.166 -19.5 -35.499 -19.5c-28.667 8.66699 -11.167 57.5 52.5 146.5s125.167 168.5 184.5 238.5c-59.333 70 -120.833 149.5 -184.5 238.5s-81.167 137.833 -52.5 146.5
c9.33301 1.33301 21.166 -4.5 35.499 -17.5s35.5 -34.167 63.5 -63.5s68 -68.833 120 -118.5s121 -111.5 207 -185.5z" />
    <glyph glyph-name="trademark" unicode="&#x2122;" horiz-adv-x="1675" 
d="M238 1250l11.998 181h438l12 -181h-24c1.33301 19.333 -6 48.333 -22 87s-47 60.334 -93 65.001h-41v-422c-1.33301 -13.333 1.83398 -26 9.50098 -38s29.167 -18.333 64.5 -19v-25h-250v25c35.333 0.666992 56.833 7 64.5 19s10.834 24.667 9.50098 38v422h-41
c-46 -4.66699 -77 -26.334 -93 -65.001s-23.333 -67.667 -22 -87h-24zM777.998 1406l0.000976562 25.002h185l139 -398l143 398h176v-25c-22.667 0 -39.834 -3.66699 -51.501 -11s-17.5 -20 -17.5 -38v-381c0.666992 -22 8.16699 -36.5 22.5 -43.5s29.833 -10.167 46.5 -9.5
l-4 -25h-229v25c19.333 -0.666992 36.333 2.16602 51 8.49902s22.334 21.166 23.001 44.499v397l-177 -479h-16l-176 479v-397c0.666992 -23.333 8.16699 -38.166 22.5 -44.499s32.833 -9.16602 55.5 -8.49902v-25h-193v25c24.667 -0.666992 43.167 2.16602 55.5 8.49902
s18.5 21.166 18.5 44.499v381c-0.666992 20 -8.33398 33.333 -23.001 40s-31.667 9.66699 -51 9z" />
    <glyph glyph-name="Omega" unicode="&#x2126;" horiz-adv-x="1565" 
d="M152 878c5.33301 184.667 68.333 331.834 189 441.501s267.667 165.834 441 168.501c173.333 -2.66699 320.5 -58.834 441.5 -168.501s184.167 -256.834 189.5 -441.501c5.33301 -68 -9.5 -153.167 -44.5 -255.5s-122.5 -234.5 -262.5 -396.5v-28h311l62 184h57
l-115 -382h-503c110.667 196.667 180.167 374.167 208.5 532.5s40.5 273.5 36.5 345.5c0 24 -2.33301 64.333 -7 121s-18.667 117.5 -42 182.5s-60.833 120.333 -112.5 166s-124.834 69.167 -219.501 70.5c-95.333 -1.33301 -169.333 -24.833 -222 -70.5
s-90.167 -101 -112.5 -166s-36 -125.833 -41 -182.5s-6.83301 -97 -5.5 -121c-4 -72 8.33301 -187.167 37 -345.5s98.334 -335.833 209.001 -532.5h-504l-114 382h57l61 -184h312v28c-140 162 -227.5 294.167 -262.5 396.5s-49.833 187.5 -44.5 255.5z" />
    <glyph glyph-name="partialdiff" unicode="&#x2202;" 
d="M414 1078c-22.667 0 -40.667 5.16895 -54 15.502s-20 25.833 -20 46.5c1.33301 40 20.666 74.167 57.999 102.5s86.333 43.166 147 44.499c100 -0.666992 182.5 -46.667 247.5 -138s98.5 -225.333 100.5 -402c-2 -211.333 -44 -391 -126 -539
s-191.667 -225.667 -329 -233c-91.333 2.66699 -164.333 36.667 -219 102s-82.667 152 -84 260c2 129.333 36.5 232.833 103.5 310.5s152.833 117.5 257.5 119.5c58.667 0.666992 106.834 -13.333 144.501 -42s68.5 -77.334 92.5 -146.001
c10.667 39.333 18.167 85.5 22.5 138.5s6.5 107.833 6.5 164.5c0 112.667 -11 197.5 -33 254.5s-54.667 85.5 -98 85.5c-35.333 -6 -69 -30 -101 -72s-70.667 -66 -116 -72zM524 710.002c-67.333 -0.666992 -124.5 -39.834 -171.5 -117.501s-71.5 -191.5 -73.5 -341.5
c2 -90.667 20.333 -153.334 55 -188.001s73.667 -51.334 117 -50.001c82 4 144 49.833 186 137.5s63 194.834 63 321.501c-0.666992 72.667 -16.667 130.334 -48 173.001s-74 64.334 -128 65.001z" />
    <glyph glyph-name="Delta" unicode="&#x2206;" horiz-adv-x="1425" 
d="M733 1431l651 -1431h-1335l651 1431h33zM647 1099l-450 -1008h905z" />
    <glyph glyph-name="product" unicode="&#x220f;" horiz-adv-x="1700" 
d="M66 1549h1564v-82h-180v-1868h180v-82h-536v82h168v1868h-828v-1868h168v-82h-536v82h180v1868h-180v82z" />
    <glyph glyph-name="Sigma" unicode="&#x2211;" horiz-adv-x="1348" 
d="M25 1463h868.002c19.333 0 35.666 2.5 48.999 7.5s20.333 13.5 21 25.5l-21 90h78l123 -393h-74c-36 83.333 -63.833 138.333 -83.5 165s-58.834 38.667 -117.501 36h-536l598 -635v-29l-292 -256l-298 -256h704c40 -2 66.833 9.83301 80.5 35.5s33.5 79.5 59.5 161.5h73
l-163 -554h-78c6.66699 16.667 13.667 37 21 61s11.333 41.667 12 53c0 10.667 -3.16699 17.5 -9.5 20.5s-15.5 4.5 -27.5 4.5h-987v38l712 618l-712 754v53z" />
    <glyph glyph-name="minus" unicode="&#x2212;" horiz-adv-x="1700" 
d="M1442 669v-135h-1188v135h1188z" />
    <glyph glyph-name="fraction" unicode="&#x2215;" horiz-adv-x="340" 
d="M676 1435l-923 -1460h-90l923 1460h90z" />
    <glyph glyph-name="smallbullet" unicode="&#x2219;" horiz-adv-x="508" 
d="M381 697c-0.666992 -33.333 -12.834 -61.833 -36.501 -85.5s-52.5 -36.167 -86.5 -37.5c-33.333 1.33301 -61.833 13.833 -85.5 37.5s-36.167 52.167 -37.5 85.5c1.33301 34 13.833 62.833 37.5 86.5s52.167 35.834 85.5 36.501
c34 -0.666992 62.833 -12.834 86.5 -36.501s35.834 -52.5 36.501 -86.5z" />
    <glyph glyph-name="radical" unicode="&#x221a;" horiz-adv-x="1298" 
d="M340 964l254 -713l516 1397h184v-90h-114l-590 -1599h-62l-319 874l-123 -41l-25 77z" />
    <glyph glyph-name="infinity" unicode="&#x221e;" horiz-adv-x="1700" 
d="M520 988c92 -6 163.331 -40.5029 213.998 -103.503s86 -117.167 106 -162.5c25.333 63.333 65.166 123.166 119.499 179.499s119.5 86.5 195.5 90.5c88.667 -1.33301 164.167 -36.666 226.5 -105.999s94.833 -165 97.5 -287c0 -98 -25.167 -185 -75.5 -261
s-123.5 -116 -219.5 -120c-89.333 5.33301 -159.666 37.833 -210.999 97.5s-89 114.5 -113 164.5c-28 -63.333 -67.333 -122.666 -118 -177.999s-117.667 -84.666 -201 -87.999c-83.333 2 -156.666 38.833 -219.999 110.5s-96.666 165.834 -99.999 282.501
c-0.666992 91.333 23.5 176.333 72.5 255s124.5 120.667 226.5 126zM294.998 594.997c0.666992 -68.667 19 -125.165 55 -169.498s86 -67.166 150 -68.499c68 2 124.5 30.167 169.5 84.5s85.5 124.5 121.5 210.5c-23.333 52.667 -56.833 95.667 -100.5 129
s-96.5 50.666 -158.5 51.999c-68.667 -0.666992 -125 -22.334 -169 -65.001s-66.667 -100.334 -68 -173.001zM1200 844.999c-81.333 -6 -144.831 -42.834 -190.498 -110.501s-79.167 -129.167 -100.5 -184.5c25.333 -45.333 57.666 -86.166 96.999 -122.499
s96 -55.5 170 -57.5c66.667 0.666992 121.167 22 163.5 64s64.166 101 65.499 177c-0.666992 71.333 -19 128 -55 170s-86 63.333 -150 64z" />
    <glyph glyph-name="integral" unicode="&#x222b;" 
d="M717 1435c-54 -9.33301 -88.499 -99.1641 -103.499 -269.497s-21.5 -364.5 -19.5 -582.5c1.33301 -283.333 -27.334 -511.5 -86.001 -684.5s-157 -262.167 -295 -267.5c-54 1.33301 -95.5 14.666 -124.5 39.999s-43.5 58.666 -43.5 99.999c0 31.333 8.66699 55 26 71
s41.333 23.667 72 23c53.333 -4.66699 82.833 -26.167 88.5 -64.5s26.834 -60.5 63.501 -66.5c55.333 7.33301 90.166 91.833 104.499 253.5s20.5 361.5 18.5 599.5c-1.33301 274 27.334 499.333 86.001 676s157 268 295 274c53.333 -0.666992 94.5 -13.5 123.5 -38.5
s43.833 -58.5 44.5 -100.5c0 -30.667 -8.66699 -53.334 -26 -68.001s-41.666 -22 -72.999 -22c-52.667 5.33301 -81.834 26.5 -87.501 63.5s-26.834 58.167 -63.501 63.5z" />
    <glyph glyph-name="approxequal" unicode="&#x2248;" horiz-adv-x="1700" 
d="M565 923c56 0 110.002 -6.5 162.002 -19.5s101.167 -28.5 147.5 -46.5s91 -33.667 134 -47s85.167 -21 126.5 -23c59.333 0.666992 121.833 14.5 187.5 41.5s131.5 65.167 197.5 114.5v-151c-45.333 -32.667 -100.666 -63.667 -165.999 -93s-137 -45 -215 -47
c-50.667 1.33301 -99.834 8.83301 -147.501 22.5s-94.5 29.5 -140.5 47.5s-91.833 33.333 -137.5 46s-92.5 19 -140.5 19c-72 -1.33301 -141.667 -16.833 -209 -46.5s-130 -65.834 -188 -108.501v151c63.333 43.333 126.666 77.333 189.999 102
s129.666 37.334 198.999 38.001zM176.002 419c63.333 43.333 126.668 77.167 190.001 101.5s129.666 36.833 198.999 37.5c56 0 110 -6.5 162 -19.5s101.167 -28.333 147.5 -46s91 -33.334 134 -47.001s85.167 -21.167 126.5 -22.5c59.333 0 121.833 13.5 187.5 40.5
s131.5 65.5 197.5 115.5v-152c-45.333 -32.667 -100.666 -63.5 -165.999 -92.5s-137 -44.5 -215 -46.5c-50.667 1.33301 -99.834 8.83301 -147.501 22.5s-94.5 29.334 -140.5 47.001s-91.833 33 -137.5 46s-92.5 19.5 -140.5 19.5c-72 -1.33301 -141.667 -17 -209 -47
s-130 -66.333 -188 -109v152z" />
    <glyph glyph-name="notequal" unicode="&#x2260;" horiz-adv-x="1700" 
d="M823 472h619v-131h-705l-245 -315l-107 82l188 233h-319v131h401l209 262h-610v131h700l246 316l98 -78l-180 -238h324v-131h-414z" />
    <glyph glyph-name="lessequal" unicode="&#x2264;" horiz-adv-x="1704" 
d="M1438 1193v-143l-938 -308l938 -307v-143l-1176 393v115zM262 153h1176v-136h-1176v136z" />
    <glyph glyph-name="greaterequal" unicode="&#x2265;" horiz-adv-x="1700" 
d="M1438 153v-136h-1176v136h1176zM262 1193l1176 -393v-115l-1176 -393v143l938 307l-938 308v143z" />
    <glyph glyph-name="lozenge" unicode="&#x25ca;" horiz-adv-x="2040" 
d="M434 673l578 737l590 -733l-590 -734zM1016 1230l-438 -553l438 -553l446 553z" />
    <glyph glyph-name="glyph1" horiz-adv-x="0" 
 />
  </font>
</defs>
</svg>
